<?xml version="1.0" encoding="iso-8859-1"?>
<!-- Generator: Adobe Illustrator 19.0.0, SVG Export Plug-In . SVG Version: 6.00 Build 0)  -->
<svg version="1.1" id="Capa_1" xmlns="http://www.w3.org/2000/svg" xmlns:xlink="http://www.w3.org/1999/xlink" x="0px" y="0px"
	 viewBox="0 0 512 512" style="enable-background:new 0 0 512 512;" xml:space="preserve">
<g>
	<path style="fill:#FFBD50;" d="M76.891,473.949c0,0,34.316-41.847-6.456-116.059L10,502L76.891,473.949z"/>
	<path style="fill:#F1DBC8;" d="M70.435,357.891c40.772,74.212,6.456,116.059,6.456,116.059l51.456-21.578
		c0,0,64.68-48.176-18.158-189.28l-25.116,59.893L70.435,357.891z"/>
	<path style="fill:#FFBD50;" d="M110.188,263.091c82.837,141.104,18.158,189.28,18.158,189.28l54.355-22.794
		c11.25-12.272,71.886-123.461,3.223-227.37c-18.202-24.348-28.609-43.988-27.689-53.686l-29.463,70.257L110.188,263.091z"/>
	<path style="fill:#F1DBC8;" d="M185.92,202.204c68.666,103.912,8.03,215.1-3.22,227.373l6.315-2.648l69.805-29.273
		c0,0,32.471-24.611,32.588-86.074c-15.043-12.438-31.212-27.145-47.527-43.462C220.673,244.913,200.723,222.004,185.92,202.204z"/>
	<path style="fill:#FFBD50;" d="M291.409,311.581c-0.117,61.464-32.588,86.074-32.588,86.074l104.658-43.889
		C351.442,354.909,324.08,338.595,291.409,311.581z"/>
	<path style="fill:#C78F70;" d="M243.881,268.119c16.316,16.316,32.484,31.023,47.527,43.462
		c32.671,27.014,60.034,43.328,72.07,42.187l4.553-1.909c7.771-7.77-8.047-37.08-37.75-73.544
		c-12.956-15.905-28.554-33.172-45.989-50.606c-19.061-19.061-37.922-35.928-55.022-49.546
		c-34.399-27.395-61.675-41.647-69.128-34.193l-1.909,4.553c-0.92,9.697,9.487,29.338,27.689,53.686
		C200.723,222.004,220.673,244.913,243.881,268.119z"/>
	<circle style="fill:#F13D7C;" cx="198.499" cy="65.62" r="20"/>
	<circle style="fill:#BDD377;" cx="389.967" cy="30" r="20"/>
	<circle style="fill:#FF916C;" cx="452.497" cy="203.619" r="20"/>
	<path d="M360.165,301.533c-4.225-6.264-9.026-12.858-14.302-19.68c19.152-8.872,38.221-15.344,56.953-19.308
		c5.403-1.143,8.856-6.45,7.713-11.853c-1.143-5.403-6.444-8.857-11.854-7.713c-21.683,4.588-43.704,12.261-65.728,22.865
		c-12.303-14.673-26.387-30.015-41.582-45.21c-16.147-16.146-32.462-31.048-47.961-43.878
		c13.412-16.959,24.359-35.947,32.641-56.728c12.913-32.401,19.461-69.419,19.461-110.029c0-5.523-4.478-10-10-10s-10,4.477-10,10
		c0,62.572-16.044,114.358-47.728,154.32c-5.979-4.561-11.776-8.753-17.312-12.486c-29.637-19.989-47.289-24.674-57.155-15.162
		c-0.07,0.065-0.143,0.129-0.211,0.196c-0.01,0.01-0.02,0.019-0.03,0.028c-0.006,0.006-0.011,0.013-0.017,0.018
		c-2.527,2.533-4.087,5.596-4.678,9.251L0.778,498.133c-1.57,3.744-0.72,8.067,2.151,10.938C4.843,510.984,7.401,512,10.003,512
		c1.302,0,2.616-0.254,3.865-0.778l172.742-72.439c0.028-0.012,0.056-0.023,0.084-0.035l75.958-31.854
		c0.038-0.016,0.076-0.031,0.113-0.047l103.073-43.225c3.337-0.54,6.172-1.904,8.569-4.061c0.174-0.145,0.337-0.299,0.5-0.453
		c0.064-0.063,0.133-0.115,0.196-0.179c0.01-0.01,0.018-0.021,0.027-0.03c0.069-0.068,0.133-0.142,0.199-0.213
		C384.839,348.819,380.154,331.168,360.165,301.533z M206.101,408.92c6.855-15.036,13.848-34.775,18.004-56.812
		c4.642-24.614,6.683-56.982-1.906-91.935c4.737,5.004,9.61,10.019,14.609,15.018c14.958,14.957,30.056,28.836,44.52,41
		c-1.434,47.213-23.089,68.726-27.753,72.821L206.101,408.92z M154.968,430.363c2.054-5.189,3.865-11.099,5.177-17.796
		c8.004-40.853-5.062-91.365-38.815-150.187l10.82-25.801c8.564,10.305,18.322,24.89,22.274,34.086
		c1.627,3.787,5.316,6.055,9.192,6.055c1.317,0,2.657-0.263,3.944-0.815c5.074-2.181,7.419-8.061,5.239-13.136
		c-5.864-13.644-20.733-34.874-32.107-46.559l16.533-39.425c2.896,5.31,6.483,11.128,10.785,17.506
		c2.962,4.392,6.207,8.945,9.697,13.625c34.207,51.906,33.433,105.035,26.746,140.484c-7.111,37.704-22.338,65.309-27.931,72.922
		L154.968,430.363z M111.46,285.915c31.093,58.951,33.426,98.01,29.391,121.008c-4.032,22.984-14.726,34.063-17.767,36.811
		l-26.351,11.05c5.858-20.854,7.398-53.957-15.241-97.409L111.46,285.915z M300.233,331.382c6.036,4.608,11.889,8.842,17.475,12.609
		c6.381,4.304,12.198,7.889,17.51,10.785l-47.173,19.781C293.398,363.482,298.125,349.209,300.233,331.382z M214.541,179.385
		c-0.701,0.722-1.393,1.451-2.106,2.164c-3.905,3.905-3.905,10.237,0,14.143c1.953,1.952,4.512,2.929,7.071,2.929
		s5.119-0.977,7.071-2.929c1.256-1.256,2.493-2.529,3.716-3.814c15.169,12.539,31.208,27.179,46.929,42.9
		c13.519,13.519,26.23,27.271,37.504,40.504c-1.806,1.003-3.611,2.023-5.416,3.065c-4.783,2.762-6.422,8.878-3.66,13.66
		c1.852,3.208,5.213,5.002,8.67,5.002c1.696,0,3.416-0.433,4.99-1.342c2.776-1.604,5.554-3.143,8.331-4.646
		c4.345,5.518,8.377,10.883,12.018,16.023c14.896,21.023,18.909,31.758,19.966,36.408c-4.65-1.058-15.385-5.072-36.408-19.966
		c-21.74-15.403-47.405-37.577-72.266-62.437c-24.86-24.86-47.035-50.525-62.437-72.265c-14.895-21.023-18.909-31.758-19.966-36.408
		c4.65,1.058,15.385,5.072,36.408,19.966C208.073,174.549,211.277,176.91,214.541,179.385z M71.005,382.386
		c8.281,20.762,11.153,40.65,8.311,58.374c-2.087,13.013-6.728,21.567-8.961,25.087l-41.679,17.478L71.005,382.386z"/>
	<path d="M180.884,288.533c-2.267-5.037-8.186-7.283-13.223-5.016c-4.88,2.196-7.14,7.822-5.214,12.751
		c1.514,3.963,5.299,6.43,9.34,6.43c1.096,0,2.21-0.182,3.304-0.564c5.212-1.824,7.96-7.529,6.135-12.742
		C181.131,289.121,181.002,288.795,180.884,288.533z"/>
	<path d="M373.433,154.691c1.953,1.952,4.512,2.929,7.071,2.929c2.56,0,5.118-0.977,7.071-2.929
		c22.343-22.343,58.543-32.583,84.971-34.716c5.505-0.444,9.607-5.268,9.163-10.772c-0.445-5.505-5.258-9.591-10.772-9.163
		c-29.973,2.419-71.326,14.331-97.504,40.509C369.528,144.454,369.528,150.786,373.433,154.691z"/>
	<path d="M504.589,101.963c-0.283-0.076-0.571-0.151-0.862-0.224c-5.359-1.336-10.785,1.929-12.12,7.288
		c-1.334,5.359,1.929,10.786,7.288,12.12l0.511,0.132c0.868,0.233,1.74,0.345,2.598,0.345c4.414,0,8.454-2.945,9.652-7.411
		C513.087,108.879,509.924,103.395,504.589,101.963z"/>
	<path d="M73.504,83.621h10v10c0,5.522,4.477,10,10,10s10-4.478,10-10v-10h10c5.523,0,10-4.478,10-10c0-5.522-4.477-10-10-10h-10
		v-10c0-5.522-4.477-10-10-10s-10,4.478-10,10v10h-10c-5.523,0-10,4.478-10,10C63.504,79.144,67.981,83.621,73.504,83.621z"/>
	<path d="M307.502,180.62h10.001v9.999c0,5.523,4.478,10,10,10c5.523,0,10-4.477,10-10v-9.999h9.999c5.522,0,10-4.478,10-10
		s-4.478-10-10-10h-9.999v-10.001c0-5.522-4.477-10-10-10c-5.522,0-10,4.478-10,10v10.001h-10.001c-5.522,0-10,4.478-10,10
		C297.502,176.143,301.98,180.62,307.502,180.62z"/>
	<path d="M446.501,417.618h-10v-10c0-5.522-4.478-10-10-10c-5.522,0-10,4.478-10,10v10h-10c-5.522,0-10,4.478-10,10
		c0,5.522,4.478,10,10,10h10v10c0,5.522,4.478,10,10,10c5.522,0,10-4.478,10-10v-10h10c5.522,0,10-4.478,10-10
		C456.501,422.096,452.024,417.618,446.501,417.618z"/>
	<path d="M389.969,60.001c16.542,0,30-13.458,30-30s-13.458-30-30-30s-30,13.458-30,30S373.427,60.001,389.969,60.001z
		 M389.969,20.001c5.514,0,10,4.486,10,10s-4.486,10-10,10c-5.514,0-10-4.486-10-10S384.455,20.001,389.969,20.001z"/>
	<path d="M452.501,173.619c-16.542,0-30,13.458-30,30s13.458,30,30,30s30-13.458,30-30S469.042,173.619,452.501,173.619z
		 M452.501,213.619c-5.514,0-10-4.486-10-10s4.486-10,10-10s10,4.486,10,10S458.015,213.619,452.501,213.619z"/>
	<path d="M198.503,95.62c16.542,0,30-13.458,30-30s-13.458-30-30-30s-30,13.458-30,30S181.961,95.62,198.503,95.62z M198.503,55.62
		c5.514,0,10,4.486,10,10s-4.486,10-10,10s-10-4.486-10-10C188.503,60.107,192.989,55.62,198.503,55.62z"/>
	<path d="M449.19,294.058c0-5.508-4.492-10-10-10c-5.508,0-10,4.492-10,10s4.492,10,10,10
		C444.698,304.058,449.19,299.565,449.19,294.058z"/>
	<path d="M335.189,95.06c5.508,0,10-4.492,10-10c0-5.508-4.492-10-10-10c-5.508,0-10,4.492-10,10
		C325.19,90.567,329.682,95.06,335.189,95.06z"/>
	<path d="M469.189,359.057c-5.508,0-10.001,4.493-10.001,10.001c0,5.508,4.493,10,10.001,10c5.507,0,10-4.492,10-10
		C479.189,363.55,474.696,359.057,469.189,359.057z"/>
	<path d="M139.192,30.001c5.508,0,10-4.492,10-10s-4.492-10-10-10c-5.508,0-10,4.492-10,10S133.684,30.001,139.192,30.001z"/>
</g>
<g>
</g>
<g>
</g>
<g>
</g>
<g>
</g>
<g>
</g>
<g>
</g>
<g>
</g>
<g>
</g>
<g>
</g>
<g>
</g>
<g>
</g>
<g>
</g>
<g>
</g>
<g>
</g>
<g>
</g>
</svg>
