<?xml version="1.0" encoding="utf-8"?>
<!-- Generator: Adobe Illustrator 24.1.0, SVG Export Plug-In . SVG Version: 6.00 Build 0)  -->
<svg version="1.1" id="Layer_1" xmlns="http://www.w3.org/2000/svg" xmlns:xlink="http://www.w3.org/1999/xlink" x="0px" y="0px"
	 viewBox="0 0 230 82.4" style="enable-background:new 0 0 230 82.4;" xml:space="preserve">
<style type="text/css">
	.st0{display:none;enable-background:new    ;}
	.st1{display:inline;fill:#151B26;}
	.st2{fill:#FFBD50;}
	.st3{fill:#F1DBC8;}
	.st4{fill:#C78F70;}
	.st5{fill:#F13D7C;}
	.st6{fill:#BDD377;}
	.st7{fill:#FF916C;}
	.st8{font-family:'Hack-Bold';}
	.st9{font-size:22.2015px;}
</style>
<g class="st0">
	<path class="st1" d="M80.2,67.5c-10.7,0-18.3-5.7-18.3-15.1h9.5c0.6,4.4,3.2,7.6,9.5,7.6s9.5-3.2,9.5-7.6c0-12.6-27.8-4.4-27.8-24
		c0-9.5,7.6-15.1,18.3-15.1c10.1,0,17,5,17.7,14.5h-9.5c0-3.8-3.2-6.9-8.8-6.9c-5,0-8.8,2.5-8.8,7.6c0,12,27.8,4.4,27.8,24
		C98.5,59.9,92.2,67.5,80.2,67.5z"/>
	<path class="st1" d="M104.2,25.2h8.8l8.8,33.4l8.8-33.4h8.8l8.2,33.4l8.8-33.4h8.2l-13.2,41.6h-8.8l-8.2-30.9l-8.2,30.9h-9.5
		L104.2,25.2z"/>
	<path class="st1" d="M188.1,24.6c6.9,0,12,3.2,14.5,6.9v-6.3h8.8v41.6h-8.8v-6.3c-2.5,3.8-7.6,6.9-14.5,6.9
		c-10.7,0-19.6-8.8-19.6-21.4S177.4,24.6,188.1,24.6z M190,32.1c-6.3,0-12.6,5-12.6,13.9s6.3,14.5,12.6,14.5s12.6-5,12.6-13.9
		C202.6,37.2,196.2,32.1,190,32.1z"/>
	<path class="st1" d="M246.1,24.6c10.7,0,19.6,7.7,19.6,20.1s-8.8,20.1-19.6,20.1c-6.9,0-12-3.5-14.5-6.5v24.2h-8.8V25.2h8.8v5.9
		C234.1,28.1,239.1,24.6,246.1,24.6z M244.2,31.7c-6.3,0-12.6,4.7-12.6,13s6.3,13,12.6,13c6.3,0,12.6-4.7,12.6-13.6
		C256.9,36.4,250.6,31.7,244.2,31.7z"/>
</g>
<g>
	<path class="st2" d="M31.8,75.1c0,0,5.3-6.4-1-17.9l-9.3,22.2L31.8,75.1z"/>
	<path class="st3" d="M30.8,57.2c6.3,11.4,1,17.9,1,17.9l7.9-3.3c0,0,10-7.4-2.8-29.2L33,51.8L30.8,57.2z"/>
	<path class="st2" d="M36.9,42.6c12.8,21.7,2.8,29.2,2.8,29.2l8.4-3.5c1.7-1.9,11.1-19,0.5-35c-2.8-3.7-4.4-6.8-4.3-8.3l-4.5,10.8
		L36.9,42.6z"/>
	<path class="st3" d="M48.6,33.2c10.6,16,1.2,33.1-0.5,35l1-0.4l10.8-4.5c0,0,5-3.8,5-13.3c-2.3-1.9-4.8-4.2-7.3-6.7
		C53.9,39.8,50.9,36.3,48.6,33.2z"/>
	<path class="st2" d="M64.8,50.1c0,9.5-5,13.3-5,13.3l16.1-6.8C74.1,56.8,69.9,54.2,64.8,50.1z"/>
	<path class="st4" d="M57.5,43.4c2.5,2.5,5,4.8,7.3,6.7c5,4.2,9.2,6.7,11.1,6.5l0.7-0.3c1.2-1.2-1.2-5.7-5.8-11.3
		c-2-2.4-4.4-5.1-7.1-7.8c-2.9-2.9-5.8-5.5-8.5-7.6c-5.3-4.2-9.5-6.4-10.6-5.3L44.3,25c-0.1,1.5,1.5,4.5,4.3,8.3
		C50.9,36.3,53.9,39.8,57.5,43.4z"/>
	<circle class="st5" cx="50.5" cy="12.2" r="3.1"/>
	<circle class="st6" cx="80" cy="6.7" r="3.1"/>
	<circle class="st7" cx="89.6" cy="33.5" r="3.1"/>
	<path d="M75.4,48.5c-0.7-1-1.4-2-2.2-3c2.9-1.4,5.9-2.4,8.8-3c0.8-0.2,1.4-1,1.2-1.8c-0.2-0.8-1-1.4-1.8-1.2
		c-3.3,0.7-6.7,1.9-10.1,3.5c-1.9-2.3-4.1-4.6-6.4-7c-2.5-2.5-5-4.8-7.4-6.8c2.1-2.6,3.8-5.5,5-8.7c2-5,3-10.7,3-16.9
		c0-0.9-0.7-1.5-1.5-1.5c-0.8,0-1.5,0.7-1.5,1.5c0,9.6-2.5,17.6-7.4,23.8c-0.9-0.7-1.8-1.3-2.7-1.9c-4.6-3.1-7.3-3.8-8.8-2.3l0,0
		l0,0l0,0c-0.4,0.4-0.6,0.9-0.7,1.4L20.1,78.8c-0.2,0.6-0.1,1.2,0.3,1.7c0.3,0.3,0.7,0.5,1.1,0.5c0.2,0,0.4,0,0.6-0.1l26.6-11.2l0,0
		l11.7-4.9l0,0l15.9-6.7c0.5-0.1,1-0.3,1.3-0.6c0,0,0.1,0,0.1-0.1l0,0l0,0l0,0C79.2,55.8,78.5,53.1,75.4,48.5z M51.7,65.1
		c1.1-2.3,2.1-5.4,2.8-8.7c0.7-3.8,1-8.8-0.3-14.2c0.7,0.8,1.5,1.5,2.3,2.3c2.3,2.3,4.6,4.4,6.9,6.3C63.1,58.1,59.7,61.4,59,62
		L51.7,65.1z M43.8,68.4c0.3-0.8,0.6-1.7,0.8-2.7c1.2-6.3-0.8-14.1-6-23.1l1.7-4c1.3,1.6,2.8,3.8,3.4,5.2c0.3,0.6,0.8,0.9,1.4,0.9
		c0.2,0,0.4,0,0.6-0.1c0.8-0.3,1.1-1.2,0.8-2c-0.9-2.1-3.2-5.4-4.9-7.2l2.5-6.1c0.4,0.8,1,1.7,1.7,2.7c0.5,0.7,1,1.4,1.5,2.1
		c5.3,8,5.1,16.2,4.1,21.6C50.3,61.6,48,65.8,47.1,67L43.8,68.4z M37.1,46.1c4.8,9.1,5.1,15.1,4.5,18.6c-0.6,3.5-2.3,5.2-2.7,5.7
		l-4.1,1.7c0.9-3.2,1.1-8.3-2.3-15L37.1,46.1z M66.2,53.1c0.9,0.7,1.8,1.4,2.7,1.9c1,0.7,1.9,1.2,2.7,1.7l-7.3,3
		C65.1,58.1,65.9,55.9,66.2,53.1z M53,29.7c-0.1,0.1-0.2,0.2-0.3,0.3c-0.6,0.6-0.6,1.6,0,2.2c0.3,0.3,0.7,0.5,1.1,0.5
		s0.8-0.2,1.1-0.5c0.2-0.2,0.4-0.4,0.6-0.6c2.3,1.9,4.8,4.2,7.2,6.6c2.1,2.1,4,4.2,5.8,6.2c-0.3,0.2-0.6,0.3-0.8,0.5
		c-0.7,0.4-1,1.4-0.6,2.1c0.3,0.5,0.8,0.8,1.3,0.8c0.3,0,0.5-0.1,0.8-0.2c0.4-0.2,0.9-0.5,1.3-0.7c0.7,0.8,1.3,1.7,1.9,2.5
		c2.3,3.2,2.9,4.9,3.1,5.6c-0.7-0.2-2.4-0.8-5.6-3.1c-3.3-2.4-7.3-5.8-11.1-9.6c-3.8-3.8-7.2-7.8-9.6-11.1c-2.3-3.2-2.9-4.9-3.1-5.6
		c0.7,0.2,2.4,0.8,5.6,3.1C52,29,52.5,29.3,53,29.7z M30.9,61c1.3,3.2,1.7,6.3,1.3,9c-0.3,2-1,3.3-1.4,3.9l-6.4,2.7L30.9,61z"/>
	<path d="M47.8,46.5c-0.3-0.8-1.3-1.1-2-0.8c-0.8,0.3-1.1,1.2-0.8,2c0.2,0.6,0.8,1,1.4,1c0.2,0,0.3,0,0.5-0.1c0.8-0.3,1.2-1.2,0.9-2
		C47.8,46.6,47.8,46.6,47.8,46.5z"/>
	<path d="M77.5,25.9c0.3,0.3,0.7,0.5,1.1,0.5s0.8-0.2,1.1-0.5c3.4-3.4,9-5,13.1-5.3c0.8-0.1,1.5-0.8,1.4-1.7
		c-0.1-0.8-0.8-1.5-1.7-1.4c-4.6,0.4-11,2.2-15,6.2C76.9,24.3,76.9,25.3,77.5,25.9z"/>
	<path d="M97.7,17.8L97.7,17.8c-0.9-0.2-1.8,0.3-2,1.1c-0.2,0.8,0.3,1.7,1.1,1.9h0.1c0.1,0,0.3,0.1,0.4,0.1c0.7,0,1.3-0.5,1.5-1.1
		C99,18.9,98.5,18,97.7,17.8z"/>
	<path d="M31.3,15h1.5v1.5c0,0.9,0.7,1.5,1.5,1.5c0.9,0,1.5-0.7,1.5-1.5V15h1.5c0.9,0,1.5-0.7,1.5-1.5S38.1,12,37.3,12h-1.5v-1.5
		c0-0.9-0.7-1.5-1.5-1.5c-0.9,0-1.5,0.7-1.5,1.5V12h-1.5c-0.9,0-1.5,0.7-1.5,1.5C29.7,14.3,30.4,15,31.3,15z"/>
	<path d="M67.3,29.9h1.5v1.5c0,0.9,0.7,1.5,1.5,1.5c0.9,0,1.5-0.7,1.5-1.5v-1.5h1.5c0.9,0,1.5-0.7,1.5-1.5c0-0.9-0.7-1.5-1.5-1.5
		h-1.5v-1.5c0-0.9-0.7-1.5-1.5-1.5c-0.9,0-1.5,0.7-1.5,1.5v1.5h-1.5c-0.9,0-1.5,0.7-1.5,1.5S66.5,29.9,67.3,29.9z"/>
	<path d="M88.7,66.4h-1.5v-1.5c0-0.9-0.7-1.5-1.5-1.5s-1.5,0.7-1.5,1.5v1.5h-1.5c-0.9,0-1.5,0.7-1.5,1.5c0,0.9,0.7,1.5,1.5,1.5h1.5
		V71c0,0.9,0.7,1.5,1.5,1.5s1.5-0.7,1.5-1.5v-1.5h1.5c0.9,0,1.5-0.7,1.5-1.5C90.3,67.1,89.6,66.4,88.7,66.4z"/>
	<path d="M80,11.3c2.5,0,4.6-2.1,4.6-4.6s-2-4.6-4.6-4.6s-4.6,2.1-4.6,4.6S77.5,11.3,80,11.3z M80,5.2c0.8,0,1.5,0.7,1.5,1.5
		S80.9,8.3,80,8.3s-1.5-0.7-1.5-1.5S79.2,5.2,80,5.2z"/>
	<path d="M89.6,28.8c-2.5,0-4.6,2.1-4.6,4.6s2.1,4.6,4.6,4.6s4.6-2.1,4.6-4.6S92.2,28.8,89.6,28.8z M89.6,35c-0.8,0-1.5-0.7-1.5-1.5
		s0.7-1.5,1.5-1.5s1.5,0.7,1.5,1.5C91.2,34.3,90.5,35,89.6,35z"/>
	<path d="M50.5,16.8c2.5,0,4.6-2.1,4.6-4.6S53,7.6,50.5,7.6s-4.6,2.1-4.6,4.6S48,16.8,50.5,16.8z M50.5,10.7c0.8,0,1.5,0.7,1.5,1.5
		s-0.7,1.5-1.5,1.5S49,13,49,12.2C49,11.3,49.7,10.7,50.5,10.7z"/>
	<path d="M89.1,47.4c0-0.8-0.7-1.5-1.5-1.5s-1.5,0.7-1.5,1.5s0.7,1.5,1.5,1.5S89.1,48.2,89.1,47.4z"/>
	<path d="M71.6,16.7c0.8,0,1.5-0.7,1.5-1.5s-0.7-1.5-1.5-1.5S70,14.3,70,15.2C70,16,70.7,16.7,71.6,16.7z"/>
	<path d="M92.2,57.4c-0.8,0-1.5,0.7-1.5,1.5s0.7,1.5,1.5,1.5s1.5-0.7,1.5-1.5C93.8,58.1,93.1,57.4,92.2,57.4z"/>
	<path d="M41.4,6.7c0.8,0,1.5-0.7,1.5-1.5s-0.7-1.5-1.5-1.5c-0.8,0-1.5,0.7-1.5,1.5S40.5,6.7,41.4,6.7z"/>
</g>
<text transform="matrix(1 0 0 1 114.2604 20.328)"><tspan x="0" y="0" class="st8 st9">variant</tspan><tspan x="0" y="26.6" class="st8 st9">review</tspan><tspan x="0" y="53.3" class="st8 st9">party</tspan></text>
</svg>
