<?xml version="1.0" encoding="utf-8"?>
<!-- Generator: Adobe Illustrator 22.1.0, SVG Export Plug-In . SVG Version: 6.00 Build 0)  -->
<svg version="1.1" id="Layer_1" xmlns="http://www.w3.org/2000/svg" xmlns:xlink="http://www.w3.org/1999/xlink" x="0px" y="0px"
	 viewBox="0 0 301.3 82.4" style="enable-background:new 0 0 301.3 82.4;" xml:space="preserve">
<style type="text/css">
	.st0{display:none;enable-background:new    ;}
	.st1{display:inline;fill:#151B26;}
	.st2{fill:#FFFFFF;}
	.st3{fill:#151B26;}
</style>
<g class="st0">
	<path class="st1" d="M115.8,67.5c-10.7,0-18.3-5.7-18.3-15.1h9.5c0.6,4.4,3.2,7.6,9.5,7.6c6.3,0,9.5-3.2,9.5-7.6
		c0-12.6-27.8-4.4-27.8-24c0-9.5,7.6-15.1,18.3-15.1c10.1,0,17,5,17.7,14.5h-9.5c0-3.8-3.2-6.9-8.8-6.9c-5,0-8.8,2.5-8.8,7.6
		c0,12,27.8,4.4,27.8,24C134.1,59.9,127.8,67.5,115.8,67.5z"/>
	<path class="st1" d="M139.8,25.2h8.8l8.8,33.4l8.8-33.4h8.8l8.2,33.4l8.8-33.4h8.2l-13.2,41.6h-8.8l-8.2-30.9l-8.2,30.9h-9.5
		L139.8,25.2z"/>
	<path class="st1" d="M223.7,24.6c6.9,0,12,3.2,14.5,6.9v-6.3h8.8v41.6h-8.8v-6.3c-2.5,3.8-7.6,6.9-14.5,6.9
		c-10.7,0-19.6-8.8-19.6-21.4S213,24.6,223.7,24.6z M225.6,32.1c-6.3,0-12.6,5-12.6,13.9s6.3,14.5,12.6,14.5s12.6-5,12.6-13.9
		C238.2,37.2,231.9,32.1,225.6,32.1z"/>
	<path class="st1" d="M281.8,24.6c10.7,0,19.6,7.7,19.6,20.1s-8.8,20.1-19.6,20.1c-6.9,0-12-3.5-14.5-6.5v24.2h-8.8V25.2h8.8v5.9
		C269.8,28.1,274.8,24.6,281.8,24.6z M279.9,31.7c-6.3,0-12.6,4.7-12.6,13s6.3,13,12.6,13c6.3,0,12.6-4.7,12.6-13.6
		C292.5,36.4,286.2,31.7,279.9,31.7z"/>
</g>
<circle class="st2" cx="40.1" cy="41" r="40.1"/>
<g>
	<path class="st3" d="M40.1,60.8c-8.2,0-14.5-4.4-14.5-11.6h7.3c0.5,3.4,2.4,5.8,7.3,5.8s7.3-2.4,7.3-5.8c0-9.7-21.3-3.4-21.3-18.4
		c0-7.3,5.8-11.6,14-11.6c7.7,0,13.1,3.9,13.5,11.1h-7.3c0-2.9-2.4-5.3-6.8-5.3c-3.9,0-6.8,1.9-6.8,5.8c0,9.2,21.3,3.4,21.3,18.4
		C54.2,55,49.3,60.8,40.1,60.8z"/>
</g>
<g>
	<path class="st2" d="M107.8,64.7c-9.8,0-17.4-5.1-17.5-14.1h10.1c0.3,3.8,2.8,6.3,7.2,6.3c4.5,0,7.1-2.4,7.1-5.7
		c0-10.2-24.3-4.1-24.3-21.2c0-8.5,6.9-13.7,16.6-13.7c9.7,0,16.3,4.9,16.9,13.5h-10.4c-0.2-3.1-2.7-5.5-6.8-5.6
		c-3.7-0.1-6.5,1.7-6.5,5.5c0,9.5,24.2,4.2,24.2,20.8C124.5,58,118.5,64.7,107.8,64.7z"/>
	<path class="st2" d="M154.5,26.2c9.6,0,17.1,7.5,17.1,19.2c0,11.7-7.5,19.5-17.1,19.5c-5.9,0-10.1-2.9-12.4-6v23.2h-9.5V26.8h9.5
		v5.4C144.4,29,148.7,26.2,154.5,26.2z M152,34.5c-5.1,0-9.9,3.9-9.9,11c0,7.1,4.8,11,9.9,11c5.1,0,9.9-4.1,9.9-11.2
		S157.2,34.5,152,34.5z"/>
	<path class="st2" d="M193.2,26.2c6,0,10.1,2.8,12.4,6v-5.3h9.5v37.5h-9.5v-5.5c-2.2,3.2-6.5,6.1-12.4,6.1c-9.5,0-17-7.8-17-19.5
		C176.1,33.7,183.7,26.2,193.2,26.2z M195.6,34.5c-5.1,0-9.9,3.8-9.9,10.9s4.8,11.2,9.9,11.2c5.2,0,9.9-3.9,9.9-11
		C205.6,38.4,200.8,34.5,195.6,34.5z"/>
	<path class="st2" d="M240.5,26.2c9.3,0,15.6,4.9,17.7,13.3h-10.2c-1.1-3.2-3.6-5.2-7.5-5.2c-5.3,0-8.8,4-8.8,11.3
		s3.5,11.2,8.8,11.2c3.9,0,6.4-1.8,7.5-5.1h10.2c-2,8-8.3,13.3-17.7,13.3c-10.8,0-18.5-7.6-18.5-19.3
		C221.9,33.7,229.7,26.2,240.5,26.2z"/>
	<path class="st2" d="M281.5,64.9c-10.9,0-18.8-7.6-18.8-19.3c0-11.8,7.7-19.3,18.8-19.3c10.8,0,18.5,7.4,18.5,18.5
		c0,1.2-0.1,2.4-0.3,3.7h-27.4c0.5,5.5,4.3,8.7,9,8.7c4.1,0,6.3-2,7.5-4.5H299C296.9,59.4,290.7,64.9,281.5,64.9z M272.3,42h17.8
		c-0.1-4.9-4.1-8-8.9-8C276.7,33.9,273.1,36.9,272.3,42z"/>
</g>
</svg>
