<?xml version="1.0" encoding="utf-8"?>
<!-- Generator: Adobe Illustrator 24.1.0, SVG Export Plug-In . SVG Version: 6.00 Build 0)  -->
<svg version="1.1" id="Layer_1" xmlns="http://www.w3.org/2000/svg" xmlns:xlink="http://www.w3.org/1999/xlink" x="0px" y="0px"
	 viewBox="0 0 16.5 19.3" style="enable-background:new 0 0 16.5 19.3;" xml:space="preserve">
<style type="text/css">
	.st0{fill:#FFBD50;}
	.st1{fill:#F1DBC8;}
	.st2{fill:#C78F70;}
	.st3{fill:#F13D7C;}
	.st4{fill:#BDD377;}
	.st5{fill:#FF916C;}
</style>
<g>
	<path class="st0" d="M2.6,16.4c0,0,1.1-1.3-0.2-3.7l-1.9,4.5L2.6,16.4z"/>
	<path class="st1" d="M2.4,12.7c1.3,2.3,0.2,3.7,0.2,3.7l1.6-0.7c0,0,2-1.5-0.6-6l-0.8,1.9L2.4,12.7z"/>
	<path class="st0" d="M3.7,9.8c2.6,4.5,0.6,6,0.6,6L5.9,15c0.4-0.4,2.3-3.9,0.1-7.2C5.5,7.1,5.1,6.5,5.2,6.1L4.2,8.4L3.7,9.8z"/>
	<path class="st1" d="M6,7.8c2.2,3.3,0.3,6.8-0.1,7.2l0.2-0.1L8.3,14c0,0,1-0.8,1-2.7c-0.5-0.4-1-0.9-1.5-1.4C7.1,9.2,6.5,8.5,6,7.8
		z"/>
	<path class="st0" d="M9.4,11.3c0,1.9-1,2.7-1,2.7l3.3-1.4C11.3,12.7,10.4,12.1,9.4,11.3z"/>
	<path class="st2" d="M7.9,9.9c0.5,0.5,1,1,1.5,1.4c1,0.9,1.9,1.4,2.3,1.3l0.1-0.1c0.2-0.2-0.3-1.2-1.2-2.3c-0.4-0.5-0.9-1-1.5-1.6
		C8.5,8,7.9,7.5,7.4,7.1C6.3,6.2,5.5,5.8,5.2,6L5.2,6.1c0,0.3,0.3,0.9,0.9,1.7C6.5,8.5,7.1,9.2,7.9,9.9z"/>
	<circle class="st3" cx="6.4" cy="3.5" r="0.6"/>
	<circle class="st4" cx="12.5" cy="2.4" r="0.6"/>
	<circle class="st5" cx="14.4" cy="7.9" r="0.6"/>
	<path d="M11.5,11c-0.1-0.2-0.3-0.4-0.5-0.6c0.6-0.3,1.2-0.5,1.8-0.6c0.2,0,0.3-0.2,0.2-0.4c0-0.2-0.2-0.3-0.4-0.2
		c-0.7,0.1-1.4,0.4-2.1,0.7c-0.4-0.5-0.8-0.9-1.3-1.4c-0.5-0.5-1-1-1.5-1.4c0.4-0.5,0.8-1.1,1-1.8c0.4-1,0.6-2.2,0.6-3.5
		c0-0.2-0.1-0.3-0.3-0.3S8.9,1.6,8.9,1.8c0,2-0.5,3.6-1.5,4.9C7.2,6.5,7,6.4,6.8,6.3C5.9,5.6,5.3,5.5,5,5.8c0,0,0,0,0,0c0,0,0,0,0,0
		c0,0,0,0,0,0C4.9,5.9,4.9,6,4.9,6.1L0.2,17.2c0,0.1,0,0.3,0.1,0.3c0.1,0.1,0.1,0.1,0.2,0.1c0,0,0.1,0,0.1,0l5.4-2.3c0,0,0,0,0,0
		l2.4-1c0,0,0,0,0,0l3.3-1.4c0.1,0,0.2-0.1,0.3-0.1c0,0,0,0,0,0c0,0,0,0,0,0c0,0,0,0,0,0c0,0,0,0,0,0C12.3,12.5,12.2,11.9,11.5,11z
		 M6.7,14.4c0.2-0.5,0.4-1.1,0.6-1.8c0.1-0.8,0.2-1.8-0.1-2.9c0.1,0.2,0.3,0.3,0.5,0.5c0.5,0.5,0.9,0.9,1.4,1.3
		c0,1.5-0.7,2.2-0.9,2.3L6.7,14.4z M5.1,15c0.1-0.2,0.1-0.4,0.2-0.6c0.3-1.3-0.2-2.9-1.2-4.7l0.3-0.8C4.6,9.2,4.9,9.7,5,10
		c0.1,0.1,0.2,0.2,0.3,0.2c0,0,0.1,0,0.1,0c0.2-0.1,0.2-0.3,0.2-0.4C5.4,9.3,5,8.6,4.6,8.3L5.1,7c0.1,0.2,0.2,0.4,0.3,0.6
		C5.6,7.7,5.7,7.9,5.8,8c1.1,1.6,1.1,3.3,0.8,4.4c-0.2,1.2-0.7,2.1-0.9,2.3L5.1,15z M3.7,10.5c1,1.9,1.1,3.1,0.9,3.8
		c-0.1,0.7-0.5,1.1-0.6,1.2l-0.8,0.3c0.2-0.7,0.2-1.7-0.5-3.1L3.7,10.5z M9.6,11.9c0.2,0.1,0.4,0.3,0.6,0.4c0.2,0.1,0.4,0.2,0.6,0.3
		l-1.5,0.6C9.4,12.9,9.6,12.5,9.6,11.9z M6.9,7.1C6.9,7.1,6.9,7.2,6.9,7.1C6.8,7.3,6.8,7.5,6.9,7.6C6.9,7.7,7,7.7,7.1,7.7
		c0.1,0,0.2,0,0.2-0.1c0,0,0.1-0.1,0.1-0.1c0.5,0.4,1,0.9,1.5,1.4c0.4,0.4,0.8,0.9,1.2,1.3c-0.1,0-0.1,0.1-0.2,0.1
		c-0.2,0.1-0.2,0.3-0.1,0.4c0.1,0.1,0.2,0.2,0.3,0.2c0.1,0,0.1,0,0.2,0c0.1-0.1,0.2-0.1,0.3-0.1c0.1,0.2,0.3,0.3,0.4,0.5
		c0.5,0.7,0.6,1,0.6,1.1c-0.1,0-0.5-0.2-1.1-0.6c-0.7-0.5-1.5-1.2-2.3-2c-0.8-0.8-1.5-1.6-2-2.3c-0.5-0.7-0.6-1-0.6-1.1
		c0.1,0,0.5,0.2,1.1,0.6C6.7,7,6.8,7,6.9,7.1z M2.4,13.5c0.3,0.7,0.4,1.3,0.3,1.8c-0.1,0.4-0.2,0.7-0.3,0.8l-1.3,0.6L2.4,13.5z"/>
	<path d="M5.9,10.6c-0.1-0.2-0.3-0.2-0.4-0.2c-0.2,0.1-0.2,0.2-0.2,0.4c0,0.1,0.2,0.2,0.3,0.2c0,0,0.1,0,0.1,0
		C5.9,10.9,5.9,10.8,5.9,10.6C5.9,10.6,5.9,10.6,5.9,10.6z"/>
	<path d="M12,6.3c0.1,0.1,0.1,0.1,0.2,0.1c0.1,0,0.2,0,0.2-0.1c0.7-0.7,1.8-1,2.7-1.1c0.2,0,0.3-0.2,0.3-0.3c0-0.2-0.2-0.3-0.3-0.3
		c-0.9,0.1-2.2,0.5-3.1,1.3C11.8,6,11.8,6.2,12,6.3z"/>
	<path d="M16.1,4.7C16.1,4.7,16.1,4.7,16.1,4.7c-0.2,0-0.4,0.1-0.4,0.2c0,0.2,0.1,0.3,0.2,0.4l0,0c0,0,0.1,0,0.1,0
		c0.1,0,0.3-0.1,0.3-0.2C16.4,4.9,16.3,4.7,16.1,4.7z"/>
	<path d="M2.5,4.1h0.3v0.3c0,0.2,0.1,0.3,0.3,0.3s0.3-0.1,0.3-0.3V4.1h0.3c0.2,0,0.3-0.1,0.3-0.3S3.9,3.5,3.8,3.5H3.4V3.2
		c0-0.2-0.1-0.3-0.3-0.3S2.8,3,2.8,3.2v0.3H2.5c-0.2,0-0.3,0.1-0.3,0.3C2.2,4,2.3,4.1,2.5,4.1z"/>
	<path d="M9.9,7.2h0.3v0.3c0,0.2,0.1,0.3,0.3,0.3c0.2,0,0.3-0.1,0.3-0.3V7.2h0.3c0.2,0,0.3-0.1,0.3-0.3c0-0.2-0.1-0.3-0.3-0.3h-0.3
		V6.2c0-0.2-0.1-0.3-0.3-0.3c-0.2,0-0.3,0.1-0.3,0.3v0.3H9.9c-0.2,0-0.3,0.1-0.3,0.3C9.6,7,9.7,7.2,9.9,7.2z"/>
	<path d="M14.3,14.6h-0.3v-0.3c0-0.2-0.1-0.3-0.3-0.3c-0.2,0-0.3,0.1-0.3,0.3v0.3H13c-0.2,0-0.3,0.1-0.3,0.3s0.1,0.3,0.3,0.3h0.3
		v0.3c0,0.2,0.1,0.3,0.3,0.3c0.2,0,0.3-0.1,0.3-0.3v-0.3h0.3c0.2,0,0.3-0.1,0.3-0.3S14.4,14.6,14.3,14.6z"/>
	<path d="M12.5,3.4c0.5,0,0.9-0.4,0.9-0.9S13,1.5,12.5,1.5c-0.5,0-0.9,0.4-0.9,0.9S12,3.4,12.5,3.4z M12.5,2.1
		c0.2,0,0.3,0.1,0.3,0.3s-0.1,0.3-0.3,0.3c-0.2,0-0.3-0.1-0.3-0.3S12.3,2.1,12.5,2.1z"/>
	<path d="M14.4,6.9c-0.5,0-0.9,0.4-0.9,0.9s0.4,0.9,0.9,0.9s0.9-0.4,0.9-0.9S15,6.9,14.4,6.9z M14.4,8.2c-0.2,0-0.3-0.1-0.3-0.3
		c0-0.2,0.1-0.3,0.3-0.3s0.3,0.1,0.3,0.3C14.8,8.1,14.6,8.2,14.4,8.2z"/>
	<path d="M6.4,4.5c0.5,0,0.9-0.4,0.9-0.9S7,2.6,6.4,2.6S5.5,3,5.5,3.5S5.9,4.5,6.4,4.5z M6.4,3.2c0.2,0,0.3,0.1,0.3,0.3
		c0,0.2-0.1,0.3-0.3,0.3c-0.2,0-0.3-0.1-0.3-0.3C6.1,3.4,6.3,3.2,6.4,3.2z"/>
	<path d="M14.3,10.7c0-0.2-0.1-0.3-0.3-0.3s-0.3,0.1-0.3,0.3c0,0.2,0.1,0.3,0.3,0.3S14.3,10.9,14.3,10.7z"/>
	<path d="M10.7,4.5c0.2,0,0.3-0.1,0.3-0.3c0-0.2-0.1-0.3-0.3-0.3c-0.2,0-0.3,0.1-0.3,0.3C10.4,4.3,10.6,4.5,10.7,4.5z"/>
	<path d="M15,12.8c-0.2,0-0.3,0.1-0.3,0.3c0,0.2,0.1,0.3,0.3,0.3c0.2,0,0.3-0.1,0.3-0.3C15.3,12.9,15.1,12.8,15,12.8z"/>
	<path d="M4.6,2.4c0.2,0,0.3-0.1,0.3-0.3S4.7,1.8,4.6,1.8c-0.2,0-0.3,0.1-0.3,0.3S4.4,2.4,4.6,2.4z"/>
</g>
</svg>
