<?xml version="1.0" encoding="utf-8"?>
<!-- Generator: Adobe Illustrator 24.1.0, SVG Export Plug-In . SVG Version: 6.00 Build 0)  -->
<svg version="1.1" id="Layer_1" xmlns="http://www.w3.org/2000/svg" xmlns:xlink="http://www.w3.org/1999/xlink" x="0px" y="0px"
	 viewBox="0 0 300 300" style="enable-background:new 0 0 300 300;" xml:space="preserve">
<style type="text/css">
	.st0{fill:#FFFFFF;}
</style>
<circle class="st0" cx="150" cy="150" r="150"/>
<g>
	<g>
		<g>
			<path d="M183.3,158c6.5-3,13-5.2,19.4-6.6c1.8-0.4,3-2.2,2.6-4c-0.4-1.8-2.2-3-4-2.6c-7.4,1.6-14.9,4.2-22.4,7.8
				c-4.2-5-9-10.2-14.1-15.4c-5.5-5.5-11-10.6-16.3-14.9c4.6-5.8,8.3-12.2,11.1-19.3c4.4-11,6.6-23.6,6.6-37.4
				c0-1.9-1.5-3.4-3.4-3.4s-3.4,1.5-3.4,3.4c0,21.3-5.5,38.9-16.2,52.5c-2-1.6-4-3-5.9-4.2c-10.1-6.8-16.1-8.4-19.4-5.2
				c0,0,0,0-0.1,0.1c0,0,0,0,0,0c0,0,0,0,0,0c-0.9,0.9-1.4,1.9-1.6,3.1L66,231.6c-0.5,1.3-0.2,2.7,0.7,3.7c0.7,0.7,1.5,1,2.4,1
				c0.4,0,0.9-0.1,1.3-0.3c0,0,0,0,0,0l119.7-50.2c1.1-0.2,2.1-0.6,2.9-1.4c0.1,0,0.1-0.1,0.2-0.2c0,0,0,0,0.1-0.1c0,0,0,0,0,0
				c0,0,0,0,0.1-0.1c3.2-3.4,1.6-9.4-5.2-19.4C186.7,162.6,185.1,160.4,183.3,158z M92.7,212.1c-0.7,4.4-2.3,7.3-3,8.5l-14.2,5.9
				l14.4-34.3C92.7,199.3,93.6,206.1,92.7,212.1z M113.6,200.6c-1.4,7.8-5,11.6-6,12.5l-9,3.8c2-7.1,2.5-18.3-5.2-33.1l10.2-24.3
				C114.2,179.5,115,192.8,113.6,200.6z M125.7,205.5l-7.3,3.1c0.7-1.8,1.3-3.8,1.8-6.1c2.7-13.9-1.7-31.1-13.2-51.1l3.7-8.8
				c2.9,3.5,6.2,8.5,7.6,11.6c0.6,1.3,1.8,2.1,3.1,2.1c0.4,0,0.9-0.1,1.3-0.3c1.7-0.7,2.5-2.7,1.8-4.5c-2-4.6-7.1-11.9-10.9-15.8
				l5.6-13.4c1,1.8,2.2,3.8,3.7,6c1,1.5,2.1,3,3.3,4.6c11.6,17.7,11.4,35.7,9.1,47.8C132.8,193.5,127.6,202.9,125.7,205.5z
				 M151.9,194.5l-16.1,6.8c2.3-5.1,4.7-11.8,6.1-19.3c1.6-8.4,2.3-19.4-0.6-31.3c1.6,1.7,3.3,3.4,5,5.1c5.1,5.1,10.2,9.8,15.1,13.9
				C160.9,185.8,153.5,193.1,151.9,194.5z M163.6,189.6c1.8-3.8,3.4-8.6,4.1-14.7c2.1,1.6,4,3,5.9,4.3c2.2,1.5,4.1,2.7,6,3.7
				L163.6,189.6z M175.6,172.2c-7.4-5.2-16.1-12.8-24.6-21.2c-8.5-8.5-16-17.2-21.2-24.6c-5.1-7.1-6.4-10.8-6.8-12.4
				c1.6,0.4,5.2,1.7,12.4,6.8c1.1,0.8,2.1,1.6,3.3,2.4c-0.2,0.2-0.5,0.5-0.7,0.7c-1.3,1.3-1.3,3.5,0,4.8c0.7,0.7,1.5,1,2.4,1
				s1.7-0.3,2.4-1c0.4-0.4,0.8-0.9,1.3-1.3c5.2,4.3,10.6,9.2,16,14.6c4.6,4.6,8.9,9.3,12.8,13.8c-0.6,0.3-1.2,0.7-1.8,1
				c-1.6,0.9-2.2,3-1.2,4.6c0.6,1.1,1.8,1.7,2.9,1.7c0.6,0,1.2-0.1,1.7-0.5c0.9-0.5,1.9-1.1,2.8-1.6c1.5,1.9,2.8,3.7,4.1,5.4
				c5.1,7.1,6.4,10.8,6.8,12.4C186.4,178.6,182.7,177.3,175.6,172.2z"/>
			<path d="M127.2,160.3c-0.8-1.7-2.8-2.5-4.5-1.7c-1.7,0.7-2.4,2.7-1.8,4.3c0.5,1.3,1.8,2.2,3.2,2.2c0.4,0,0.8-0.1,1.1-0.2
				c1.8-0.6,2.7-2.6,2.1-4.3C127.3,160.5,127.2,160.4,127.2,160.3z"/>
			<path d="M192.7,114.8c0.7,0.7,1.5,1,2.4,1c0.9,0,1.7-0.3,2.4-1c7.6-7.6,19.9-11.1,28.9-11.8c1.9-0.2,3.3-1.8,3.1-3.7
				c-0.2-1.9-1.8-3.3-3.7-3.1c-10.2,0.8-24.3,4.9-33.2,13.8C191.3,111.3,191.3,113.5,192.7,114.8z"/>
			<path d="M237.3,96.9c-0.1,0-0.2-0.1-0.3-0.1c-1.8-0.5-3.7,0.7-4.1,2.5c-0.5,1.8,0.7,3.7,2.5,4.1l0.2,0c0.3,0.1,0.6,0.1,0.9,0.1
				c1.5,0,2.9-1,3.3-2.5C240.2,99.2,239.1,97.4,237.3,96.9z"/>
			<path d="M90.7,90.6h3.4V94c0,1.9,1.5,3.4,3.4,3.4c1.9,0,3.4-1.5,3.4-3.4v-3.4h3.4c1.9,0,3.4-1.5,3.4-3.4c0-1.9-1.5-3.4-3.4-3.4
				h-3.4v-3.4c0-1.9-1.5-3.4-3.4-3.4c-1.9,0-3.4,1.5-3.4,3.4v3.4h-3.4c-1.9,0-3.4,1.5-3.4,3.4C87.3,89.1,88.8,90.6,90.7,90.6z"/>
			<path d="M170.3,123.6h3.4v3.4c0,1.9,1.5,3.4,3.4,3.4c1.9,0,3.4-1.5,3.4-3.4v-3.4h3.4c1.9,0,3.4-1.5,3.4-3.4
				c0-1.9-1.5-3.4-3.4-3.4h-3.4v-3.4c0-1.9-1.5-3.4-3.4-3.4c-1.9,0-3.4,1.5-3.4,3.4v3.4h-3.4c-1.9,0-3.4,1.5-3.4,3.4
				C166.9,122.1,168.4,123.6,170.3,123.6z"/>
			<path d="M217.5,204.2h-3.4v-3.4c0-1.9-1.5-3.4-3.4-3.4s-3.4,1.5-3.4,3.4v3.4h-3.4c-1.9,0-3.4,1.5-3.4,3.4c0,1.9,1.5,3.4,3.4,3.4
				h3.4v3.4c0,1.9,1.5,3.4,3.4,3.4s3.4-1.5,3.4-3.4V211h3.4c1.9,0,3.4-1.5,3.4-3.4C220.9,205.7,219.4,204.2,217.5,204.2z"/>
			<path d="M198.3,82.6c5.6,0,10.2-4.6,10.2-10.2s-4.6-10.2-10.2-10.2c-5.6,0-10.2,4.6-10.2,10.2S192.7,82.6,198.3,82.6z M198.3,69
				c1.9,0,3.4,1.5,3.4,3.4s-1.5,3.4-3.4,3.4c-1.9,0-3.4-1.5-3.4-3.4S196.4,69,198.3,69z"/>
			<path d="M219.6,121.2c-5.6,0-10.2,4.6-10.2,10.2s4.6,10.2,10.2,10.2c5.6,0,10.2-4.6,10.2-10.2S225.2,121.2,219.6,121.2z
				 M219.6,134.8c-1.9,0-3.4-1.5-3.4-3.4c0-1.9,1.5-3.4,3.4-3.4c1.9,0,3.4,1.5,3.4,3.4C223,133.3,221.4,134.8,219.6,134.8z"/>
			<path d="M133.2,94.7c5.6,0,10.2-4.6,10.2-10.2s-4.6-10.2-10.2-10.2c-5.6,0-10.2,4.6-10.2,10.2S127.6,94.7,133.2,94.7z
				 M133.2,81.1c1.9,0,3.4,1.5,3.4,3.4s-1.5,3.4-3.4,3.4s-3.4-1.5-3.4-3.4C129.8,82.6,131.3,81.1,133.2,81.1z"/>
			<path d="M218.4,162.2c0-1.9-1.5-3.4-3.4-3.4s-3.4,1.5-3.4,3.4c0,1.9,1.5,3.4,3.4,3.4S218.4,164.1,218.4,162.2z"/>
			<path d="M179.7,94.5c1.9,0,3.4-1.5,3.4-3.4s-1.5-3.4-3.4-3.4c-1.9,0-3.4,1.5-3.4,3.4C176.3,93,177.8,94.5,179.7,94.5z"/>
			<path d="M225.2,184.3c-1.9,0-3.4,1.5-3.4,3.4s1.5,3.4,3.4,3.4c1.9,0,3.4-1.5,3.4-3.4S227.1,184.3,225.2,184.3z"/>
			<path d="M113,72.4c1.9,0,3.4-1.5,3.4-3.4c0-1.9-1.5-3.4-3.4-3.4s-3.4,1.5-3.4,3.4C109.6,70.9,111.1,72.4,113,72.4z"/>
		</g>
	</g>
</g>
</svg>
