<?xml version="1.0" encoding="utf-8"?>
<!-- Generator: Adobe Illustrator 23.0.1, SVG Export Plug-In . SVG Version: 6.00 Build 0)  -->
<svg version="1.1" id="Layer_1" xmlns="http://www.w3.org/2000/svg" xmlns:xlink="http://www.w3.org/1999/xlink" x="0px" y="0px"
	 viewBox="0 0 150 150" style="enable-background:new 0 0 150 150;" xml:space="preserve">
<style type="text/css">
	.st0{fill:none;stroke:#000000;stroke-width:2;stroke-linecap:round;stroke-linejoin:round;stroke-miterlimit:10;}
</style>
<g>
	<polyline class="st0" points="125.2,53.8 125.2,120.7 24.8,120.7 24.8,53.8 	"/>
	<path class="st0" d="M47.1,53.8v29.8l3.2-2.6c1.1-0.9,2.7-0.9,3.7,0l1,0.8c1.2,1,3,0.9,4-0.3l0,0c1.1-1.1,2.8-1.3,4-0.3l2.9,2.3
		V53.8"/>
	<line class="st0" x1="66.3" y1="107" x2="46.8" y2="107"/>
	<line class="st0" x1="66.3" y1="100.6" x2="60" y2="100.6"/>
	<line class="st0" x1="54.9" y1="100.6" x2="46.8" y2="100.6"/>
	<line class="st0" x1="51.8" y1="53.8" x2="51.8" y2="71.2"/>
	<line class="st0" x1="90.8" y1="53.8" x2="90.8" y2="98.5"/>
	<line class="st0" x1="90.8" y1="107.7" x2="90.8" y2="120.7"/>
	<polyline class="st0" points="80.8,53.8 24.9,53.8 13.4,29.3 79.3,29.3 90.7,53.8 111.2,53.8 	"/>
	<line class="st0" x1="99.9" y1="33.9" x2="81.5" y2="33.9"/>
	<line class="st0" x1="104.4" y1="114.3" x2="124.9" y2="114.3"/>
	<line class="st0" x1="75" y1="35.6" x2="25.2" y2="35.6"/>
	<line class="st0" x1="133.8" y1="35.6" x2="106.6" y2="35.6"/>
	<path class="st0" d="M117,53.8c0,0,7.1,0,8.2,0l11.5-24.5h-34.4L90.8,53.8"/>
</g>
</svg>
