<?xml version="1.0" encoding="utf-8"?>
<!-- Generator: Adobe Illustrator 23.0.1, SVG Export Plug-In . SVG Version: 6.00 Build 0)  -->
<svg version="1.1" id="b469a9e0-5433-4729-b694-038fdc7b8087"
	 xmlns="http://www.w3.org/2000/svg" xmlns:xlink="http://www.w3.org/1999/xlink" x="0px" y="0px" viewBox="0 0 1144 651.3"
	 style="enable-background:new 0 0 1144 651.3;" xml:space="preserve">
<style type="text/css">
	.st0{fill:#E3E6F0;enable-background:new    ;}
	.st1{opacity:0.4;}
	.st2{fill:#1C6BE1;}
	.st3{opacity:0.1;enable-background:new    ;}
	.st4{opacity:0.1;fill:#21C87A;enable-background:new    ;}
	.st5{fill:#21C87A;}
	.st6{fill:#3F3D56;}
	.st7{fill:url(#SVGID_1_);}
	.st8{fill:#FBBEBE;}
	.st9{opacity:0.1;}
	.st10{fill:#65617D;}
</style>
<title>logistics</title>
<ellipse class="st0" cx="413" cy="476.8" rx="392" ry="10.5"/>
<g class="st1">
	<rect x="142" y="399.3" class="st2" width="125" height="69"/>
	<rect x="186" y="411.3" class="st3" width="38" height="8"/>
	<rect x="190.8" y="412.3" class="st3" width="28.5" height="6"/>
	<rect x="269" y="399.3" class="st2" width="125" height="69"/>
	<rect x="313" y="411.3" class="st3" width="38" height="8"/>
	<rect x="317.8" y="412.3" class="st3" width="28.5" height="6"/>
	<rect x="142" y="328.3" class="st2" width="125" height="69"/>
	<rect x="186" y="340.3" class="st3" width="38" height="8"/>
	<rect x="190.8" y="341.3" class="st3" width="28.5" height="6"/>
	<rect x="269" y="328.3" class="st2" width="125" height="69"/>
	<rect x="313" y="340.3" class="st3" width="38" height="8"/>
	<rect x="317.8" y="341.3" class="st3" width="28.5" height="6"/>
	<rect x="142" y="256.3" class="st2" width="125" height="69"/>
	<rect x="186" y="268.3" class="st3" width="38" height="8"/>
	<rect x="190.8" y="269.3" class="st3" width="28.5" height="6"/>
	<rect x="269" y="256.3" class="st2" width="125" height="69"/>
	<rect x="313" y="268.3" class="st3" width="38" height="8"/>
	<rect x="317.8" y="269.3" class="st3" width="28.5" height="6"/>
	<rect x="269" y="184.3" class="st2" width="125" height="69"/>
	<rect x="313" y="196.3" class="st3" width="38" height="8"/>
	<rect x="317.8" y="197.3" class="st3" width="28.5" height="6"/>
</g>
<g class="st1">
	<rect x="396" y="398.3" class="st2" width="125" height="69"/>
	<rect x="440" y="410.3" class="st3" width="38" height="8"/>
	<rect x="444.8" y="411.3" class="st3" width="28.5" height="6"/>
	<rect x="523" y="398.3" class="st2" width="125" height="69"/>
	<rect x="567" y="410.3" class="st3" width="38" height="8"/>
	<rect x="571.8" y="411.3" class="st3" width="28.5" height="6"/>
	<rect x="396" y="327.3" class="st2" width="125" height="69"/>
	<rect x="440" y="339.3" class="st3" width="38" height="8"/>
	<rect x="444.8" y="340.3" class="st3" width="28.5" height="6"/>
	<rect x="523" y="327.3" class="st2" width="125" height="69"/>
	<rect x="567" y="339.3" class="st3" width="38" height="8"/>
	<rect x="571.8" y="340.3" class="st3" width="28.5" height="6"/>
	<rect x="396" y="255.3" class="st2" width="125" height="69"/>
	<rect x="440" y="267.3" class="st3" width="38" height="8"/>
	<rect x="444.8" y="268.3" class="st3" width="28.5" height="6"/>
	<rect x="523" y="255.3" class="st2" width="125" height="69"/>
	<rect x="567" y="267.3" class="st3" width="38" height="8"/>
	<rect x="571.8" y="268.3" class="st3" width="28.5" height="6"/>
	<rect x="523" y="183.3" class="st2" width="125" height="69"/>
	<rect x="567" y="195.3" class="st3" width="38" height="8"/>
	<rect x="571.8" y="196.3" class="st3" width="28.5" height="6"/>
</g>
<path class="st4" d="M878.3,0.1c0,0-84.2-5.1-74.3,53.9c0,0-2,10.4,7.5,15.2c0,0,0.2-4.4,8.6-2.9c3,0.5,6.1,0.6,9.2,0.4
	c4.1-0.3,8.1-1.9,11.2-4.6l0,0c0,0,23.7-9.8,32.9-48.5c0,0,6.8-8.4,6.5-10.6l-14.2,6.1c0,0,4.9,10.3,1,18.8c0,0-0.5-18.4-3.2-18
	c-0.5,0.1-7.4,3.6-7.4,3.6s8.3,17.9,2,30.8c0,0,2.4-22-4.7-29.5l-10,5.8c0,0,9.8,18.4,3.1,33.5c0,0,1.7-23.1-5.3-32.1l-9.1,7.1
	c0,0,9.2,18.2,3.6,30.7c0,0-0.7-26.9-5.5-28.9c0,0-7.9,7-9.1,9.9c0,0,6.3,13.2,2.4,20.2c0,0-2.4-17.9-4.3-18c0,0-7.9,11.9-8.7,20
	c0,0,0.3-12.1,6.8-21.1c0,0-7.6,1.3-12.1,6.3c0,0,1.2-8.4,14-9.1c0,0,6.5-9,8.3-9.6c0,0-12.7-1.1-20.5,2.4c0,0,6.8-7.9,22.8-4.3
	l9-7.3c0,0-16.8-2.3-23.9,0.2c0,0,8.2-7,26.3-1.9l9.8-5.8c0,0-14.3-3.1-22.8-2c0,0,9-4.9,25.7,0.4l7-3.1c0,0-10.5-2.1-13.5-2.4
	s-3.2-1.2-3.2-1.2c6.6-1.1,13.5-0.3,19.7,2.2C863.8,6.5,878.5,1,878.3,0.1z"/>
<path class="st4" d="M774.5,15.1c0,0-38-2.3-33.5,24.4c0,0-0.9,4.7,3.4,6.9c0,0,0.1-2,3.9-1.3c1.4,0.2,2.8,0.3,4.1,0.2
	c1.9-0.1,3.6-0.9,5-2.1l0,0c0,0,10.7-4.4,14.9-21.9c0,0,3.1-3.8,3-4.8l-6.4,2.7c0,0,2.2,4.6,0.5,8.5c0,0-0.2-8.3-1.4-8.1
	c-0.3,0-3.3,1.6-3.3,1.6s3.8,8.1,0.9,13.9c0,0,1.1-9.9-2.1-13.4l-4.5,2.6c0,0,4.4,8.3,1.4,15.1c0,0,0.8-10.4-2.4-14.5l-4.1,3.2
	c0,0,4.1,8.2,1.6,13.9c0,0-0.3-12.1-2.5-13.1c0,0-3.6,3.2-4.1,4.5c0,0,2.8,6,1.1,9.1c0,0-1.1-8.1-2-8.1c0,0-3.6,5.4-3.9,9
	c0.2-3.4,1.2-6.7,3.1-9.6c-2.1,0.4-4,1.4-5.5,2.8c0,0,0.6-3.8,6.3-4.1c0,0,3-4.1,3.7-4.3c0,0-5.8-0.5-9.3,1.1c0,0,3.1-3.6,10.3-1.9
	l4-3.3c0,0-7.6-1-10.8,0.1c0,0,3.7-3.2,11.9-0.9l4.4-2.6c0,0-6.5-1.4-10.3-0.9c0,0,4.1-2.2,11.6,0.2l3.2-1.4c0,0-4.7-0.9-6.1-1.1
	s-1.5-0.5-1.5-0.5c3-0.5,6.1-0.2,8.9,1C767.8,18,774.6,15.5,774.5,15.1z"/>
<ellipse class="st5" cx="224.2" cy="638" rx="40.2" ry="6.8"/>
<path class="st5" d="M240.8,626.8c1.8-1.5,3.2-3.5,3.8-5.8c0.5-2.3-0.5-5-2.7-5.9c-2.5-0.9-5.1,0.8-7.1,2.5s-4.3,3.7-6.9,3.3
	c2.7-2.5,4-6.2,3.2-9.8c-0.1-0.7-0.4-1.4-0.9-2c-1.4-1.5-3.8-0.8-5.5,0.3c-5.2,3.7-6.6,10.7-6.7,17.1c-0.5-2.3-0.1-4.7-0.1-7
	s-0.7-5-2.6-6.2c-1.2-0.7-2.6-1-4-0.9c-2.3-0.1-4.9,0.2-6.5,1.9c-2,2.1-1.5,5.7,0.3,8s4.4,3.8,6.8,5.4c1.9,1.2,3.6,2.7,4.8,4.6
	c0.1,0.3,0.3,0.5,0.4,0.8h14.7C235.1,631.4,238.1,629.3,240.8,626.8z"/>
<path class="st6" d="M717.4,342c-0.2-1.5-1.1-2.9-2.5-3.6c-2.4-1-5.1,0.1-6.1,2.5c0,0,0,0.1-0.1,0.1l-22.2,46.7l-5,184h8l3-183.6
	l24.4-43.3C717.4,344,717.5,343,717.4,342z"/>
<path class="st0" d="M1075.6,613.3c-6.6,5.7-13.6,10.9-21.1,15.3c-0.1,0.2-0.2,0.3-0.4,0.5c-0.8,0.7-1.7,1.1-2.8,1.4l0,0
	c-24.8,13.8-52.7,21-81.1,20.8H420.4c-63-6.5-101.4-15.1-101.4-24.5c0-7.3,23.1-14.1,62.8-19.8c4.1-0.6,8.4-1.2,12.9-1.7
	c2.8-0.3,5.6-0.7,8.5-1l4.9-0.6c3.6-0.4,7.4-0.8,11.2-1.2h0.3l4-0.4c3.4-0.3,6.8-0.7,10.4-1l2.6-0.2l6.5-0.6c4.2-0.4,8.6-0.7,13-1.1
	c3.7-0.3,7.4-0.6,11.2-0.9c38.5-2.8,82.8-5,131.1-6.4l13.8-0.5l4.6-0.1l9.8-0.2l3.9-0.1l4.1-0.1l2.9,0l13.8-0.2l7.1-0.1h1.5
	c16.8-0.2,33.8-0.3,51.2-0.3c34.4,0,67.7,0.4,99.5,1.2l0,0c18.2,0.4,35.9,1,53,1.7h0.2c49.4,1.9,93.6,4.8,130.2,8.3l0.7,0.1
	c9.4,0.9,18.3,1.9,26.6,2.9c7.8,0.9,15.2,1.9,22.1,2.9c2.4,0.3,4.7,0.7,6.9,1.1l0.6,0.1C1060.2,610.1,1068.5,611.6,1075.6,613.3z"/>
<linearGradient id="SVGID_1_" gradientUnits="userSpaceOnUse" x1="905.8851" y1="-106.66" x2="905.8851" y2="376.4143" gradientTransform="matrix(1 0 0 -1 -28 527.63)">
	<stop  offset="0" style="stop-color:#808080;stop-opacity:0.25"/>
	<stop  offset="0.54" style="stop-color:#808080;stop-opacity:0.12"/>
	<stop  offset="1" style="stop-color:#808080;stop-opacity:0.1"/>
</linearGradient>
<path class="st7" d="M1054.5,628.6c-0.1,0.2-0.2,0.3-0.4,0.5c-0.8,0.7-1.7,1.1-2.8,1.4l0,0c-2,0.6-4.1,0.9-6.2,1h-0.6
	c-1.2,0-2.4,0-3.6-0.1c-0.9-0.1-1.8-0.2-2.6-0.2h-0.1c-1.3,0.2-2.5,0.5-3.8,0.9c-2.7,0.7-5.5,1.1-8.3,1.2h-1c-3.1,0-6.3-0.1-9.5-0.1
	c-0.5,0-1,0-1.5,0c-5.4,0.1-10.8,1-16.2,1.1h-1.7c-5.3-0.1-10.7-1.3-14.9-4.5c-0.8-0.6-1.5-1.3-2-2.2c-0.4-1-0.5-2-0.3-3
	c0.1-1.8,0.5-3.8,1.8-5c0.9-0.7,1.8-1.1,2.9-1.4c1.8-0.6,3.7-1.2,5.5-1.7s3.9-1.2,5.9-1.8l0.4-0.1l1.1-0.3l0.7-0.2
	c0.9-0.3,1.7-0.7,2.5-1.1c1-0.6,1.9-1.5,2.5-2.5c0.1-0.2,0.2-0.4,0.3-0.6s0-0.3-0.1-0.5c-0.2-1.3-0.3-2.5-0.5-3.8
	c-2.8-0.7-5.4-2.1-7.4-4.2c-1.7-1.7-3.2-3.7-4.3-5.8c-2.5-4.7-3.8-9.9-5.6-14.9c-2.8-7.6-7-14.5-11.2-21.5
	c-3.8-6.4-7.7-12.8-12-18.8c-2.9-4-6-7.8-8.9-11.8c-8.1-11.2-13.9-23.9-17.1-37.3c-0.5-2.6-1.2-5.1-2.1-7.6
	c-1.7-4.2-4.9-7.6-7.3-11.5c-2.6-4.1-4.4-8.7-5.3-13.6c-0.5-2.7-1.3-5.7-4.1-6l0,0l-0.3,0.6c-5.7,11-11.5,22.2-20,31.2
	c-1.4,1.3-2.6,2.8-3.7,4.3c-0.9,1.5-1.7,3-2.4,4.6c-1.4,2.9-3.1,5.5-5.3,7.8c-0.6,0.7-1.3,1.2-2.1,1.8c-1,0.7-2.1,1.3-3.3,1.7l0,0
	c-0.5,0.1-0.9,0.2-1.4,0.3c0,0.1,0,0.2,0.1,0.3s0.1,0.3,0.1,0.4c1.5,8,0.8,16.2-1.8,23.9c-0.1,0.2-0.2,0.5-0.2,0.7
	c-0.4,1.1-0.9,2.2-1.3,3.3c-1.2,2.7-2.7,5.2-3.8,7.9c-0.2,0.5-0.4,0.9-0.5,1.4c-4,10.7-3,22.7-3.5,34.2c0,2.5-0.3,5-0.9,7.5
	c-0.7,2.8-1.8,5.6-2.4,8.5c-0.5,2.1-0.6,4.4-0.1,6.5l-0.2,0.1c-1.1,0.4-2.2,0.8-3.3,1.1v0.2c0.4,2.2,0.8,4.5,1.2,6.7
	c0.3,1.9,0.7,4,2.1,5.4c0.4,0.3,0.7,0.6,1,1c0.8,1.2,0.1,2.9,0.2,4.3c0.2,2.1,2.1,3.8,1.8,5.9c-0.3,1.3-1.1,2.3-2.3,2.8
	c-0.5,0.2-1,0.4-1.5,0.5l-0.3,0.1c-0.6,0.1-1.2,0.2-1.8,0.2c-7.5,0.7-15,1.5-22.4,0.2c-1.5-0.3-2.9-0.6-4.4-0.7
	c-1.9-0.1-3.7,0-5.6,0.2c-13.7,1.3-27.5,1.6-41.2,0.8c-3.6-0.2-7.7-0.8-9.6-3.8c-1.6-2.5-1-5.8-0.2-8.7c0.2-1.1,0.6-2.1,1.2-3
	c0.1-0.1,0.1-0.2,0.2-0.3c1.8-2.3,5.3-2.4,8.3-2.3l9.7,0.3c1,0.1,1.9,0,2.9-0.2c1.6-0.5,2.8-1.7,4.3-2.4c1.9-0.9,4.2-1,5.5-2.5
	l0.2-0.2c0.2-0.3,0.5-0.7,0.7-1c0-0.1,0.1-0.1,0.1-0.2l0,0c0-0.1,0.1-0.1,0.1-0.2c1.2-1.6,3.4-2.2,5.1-3.2c0.3-0.2,0.5-0.3,0.8-0.5
	l0.2-0.2c-1.9-1.3-3.5-3-4.9-4.9c-0.5-0.6-0.9-1.2-1.1-1.9c-0.1-0.5-0.1-1.1,0.1-1.6c0-0.1,0.1-0.3,0.2-0.4l0-0.1
	c0.7-1.3,2.1-2.5,2.8-3.9c0,0,0.1-0.1,0.1-0.1c1.1-2,1.3-5.1-0.3-6.7c0.8-13.2,4.4-26,5.2-39.2c0.3-5.2,0.2-10.5,0.4-15.7
	s0.8-10.3,1.4-15.5c1.3-11.8,4.5-23.3,4.1-35.1c0-1.1,0-2.2,0.1-3.3c0-0.1,0-0.2,0-0.2c0.3-2.4,1.1-4.8,2.2-6.9
	c1.4-2.4,3.1-4.7,4.9-6.9c6.2-8,13.5-16,15.7-25.8c1.1-5.1,3.6-9.7,6.1-14.3c1.5-2.7,3-5.5,5.3-7.5c1.3-0.9,2.5-1.9,3.5-3
	c1.6-2.1,1.7-5,2.7-7.6c0.5-1.3,1.3-2.5,1.7-3.9c0-0.1,0.1-0.3,0.1-0.4c0.2-1.4,0.3-2.7,0.3-4.1c0-0.4,0.1-0.8,0.1-1.2l0,0
	c0.6-4,1.7-7.8,3.4-11.4c0.2-0.5,0.4-0.9,0.6-1.4c-4.6-2.7-8.7-6.2-12-10.4c-1.1-1.4-2.1-2.8-2.9-4.4c-2.1-4.1-2.5-8.8-3.5-13.2
	c-2.3-10.7-7.6-20.7-8.4-31.7c-0.2-3.3,0-6.8-1.2-9.9c-0.3-0.9-0.7-1.7-1.1-2.5c-0.2-0.3-0.3-0.7-0.5-1l-0.2-0.4l-0.5-1l-0.8,0.6
	c-20.5,16-41.9,30.7-64.3,43.9l-1.9,1.1c-1,0.5-1.9,1.2-2.5,2.1c-0.1,0.1-0.2,0.3-0.2,0.4l0,0c-0.5,1-0.6,2-1,3
	c-0.9,2.3-3.2,3.8-5.6,4.4c-4.3,1.1-8.8,0.5-12.7-1.6c-0.5-0.3-1-0.5-1.4-0.8c-1.2,0.6-2.4,1.2-3.7,1.6c-4,1.2-8.2,1.1-12.3,1.1
	s-8.4,0-12.3,1.4c-2.6,0.9-5.2,2.4-7.9,2.5c-0.3,0-0.6,0-0.9,0c-1.6-0.2-3.1-0.6-4.5-1.3l-0.8-0.4c-0.4-0.2-0.8-0.4-1.2-0.7
	c-0.4-0.3-0.8-0.6-1.2-1c-0.5-0.5-0.9-1.2-1.1-1.9c-0.1-0.5-0.1-1.1,0-1.6c0-0.2,0.2-0.4,0.3-0.6c0.2-0.1,0.4-0.2,0.6-0.1
	c1.1,0,2.3,0.1,3.4,0.3c0.7,0.1,1.3,0.1,2,0.1h0.4c1.2-0.1,2.3-0.7,3-1.7c0.1-0.1,0.2-0.3,0.3-0.5l0,0c0.1-0.3,0.2-0.6,0.2-0.9
	c0-0.1,0-0.2,0-0.2c-0.4-0.2-0.8-0.4-1.2-0.6c-0.2-0.1-0.4-0.2-0.6-0.4l-0.1-0.1c-0.4-0.2-0.7-0.5-1-0.8c-0.2-0.2-0.4-0.4-0.5-0.6
	c-0.3-0.4-0.5-0.8-0.6-1.2l0,0c-0.8-0.2-1.7-0.1-2.5,0.1c-1.1,0.3-2.2,0.9-3.3,1.2c-0.5,0.1-1.1,0.1-1.7-0.1
	c-1.6-0.6-2.1-2.5-2.4-4.1c-0.1-0.3-0.1-0.6-0.2-1l0,0c-0.1-0.6-0.1-1.2,0-1.9c0.5-1.4,1.4-2.6,2.6-3.4l3.3-2.8l0.2-0.2
	c0-0.3-0.1-0.5-0.2-0.8c-0.1-0.6-0.1-1.3,0-1.9c0.5-1.4,1.4-2.6,2.6-3.4l7.3-6.1c1.4-1.1,2.8-2.3,4.6-2.5c2.6-0.2,4.7,2,6.7,3.8
	c2.5,2.2,5.5,4,8.8,4.2c1.6,0.1,3.2-0.1,4.7-0.6l0.8-0.3c-0.2-0.4-0.4-0.7-0.5-1.1c-0.3-0.6-0.6-1.2-0.9-1.9
	c4.3-0.3,8.1-2.6,11.4-5.4s6-6.1,9.3-8.9c3.5-3,7.6-5.2,11.1-8.1c8.3-6.7,13.8-16.6,22.7-22.5c3.1-2.1,6.6-3.7,8.7-6.8
	c0.7-1,1.1-2,1.8-3c2.1-3,5.8-4.4,8.8-6.5s5.6-5.1,8.1-8.1c1.7-2.1,3.5-4.2,5.2-6.3c1.5-2.9,2.8-5.8,4.4-8.6
	c1.4-2.4,2.9-4.6,4.7-6.7c0.4-0.8,0.8-1.6,1.3-2.4s0.8-1.3,1.2-2c0.3-0.5,0.6-0.9,0.9-1.3c-0.9-1.6-1.8-3-2.2-3.6l-0.2-0.3
	c-0.9-0.9-1.8-1.8-2.8-2.6c-1-0.2-2.1-0.4-3.1-0.7c-12.7-3.5-21.5-15-21.5-28.2c0,0,0-0.1,0-0.1c0-4.6,1.1-9.1,3.2-13.2
	c0.4-0.8,0.9-1.6,1.4-2.4c-0.5-0.1-0.9-0.3-1.3-0.5c-0.7-0.4-1.4-0.9-1.9-1.5c-0.4-0.6-0.7-1.2-0.8-1.9c-0.2-1.6,0.1-3.3,0.7-4.8
	c0.3-0.7,0.6-1.5,0.9-2.2c0,0,0.1-0.1,0.1-0.1c4.5-9,14-14.5,23.5-14.9c10.3-0.4,20.3,4.4,28.4,11.3c2.4,2,4.6,4.3,6.4,6.8
	c4.2,5.9,6.1,13.4,6.7,20.9c0.2,2.3,0.2,4.6-0.1,6.9c-0.1,0.8-0.3,1.6-0.5,2.4c-0.1,0.5-0.3,0.9-0.5,1.4s-0.3,0.7-0.5,1v0
	c-0.2,0.3-0.3,0.6-0.5,0.9l-0.1,0.1l-0.1,0.2c0.1,0.2,0.2,0.4,0.3,0.6s0.2,0.4,0.3,0.5h0.1c2,0.2,3.8,0.4,5.9,0.6
	c1,0,1.9,0.2,2.8,0.4c2,0.6,3.5,2.1,5.2,3.2c4.2,2.9,9.3,4.3,13.4,7.4c6,4.5,9,11.9,12.6,18.5c4.8,8.9,12.6,16.4,16.1,25.9
	c1.6,4.3,3.1,8.6,4.7,12.9c3.1,8.4,6.1,16.9,10.3,24.9c5.8,11.1,13.7,21,18.3,32.6c0.5,1.2,1.3,2.1,2.4,2.7
	c6.3,8.9,12,18.4,16.8,28.2c2.6,5.2,5,10.6,5.8,16.3c0.6,5.1,0.2,10.3-1.3,15.3c-0.8,2.9-1.8,5.8-2.9,8.7c-0.4,1-0.8,2-1,3.1
	c0,0.1,0,0.2,0,0.3c-0.2,1.9,0.5,3.8,0.7,5.7c0.2,1.5,0,3.1-0.5,4.6c-0.1,0.2-0.2,0.5-0.3,0.7c-0.6,1.2-1.1,2.4-1.6,3.6
	c0,0.2-0.1,0.3-0.1,0.5c-0.3,2.2,0.5,4.4,1,6.5c1.8,7.8,1.4,16,1,24c-0.2,4,3,7.2,5.7,10.2c5,5.5,8.9,12,12.7,18.4
	c2.1,3.3,3.8,6.7,5.2,10.3c1.4,4.1,2,8.5,2.8,12.8c2.6,13.2,10.9,24.9,13.1,38.1c1,6.1,3.7,11.7,7.7,16.4c1.2,1.2,2.3,2.6,3.3,4
	c0.7,1.1,1.3,2.3,1.7,3.6c1,2.9,1.4,6,1.4,9.1c-0.2,1.5-0.1,3,0.3,4.4c0.9,3.1,4.3,4.8,5.7,7.7s0.4,6.6,1,9.9c0.4,2.6,1.9,5,4,6.7
	c-0.8,0.7-1.6,1.3-2.5,2c0.8,0.6,1.5,1.4,2.1,2.2c0.4,0.6,0.7,1.1,1,1.8c1.3,3.1,1.4,6.7,2.4,10c0.5,1.4,1.1,2.8,0.7,4.2
	c-0.2,0.4-0.3,0.8-0.3,1.2c0,0.9,0.9,1.5,1.3,2.3C1055.3,627.1,1055.1,628,1054.5,628.6z"/>
<path class="st8" d="M842.8,238.6c6.1-1.6,11.6-5.1,16.9-8.5l18.6-11.9c-5-0.4-9.4-4-12-8.4s-3.7-9.4-4.5-14.4
	c-8,3.1-14.9,8.4-21.4,14c-2.6,2.2-8,5.5-8.8,9s4.3,6.3,6.2,8.6C838.5,227.8,844.8,238.1,842.8,238.6z"/>
<path class="st3" d="M842.8,238.6c6.1-1.6,11.6-5.1,16.9-8.5l18.6-11.9c-5-0.4-9.4-4-12-8.4s-3.7-9.4-4.5-14.4
	c-8,3.1-14.9,8.4-21.4,14c-2.6,2.2-8,5.5-8.8,9s4.3,6.3,6.2,8.6C838.5,227.8,844.8,238.1,842.8,238.6z"/>
<path class="st8" d="M741.2,336.5c-3.3,1.7-6.8,3.4-10.4,3.2c-3.3-0.2-6.3-2-8.8-4.2c-2-1.7-4.1-3.9-6.7-3.7
	c-1.8,0.1-3.2,1.3-4.6,2.4l-7.3,6.1c-1.2,0.8-2.1,2-2.6,3.4c-0.1,0.9-0.1,1.9,0.2,2.8c0.3,1.6,0.9,3.5,2.4,4.1s3.3-0.6,4.9-1.1
	c2.1-0.5,4.2,0.1,5.7,1.7c0.6,0.6,0.9,1.4,1,2.2c0,1.8-2,3-3.8,3.1s-3.6-0.5-5.4-0.4c-0.5-0.1-0.9,0.3-0.9,0.7c0,0,0,0,0,0
	c-0.2,1.3,0.2,2.6,1.2,3.5c1,0.9,2.1,1.5,3.3,2c1.4,0.7,2.9,1.1,4.5,1.3c3.1,0.2,5.9-1.5,8.8-2.5c3.9-1.3,8.1-1.4,12.3-1.4
	s8.3,0.1,12.3-1.1s7.7-3.7,9.3-7.6c0.2-0.4,0.2-0.8,0.2-1.2c-0.2-0.4-0.5-0.8-0.8-1c-5.6-4.1-7.8-9.1-14.1-12.1L741.2,336.5z"/>
<path class="st3" d="M741.2,336.5c-3.3,1.7-6.8,3.4-10.4,3.2c-3.3-0.2-6.3-2-8.8-4.2c-2-1.7-4.1-3.9-6.7-3.7
	c-1.8,0.1-3.2,1.3-4.6,2.4l-7.3,6.1c-1.2,0.8-2.1,2-2.6,3.4c-0.1,0.9-0.1,1.9,0.2,2.8c0.3,1.6,0.9,3.5,2.4,4.1s3.3-0.6,4.9-1.1
	c2.1-0.5,4.2,0.1,5.7,1.7c0.6,0.6,0.9,1.4,1,2.2c0,1.8-2,3-3.8,3.1s-3.6-0.5-5.4-0.4c-0.5-0.1-0.9,0.3-0.9,0.7c0,0,0,0,0,0
	c-0.2,1.3,0.2,2.6,1.2,3.5c1,0.9,2.1,1.5,3.3,2c1.4,0.7,2.9,1.1,4.5,1.3c3.1,0.2,5.9-1.5,8.8-2.5c3.9-1.3,8.1-1.4,12.3-1.4
	s8.3,0.1,12.3-1.1s7.7-3.7,9.3-7.6c0.2-0.4,0.2-0.8,0.2-1.2c-0.2-0.4-0.5-0.8-0.8-1c-5.6-4.1-7.8-9.1-14.1-12.1L741.2,336.5z"/>
<path class="st5" d="M858.3,229.9c-3.1-2-7.1-2.5-10.6-1.2c-3.5,1.3-6.6,3.3-9.1,6.1c-2.5,2.5-4.7,5.4-6.4,8.5c-1.7,3-3,6.1-4.7,9.1
	c-3,5.4-6.9,10.1-10.9,14.8c-2.5,2.9-4.9,5.9-8.1,8s-6.7,3.5-8.8,6.4c-0.7,0.9-1.2,2-1.8,3c-2.1,3.1-5.6,4.7-8.7,6.8
	c-8.9,5.9-14.4,15.7-22.7,22.4c-3.6,2.9-7.6,5.1-11.1,8.1c-3.3,2.7-6,6-9.3,8.8s-7.1,5.1-11.3,5.4c2.8,6.3,6.2,12.5,11.1,17.5
	s12.2,8.1,18.8,6.1c2.4-0.7,4.7-2.1,5.6-4.4c0.3-1.2,0.7-2.3,1.2-3.4c0.7-0.9,1.5-1.6,2.5-2.1c26.7-15.6,52.1-33.2,76.1-52.7
	c6.4-5.2,12.8-9.9,19.4-15c2.4-1.7,4.6-3.6,6.5-5.7c5.6-6.7,6.7-16.2,2.6-24c-1.8-2.9-3.8-5.7-6.1-8.2
	C868.5,238.6,863.7,233.9,858.3,229.9z"/>
<path class="st3" d="M858.3,229.9c-3.1-2-7.1-2.5-10.6-1.2c-3.5,1.3-6.6,3.3-9.1,6.1c-2.5,2.5-4.7,5.4-6.4,8.5c-1.7,3-3,6.1-4.7,9.1
	c-3,5.4-6.9,10.1-10.9,14.8c-2.5,2.9-4.9,5.9-8.1,8s-6.7,3.5-8.8,6.4c-0.7,0.9-1.2,2-1.8,3c-2.1,3.1-5.6,4.7-8.7,6.8
	c-8.9,5.9-14.4,15.7-22.7,22.4c-3.6,2.9-7.6,5.1-11.1,8.1c-3.3,2.7-6,6-9.3,8.8s-7.1,5.1-11.3,5.4c2.8,6.3,6.2,12.5,11.1,17.5
	s12.2,8.1,18.8,6.1c2.4-0.7,4.7-2.1,5.6-4.4c0.3-1.2,0.7-2.3,1.2-3.4c0.7-0.9,1.5-1.6,2.5-2.1c26.7-15.6,52.1-33.2,76.1-52.7
	c6.4-5.2,12.8-9.9,19.4-15c2.4-1.7,4.6-3.6,6.5-5.7c5.6-6.7,6.7-16.2,2.6-24c-1.8-2.9-3.8-5.7-6.1-8.2
	C868.5,238.6,863.7,233.9,858.3,229.9z"/>
<path class="st6" d="M815.3,600.8c-1.8,1-3.9,1.6-5.1,3.2c-0.4,0.5-0.7,1.1-1.1,1.6c-1.3,1.6-3.7,1.6-5.5,2.5
	c-1.5,0.7-2.7,2-4.3,2.4c-0.9,0.2-1.9,0.3-2.9,0.2l-9.7-0.3c-3.1-0.1-6.7,0.1-8.5,2.6c-0.6,0.9-1,1.9-1.2,3
	c-0.8,2.9-1.4,6.1,0.2,8.6c1.9,3,6,3.6,9.5,3.8c13.7,0.8,27.5,0.5,41.1-0.8c1.8-0.2,3.7-0.3,5.6-0.2c1.5,0.1,2.9,0.5,4.4,0.7
	c7.4,1.3,14.9,0.5,22.3-0.2c1.3-0.1,2.5-0.3,3.7-0.8c1.2-0.5,2.1-1.5,2.3-2.8c0.3-2.1-1.6-3.8-1.8-5.9c-0.2-1.5,0.5-3.1-0.3-4.3
	c-0.3-0.4-0.6-0.7-1-1c-1.3-1.4-1.7-3.4-2.1-5.3l-1.8-10.3c0-0.7-0.3-1.4-0.8-1.9c-0.4-0.3-0.8-0.4-1.2-0.5
	c-7.6-1.7-15.4-0.2-23,0.8c-3.9,0.6-7.8,0.8-11.8,0.6c-1.7-0.1-2.4-0.3-3.6,0.8S816.9,599.9,815.3,600.8z"/>
<path class="st6" d="M999.3,613.2c-1.3,0.7-2.8,1.3-4.3,1.7c-3.9,1.1-7.8,2.3-11.8,3.6c-1,0.3-2,0.7-2.9,1.4c-1.4,1.2-1.7,3.2-1.8,5
	c-0.1,1,0,2,0.3,3c0.5,0.9,1.2,1.7,2,2.2c4.5,3.4,10.3,4.4,16,4.4s11.2-1,16.8-1.1c6.8-0.2,13.8,0.8,20.3-1.1
	c1.2-0.5,2.5-0.8,3.9-0.9c0.9,0,1.8,0,2.6,0.2c3.5,0.3,7,0,10.4-1c1-0.2,2-0.7,2.8-1.4c0.8-0.7,1.1-1.8,0.7-2.8
	c-0.4-0.8-1.3-1.4-1.3-2.3c0-0.4,0.2-0.8,0.3-1.2c0.4-1.4-0.3-2.8-0.7-4.2c-1.3-3.9-1.1-8.3-3.4-11.7s-6.6-4.7-10.6-5.3
	c-3.3-0.5-6.6-0.4-9.8,0.3c-3.7,0.8-7.1,2.4-10.6,3.5c-4.2,1.2-8.5,1.6-12.8,1.2c-2.9-0.2-1.9,0.2-2.8,2.6
	C1001.9,610.9,1000.8,612.3,999.3,613.2z"/>
<circle class="st8" cx="839.5" cy="195.8" r="29"/>
<path class="st5" d="M1049.7,602.8c-9,7.7-21.2,11.1-33,11.2c-5,0-10.2-0.5-14.4-3.1c-0.3-1.6-0.4-3.4-0.7-5
	c-5.2-1.1-9.2-5.3-11.7-10s-3.8-9.8-5.6-14.8c-2.8-7.5-7-14.5-11.2-21.3c-3.8-6.3-7.7-12.7-12-18.7c-2.9-4-6-7.8-8.8-11.8
	c-8.1-11.1-13.9-23.7-17-37.1c-0.5-2.6-1.2-5.1-2.1-7.5c-1.7-4.2-4.9-7.6-7.3-11.4c-2.6-4.1-4.4-8.7-5.3-13.5
	c-0.5-2.7-1.3-5.7-4.1-5.9l0,0c-5.7,11.2-11.6,22.5-20.3,31.5c-1.4,1.3-2.6,2.7-3.7,4.3c-0.9,1.5-1.7,3-2.4,4.6
	c-1.3,2.8-3.1,5.4-5.3,7.7c-1.8,1.9-4.2,3.2-6.8,3.7c1.9,9.6,0.8,19.6-3.3,28.5c-1.2,2.6-2.7,5.2-3.8,7.8c-4.7,11-3.6,23.4-4.1,35.3
	c0,2.5-0.3,5-0.9,7.4c-1.2,4.9-3.7,10.1-2.5,15c-12.5,4.8-26.5,4.5-39.8,2.5c-2.6-0.2-5.1-1-7.4-2.3c-1.9-1.3-3.5-3-4.9-4.9
	c-0.5-0.5-0.9-1.2-1.1-1.9c-0.5-2.3,2-4,3.2-6s1.4-5.2-0.2-6.8c0.8-13.1,4.4-25.9,5.2-39c0.3-5.2,0.2-10.4,0.4-15.6
	s0.8-10.3,1.4-15.4c1.3-11.7,4.5-23.2,4.1-34.9c-0.1-3.6,0.7-7.2,2.4-10.4c1.4-2.4,3.1-4.7,4.9-6.9c6.1-7.9,13.5-15.9,15.7-25.7
	c1.1-5,3.6-9.7,6.1-14.2c1.5-2.7,3-5.5,5.3-7.5c1.3-0.9,2.5-1.9,3.5-3c1.6-2.1,1.7-5,2.7-7.5c0.5-1.3,1.3-2.5,1.6-3.8
	c0.3-1.5,0.5-3,0.5-4.5c0.3-4.8,2.2-9.5,4.1-14c-4.6-2.7-8.7-6.2-12-10.3c-1.1-1.4-2.1-2.8-2.9-4.4c-2.1-4.1-2.5-8.7-3.5-13.1
	c-2.3-10.6-7.6-20.6-8.4-31.5c-0.2-3.3,0-6.7-1.2-9.9c-0.5-1.3-1.2-2.6-1.9-3.9c-0.7-1.2-1.2-2.5-1.6-3.9c-0.6-3,0.2-6,0-9
	c-0.2-2.6-1.4-5.1-1.9-7.7c-0.6-3.4-0.7-6.8-0.3-10.2c0.3-4,1.1-8.1,0.8-12.1c-1.1-13.2,3.4-26.3,12.5-35.9l0.2-0.2
	c1.9-2,4-3.8,5.7-5.9c2.3-2.8,4-6.2,6.5-8.9c1.1-1.2,2.3-2.3,3.4-3.6c1-1.3,2.1-2.5,3.3-3.6c1.2-1.1,2.9-1.6,4.5-1.2
	c0.2,1.5,0.7,2.9,1.4,4.3c2.1,0.2,3.9,0.5,6,0.6c1,0,1.9,0.2,2.8,0.4c2,0.6,3.5,2,5.2,3.2c4.2,2.9,9.3,4.3,13.4,7.3
	c6,4.5,9,11.8,12.6,18.4c4.8,8.8,12.6,16.3,16,25.8l4.7,12.8c3.1,8.4,6.1,16.8,10.3,24.7c5.8,11,13.6,20.9,18.3,32.4
	c0.5,1.2,1.3,2.1,2.4,2.7c6.3,8.9,12,18.2,16.8,28c2.6,5.2,5,10.5,5.7,16.2c1.1,8.1-1.1,16.2-4.2,23.8c-0.5,1.1-0.8,2.2-1,3.4
	c-0.2,1.9,0.5,3.8,0.7,5.7c0.2,1.8-0.1,3.6-0.8,5.2c-0.6,1.2-1.1,2.4-1.6,3.6c-0.5,2.3,0.4,4.6,0.9,6.9c1.8,7.8,1.4,15.9,1,23.8
	c-0.2,4,3,7.2,5.7,10.1c5,5.5,8.9,11.9,12.7,18.3c2,3.3,3.8,6.7,5.2,10.3c1.4,4.1,2,8.4,2.8,12.7c2.5,13.1,10.9,24.7,13.1,37.8
	c1,6,3.7,11.6,7.7,16.3c1.2,1.2,2.3,2.6,3.3,4c0.7,1.1,1.2,2.3,1.6,3.6c1,2.9,1.4,6,1.4,9.1c-0.2,1.5-0.1,3,0.3,4.4
	c0.9,3,4.3,4.7,5.7,7.6s0.4,6.5,1,9.8C1046.2,598.8,1047.6,601.2,1049.7,602.8z"/>
<path class="st8" d="M747.2,327.5c-3.3,1.7-6.8,3.4-10.4,3.2c-3.3-0.2-6.3-2-8.8-4.2c-2-1.7-4.1-3.9-6.7-3.7
	c-1.8,0.1-3.2,1.3-4.6,2.4l-7.3,6.1c-1.2,0.8-2.1,2-2.6,3.4c-0.1,0.9-0.1,1.9,0.2,2.8c0.3,1.6,0.9,3.5,2.4,4.1s3.3-0.6,4.9-1.1
	c2.1-0.5,4.2,0.1,5.7,1.7c0.6,0.6,0.9,1.4,1,2.2c0,1.8-2,3-3.8,3.1s-3.6-0.5-5.4-0.4c-0.5-0.1-0.9,0.3-0.9,0.7c0,0,0,0,0,0
	c-0.2,1.3,0.2,2.6,1.2,3.5c1,0.9,2.1,1.5,3.3,2c1.4,0.7,2.9,1.1,4.5,1.3c3.1,0.2,5.9-1.5,8.8-2.5c3.9-1.3,8.1-1.4,12.3-1.4
	s8.3,0.1,12.3-1.1s7.7-3.7,9.3-7.6c0.2-0.4,0.2-0.8,0.2-1.2c-0.2-0.4-0.5-0.8-0.8-1c-5.6-4.1-7.8-9.1-14.1-12.1L747.2,327.5z"/>
<path class="st6" d="M825.4,177.9c-1.7,0.3-3.2,1.5-4.8,2.1c-2.2,0.9-4.7,0.7-6.8-0.4c-0.7-0.4-1.4-0.9-1.9-1.5
	c-1.3-1.9-0.9-4.6,0-6.7c3.9-10.3,14.2-16.7,24.5-17.1s20.2,4.4,28.3,11.2c2.4,2,4.6,4.2,6.4,6.7c4.2,5.9,6.1,13.3,6.7,20.7
	c0.3,3.1,0.1,6.2-0.6,9.3c-0.7,3-2.6,5.5-5.3,7.1c-2.9,1.5-6.3,1-9.2-0.4s-5.4-3.6-7.8-5.7c-1.1-1.1-2.5-1.9-3.9-2.5
	c-1.5-0.5-3.1-0.1-4.2,1c-1.3,1.6-1,4.3-2.2,6s-3.8,2-5.9,2s-4.3-0.2-5.6-1.9c-1.2-1.5-1-3.8-0.6-5.7s1.2-3.9,1-5.9
	c-0.4-4-3.9-6.5-5-10.1c-0.7-2.4,0.8-3.4,0.7-5.6C829,178.6,826.9,177.7,825.4,177.9z"/>
<path class="st3" d="M916.5,453.8v0.3l0,0c-5.7,11.2-11.6,22.5-20.3,31.5c-1.4,1.3-2.6,2.7-3.7,4.3c-0.9,1.5-1.7,3-2.4,4.6
	c-1.3,2.8-3.1,5.4-5.3,7.7l-7.2,3.6l23-120L916.5,453.8z"/>
<path class="st3" d="M883.1,272.1c-2,2.1-4.2,4-6.5,5.7c-6.6,5-13,9.7-19.4,15c-5.2,4.2-10.4,8.3-15.7,12.4
	c-0.7-1.2-1.2-2.5-1.6-3.9c-0.6-3,0.2-6,0-9c-0.2-2.6-1.4-5.1-1.9-7.7c-0.6-3.4-0.7-6.8-0.3-10.2c0.3-4,1.1-8.1,0.8-12.1
	c-1.1-13.3,3.5-26.4,12.6-36l0.2-0.2c1.1-0.6,2.2-1.1,3.4-1.5c3.5-1.2,7.4-0.8,10.6,1.3c5.4,4,10.3,8.8,14.4,14.1
	c2.3,2.5,4.3,5.3,6.1,8.2C889.7,256,888.7,265.4,883.1,272.1z"/>
<path class="st5" d="M864.3,220.9c-3.1-2-7.1-2.5-10.6-1.2c-3.5,1.3-6.6,3.3-9.1,6.1c-2.5,2.5-4.7,5.4-6.4,8.5c-1.7,3-3,6.1-4.7,9.1
	c-3,5.4-6.9,10.1-10.9,14.8c-2.5,2.9-4.9,5.9-8.1,8s-6.7,3.5-8.8,6.4c-0.7,0.9-1.2,2-1.8,3c-2.1,3.1-5.6,4.7-8.7,6.8
	c-8.9,5.9-14.4,15.7-22.7,22.4c-3.6,2.9-7.6,5.1-11.1,8.1c-3.3,2.7-6,6-9.3,8.8s-7.1,5.1-11.3,5.4c2.8,6.3,6.2,12.5,11.1,17.5
	s12.2,8.1,18.8,6.1c2.4-0.7,4.7-2.1,5.6-4.4c0.3-1.2,0.7-2.3,1.2-3.4c0.7-0.9,1.5-1.6,2.5-2.1c26.7-15.6,52.1-33.2,76.1-52.7
	c6.4-5.2,12.8-9.9,19.4-15c2.4-1.7,4.6-3.6,6.5-5.7c5.6-6.7,6.7-16.2,2.6-24c-1.8-2.9-3.8-5.7-6.1-8.2
	C874.5,229.6,869.7,224.9,864.3,220.9z"/>
<g class="st9">
	<path d="M840.6,205.7c-2,0-4.3-0.2-5.6-1.9c-1.2-1.5-1-3.8-0.6-5.7s1.2-3.9,1-5.9c-0.4-4-3.9-6.5-5-10.1c-0.7-2.4,0.8-3.4,0.7-5.6
		c-0.1-1.9-2.2-2.8-3.7-2.6c-1.7,0.3-3.2,1.5-4.8,2.1c-2.2,0.9-4.7,0.7-6.8-0.4c-0.7-0.4-1.4-0.9-1.9-1.5c-1.3-1.9-0.9-4.6,0-6.7
		c0-0.1,0.1-0.1,0.1-0.2c-0.8,1.3-1.5,2.8-2.1,4.2c-0.8,2.2-1.3,4.9,0,6.7c0.5,0.6,1.1,1.2,1.9,1.5c2.1,1.1,4.6,1.2,6.8,0.4
		c1.6-0.6,3.1-1.8,4.8-2.1c1.5-0.3,3.6,0.7,3.7,2.6c0.2,2.2-1.4,3.2-0.7,5.6c1.1,3.7,4.6,6.2,5,10.1c0.2,2-0.5,3.9-1,5.9
		s-0.6,4.2,0.6,5.7c1.3,1.7,3.6,1.9,5.6,1.9s4.6-0.1,5.9-2c0.6-0.9,0.9-2,1.1-3.1C844.2,205.6,842.3,205.8,840.6,205.7z"/>
	<path d="M873.9,205.4c-2.9,1.5-6.3,1-9.2-0.4s-5.4-3.6-7.8-5.7c-1.1-1.1-2.5-1.9-3.9-2.5c-1.5-0.5-3.1-0.1-4.2,1
		c-0.7,1-1.1,2.2-1.3,3.4c1.1-0.6,2.3-0.8,3.5-0.4c1.5,0.6,2.8,1.4,3.9,2.5c2.5,2.1,5,4.3,7.8,5.7s6.3,1.9,9.2,0.4
		c2.5-1.5,4.4-3.9,5.1-6.7C876.2,203.8,875.1,204.7,873.9,205.4z"/>
</g>
<circle class="st6" cx="625" cy="605.3" r="30"/>
<circle class="st3" cx="625" cy="605.3" r="30"/>
<circle class="st10" cx="625" cy="605.3" r="19"/>
<circle class="st3" cx="625" cy="605.3" r="19"/>
<path class="st6" d="M602,558.3l19.7,44.5c0.8,1.9,3.1,2.8,5,2c0.8-0.4,1.5-1,1.9-1.8l23.4-47.6L602,558.3z"/>
<path class="st3" d="M602,558.3l19.7,44.5c0.8,1.9,3.1,2.8,5,2c0.8-0.4,1.5-1,1.9-1.8l23.4-47.6L602,558.3z"/>
<circle class="st6" cx="438" cy="605.3" r="30"/>
<circle class="st3" cx="438" cy="605.3" r="30"/>
<circle class="st10" cx="438" cy="605.3" r="19"/>
<circle class="st3" cx="438" cy="605.3" r="19"/>
<path class="st6" d="M415,558.3l19.7,44.5c0.8,1.9,3.1,2.8,5,2c0.8-0.4,1.5-1,1.9-1.8l23.4-47.6L415,558.3z"/>
<path class="st3" d="M415,558.3l19.7,44.5c0.8,1.9,3.1,2.8,5,2c0.8-0.4,1.5-1,1.9-1.8l23.4-47.6L415,558.3z"/>
<path class="st6" d="M722.4,344c-0.2-1.5-1.1-2.9-2.5-3.6c-2.4-1-5.1,0.1-6.1,2.5c0,0,0,0.1-0.1,0.1l-17.2,42.7l-5,192h8l3-191.6
	l19.4-39.3C722.4,346,722.5,345,722.4,344z"/>
<polygon class="st5" points="368.5,562.8 395.5,545.8 687,543.3 694.5,562.8 "/>
<polygon class="st6" points="368.5,580.8 368.5,562.8 699.8,559.6 699.5,571.8 374.5,571.8 374.5,580.8 "/>
<circle class="st6" cx="410.5" cy="615.8" r="30"/>
<circle class="st10" cx="410.5" cy="615.8" r="19"/>
<path class="st6" d="M387.5,568.8l19.7,44.5c0.8,1.9,3.1,2.8,5,2c0.8-0.4,1.5-1,1.9-1.8l23.4-47.6L387.5,568.8z"/>
<circle class="st6" cx="643.5" cy="615.8" r="30"/>
<circle class="st10" cx="643.5" cy="615.8" r="19"/>
<path class="st6" d="M620.5,568.8l19.7,44.5c0.8,1.9,3.1,2.8,5,2c0.8-0.4,1.5-1,1.9-1.8l23.4-47.6L620.5,568.8z"/>
<rect x="406" y="484.3" class="st2" width="125" height="69"/>
<rect x="450" y="496.3" class="st3" width="38" height="8"/>
<rect x="454.8" y="497.3" class="st3" width="28.5" height="6"/>
<rect x="533" y="484.3" class="st2" width="125" height="69"/>
<rect x="577" y="496.3" class="st3" width="38" height="8"/>
<rect x="581.8" y="497.3" class="st3" width="28.5" height="6"/>
<rect x="406" y="413.3" class="st2" width="125" height="69"/>
<rect x="450" y="425.3" class="st3" width="38" height="8"/>
<rect x="454.8" y="426.3" class="st3" width="28.5" height="6"/>
<rect x="533" y="413.3" class="st2" width="125" height="69"/>
<rect x="577" y="425.3" class="st3" width="38" height="8"/>
<rect x="581.8" y="426.3" class="st3" width="28.5" height="6"/>
<rect x="406" y="341.3" class="st2" width="125" height="69"/>
<rect x="450" y="353.3" class="st3" width="38" height="8"/>
<rect x="454.8" y="354.3" class="st3" width="28.5" height="6"/>
<rect x="533" y="341.3" class="st2" width="125" height="69"/>
<rect x="577" y="353.3" class="st3" width="38" height="8"/>
<rect x="581.8" y="354.3" class="st3" width="28.5" height="6"/>
<rect x="533" y="269.3" class="st2" width="125" height="69"/>
<rect x="577" y="281.3" class="st3" width="38" height="8"/>
<rect x="581.8" y="282.3" class="st3" width="28.5" height="6"/>
</svg>
