<?xml version="1.0" encoding="utf-8"?>
<!-- Generator: Adobe Illustrator 23.0.1, SVG Export Plug-In . SVG Version: 6.00 Build 0)  -->
<svg version="1.1" id="Layer_1" xmlns="http://www.w3.org/2000/svg" xmlns:xlink="http://www.w3.org/1999/xlink" x="0px" y="0px"
	 viewBox="0 0 150 150" style="enable-background:new 0 0 150 150;" xml:space="preserve">
<style type="text/css">
	.st0{fill:none;stroke:#151B26;stroke-width:2;stroke-linecap:round;stroke-linejoin:round;stroke-miterlimit:10;}
</style>
<g>
	<g>
		<path class="st0" d="M60.4,130.2H49.6c-11.3,0-20.6-9.3-20.6-20.6V58.9c0-11.3,9.3-20.6,20.6-20.6h10.8c11.3,0,20.6,9.3,20.6,20.6
			v50.7C81,120.9,71.7,130.2,60.4,130.2z"/>
		<path class="st0" d="M58.1,67.4c0,3.7-1.4,6.8-3.1,6.8c-1.7,0-3.1-3-3.1-6.8c0-3.7,1.4-6.8,3.1-6.8C56.7,60.6,58.1,63.7,58.1,67.4
			z"/>
		<path class="st0" d="M55,60.6V38.4c0,0-4.5-6.6,0-9.4c4.5-2.8,9.7,3.9,13.2,0c3.5-3.9-7-13.9-0.4-15"/>
		<line class="st0" x1="55" y1="111" x2="55" y2="107"/>
		<line class="st0" x1="55" y1="120.4" x2="55" y2="130.1"/>
		<path class="st0" d="M87.3,111.8c0,0-1.5,23.2-27.7,24.3"/>
		<path class="st0" d="M50.1,32.2"/>
		<line class="st0" x1="87.3" y1="82.6" x2="87.3" y2="101.2"/>
		<line class="st0" x1="55" y1="74.2" x2="55" y2="89.1"/>
		<path class="st0" d="M31.7,38.4c0,0-10.1,4.9-10.8,21.2c-0.8,16.3,0,38.1,0,38.1"/>
	</g>
	<polygon class="st0" points="120.3,42.4 86.8,34.8 94.4,68.4 101,55.7 122.9,77.5 129.4,70.9 107.6,49.1 	"/>
</g>
</svg>
