<?xml version="1.0" encoding="utf-8"?>
<!-- Generator: Adobe Illustrator 23.0.1, SVG Export Plug-In . SVG Version: 6.00 Build 0)  -->
<svg version="1.1" id="b07e16be-2c10-4721-ba95-38a6ee556ecd"
	 xmlns="http://www.w3.org/2000/svg" xmlns:xlink="http://www.w3.org/1999/xlink" x="0px" y="0px" viewBox="0 0 1087.2 681.1"
	 style="enable-background:new 0 0 1087.2 681.1;" xml:space="preserve">
<style type="text/css">
	.st0{fill:#21C87A;}
	.st1{fill:#444053;}
	.st2{fill:#1C6BE1;}
	.st3{opacity:0.5;fill:#E3E6F0;}
	.st4{fill:#FFFFFF;}
	.st5{opacity:0.8;fill:#FA5959;enable-background:new    ;}
	.st6{opacity:0.8;fill:#FED253;enable-background:new    ;}
	.st7{opacity:0.8;fill:#8CCF4D;enable-background:new    ;}
	.st8{fill:none;stroke:#E3E6F0;stroke-miterlimit:10;}
	.st9{fill:#E3E6F0;enable-background:new    ;}
	.st10{fill:url(#SVGID_1_);}
	.st11{fill:url(#SVGID_2_);}
	.st12{fill:#FFBC42;}
	.st13{fill:url(#SVGID_3_);}
	.st14{fill:url(#SVGID_4_);}
	.st15{fill:url(#SVGID_5_);}
	.st16{fill:#DA4B48;}
	.st17{fill:url(#SVGID_6_);}
	.st18{fill:url(#SVGID_7_);}
	.st19{fill:url(#SVGID_8_);}
	.st20{fill:url(#SVGID_9_);}
	.st21{fill:url(#SVGID_10_);}
	.st22{fill:url(#SVGID_11_);}
	.st23{opacity:0.1;fill:#3F3D56;enable-background:new    ;}
	.st24{fill:url(#SVGID_12_);}
	.st25{fill:#303D5C;}
	.st26{fill:#EE8E9E;}
	.st27{opacity:5.000000e-02;enable-background:new    ;}
	.st28{opacity:0.1;}
	.st29{fill:url(#SVGID_13_);}
</style>
<title>schedule</title>
<path class="st0" d="M913.6,577.1c0,0-12.3-8.1-24.5-2.3c0,0,3.8,7.2,19.2,6.5L913.6,577.1z"/>
<path class="st0" d="M915.2,577.6c0,0,3.7,14.2-5.6,23.9c0,0-5.6-5.9,0-20.3L915.2,577.6z"/>
<path class="st0" d="M930.5,563.9c0,0-0.9-12.1-28.3-8.1c0,0-0.1,7.8,9.5,11.5S925.7,567.9,930.5,563.9z"/>
<path class="st0" d="M932.2,563.8c0,0,11.6,3.7,1.3,29.4c0,0-7.6-1.7-9-11.9S927.2,567.5,932.2,563.8z"/>
<path class="st0" d="M947.7,546.6c0,0,1.6-19.9-26.4-17.9c0,0-2,18,21.5,22.7L947.7,546.6z"/>
<path class="st0" d="M966.1,524.1c0,0-3.8-22.6-31.8-15.8c0,0-0.1,19.5,27.2,21.2L966.1,524.1z"/>
<path class="st0" d="M979.6,500.9c0,0-6.4-22-34.1-15.4c0,0,6.6,19.8,32.3,19.5L979.6,500.9z"/>
<path class="st0" d="M992.4,478.2c0,0-6.3-22.8-33-16c0,0,8.9,21.7,31.2,19.9L992.4,478.2z"/>
<path class="st0" d="M1000.7,456.6c0,0-4.8-27.9-29.7-21.7c0,0,7.2,25.4,27.9,25.8L1000.7,456.6z"/>
<path class="st0" d="M1008.4,430.5c0,0-5.8-28.2-31-20c0,0,9.9,26.6,29.2,23.8L1008.4,430.5z"/>
<path class="st0" d="M1013.2,406.2c0,0-9.2-28.1-28.7-27.4c0,0,9.4,29.7,27,33L1013.2,406.2z"/>
<path class="st0" d="M1016.3,382.6c0,0-10-33.9-25.9-31.3c0,0,6.9,25.9,25.3,36.5L1016.3,382.6z"/>
<path class="st0" d="M1018,354.3c0,0-9.4-28.2-25-29.4c0,0,6.4,27.8,24.7,36.7L1018,354.3z"/>
<path class="st0" d="M1019.9,328c0,0-11.7-28.3-22-28.9c0,0,5.1,27.8,21,33.5L1019.9,328z"/>
<path class="st0" d="M1021.2,303.4c0,0-7.2-30.7-17.5-33.2c0,0,1.4,25.1,16.5,35.5L1021.2,303.4z"/>
<path class="st0" d="M1025.1,271.3c0,0-7.6-24.5-15.9-28.2c0,0,1.7,28.8,14,34.2L1025.1,271.3z"/>
<path class="st0" d="M1028.3,250.3l1.5-43.1c0,0-15.6,32.5-2.7,50.8L1028.3,250.3z"/>
<path class="st0" d="M1040.4,207.4c0,0,11.3-31.5,14-33.3c0,0-22.1,20.4-19.9,46.7L1040.4,207.4z"/>
<path class="st0" d="M948.4,546.5c0,0,19.8-2.6,19.2,25.4c0,0-17.9,2.9-23.8-20.3L948.4,546.5z"/>
<path class="st0" d="M967.1,523.4c0,0,22.9-0.1,21,28.6c0,0-19.2,3.4-25.6-23.2L967.1,523.4z"/>
<path class="st0" d="M979.8,502.7c0,0,20.8-9.8,34.1,15.4c0,0-19.2,8.1-35.9-11.3L979.8,502.7z"/>
<path class="st0" d="M992.9,478.4c0,0,21.3-10.4,33.8,14.2c0,0-22.2,7.6-35.5-10.3L992.9,478.4z"/>
<path class="st0" d="M1000.4,457.2c0,0,20.5-19.6,36.8,0.2c0,0-20.9,16.1-37.8,4.1L1000.4,457.2z"/>
<path class="st0" d="M1007.3,429.8c0,0,20.6-20,36.8,0.9c0,0-23.1,16.4-37.6,3.3L1007.3,429.8z"/>
<path class="st0" d="M1011.1,405.4c0,0,15.9-25,34.6-19.4c0,0-16.5,26.5-34.4,25.3L1011.1,405.4z"/>
<path class="st0" d="M1015.8,382.4c0,0,16-31.5,31.1-26c0,0-11.5,24.2-31.5,31.3L1015.8,382.4z"/>
<path class="st0" d="M1016.9,352.7c0,0,16.5-24.8,31.9-21.8c0,0-13.4,25.1-33.5,28.9L1016.9,352.7z"/>
<path class="st0" d="M1018.2,327.4c0,0,12.7-27.8,23.1-28c0,0-6.1,27.6-22.3,32.7L1018.2,327.4z"/>
<path class="st0" d="M1020.7,302.8c0,0,14.2-28.2,24.8-28.2c0,0-7.3,24.1-24.3,30.7L1020.7,302.8z"/>
<path class="st0" d="M1022.8,273.1c0,0,10.6-23.3,19.4-25.9c0,0-5.3,28.4-18.2,32.1L1022.8,273.1z"/>
<path class="st0" d="M1029.6,249.5l23.7-36.1c0,0-6.1,35.6-27.1,43L1029.6,249.5z"/>
<path class="st0" d="M1045.9,210.3c0,0,27.5-19,28.5-22.1c0,0-14,26.6-40,31.3L1045.9,210.3z"/>
<path class="st0" d="M1047.5,201.8c0,0,31.6-30.4,39.7-30.4c0,0-26.1,1.2-40.4,28.7L1047.5,201.8z"/>
<path class="st1" d="M1023.1,277.6l1.2,0.1c5.9-46.5,14.6-74,24.4-77.4l-0.4-1.1C1037.9,202.9,1029.2,229.9,1023.1,277.6z"/>
<path class="st1" d="M1014.4,388.8l1.7,0.1c0.4-4.3,0.6-8.8,0.8-13.2c1.7-38.5,4.2-73.8,7.6-100.3l-1-1.3
	c-3.4,26.5-6.7,63-8.3,101.5C1015.1,380,1014.8,384.4,1014.4,388.8z"/>
<path class="st1" d="M881.2,599.3c0.3-0.1,30.9-13.8,62.7-46.4c18.6-19.1,34.1-41,45.9-65c14.7-29.9,23.7-66.7,26.7-102.4l-1.8,0.9
	c-6.8,80.2-43.3,135-72.3,164.8c-31.5,32.3-61.8,45.9-62.1,46L881.2,599.3z"/>
<path class="st2" d="M1003.5,0H42.6c-4.7,0-8.6,3.8-8.6,8.6v24.9h978V8.6C1012.1,3.8,1008.2,0,1003.5,0z"/>
<path class="st3" d="M0,70.6v561.2c0,9.5,7.7,17.3,17.3,17.3l0,0h943.5c9.5,0,17.3-7.7,17.3-17.3l0,0V70.6H0z"/>
<path class="st4" d="M34.1,33.5v561.2c0,9.5,7.7,17.3,17.3,17.3l0,0h943.5c9.5,0,17.3-7.7,17.3-17.3l0,0V33.5H34.1z"/>
<circle class="st5" cx="49.6" cy="16.5" r="4"/>
<circle class="st6" cx="60.6" cy="16.5" r="4"/>
<circle class="st7" cx="71.6" cy="16.5" r="4"/>
<g>
	<rect x="71.6" y="67.5" class="st8" width="904" height="510"/>
	<rect x="189.6" y="67.5" class="st8" width="668" height="510"/>
	<rect x="307.6" y="67.5" class="st8" width="432" height="510"/>
	<rect x="425.6" y="67.5" class="st8" width="196" height="510"/>
	<line class="st8" x1="523.6" y1="67.5" x2="523.6" y2="577.5"/>
	<rect x="71.6" y="141.5" class="st8" width="904" height="362"/>
	<rect x="71.6" y="214.5" class="st8" width="904" height="216"/>
	<rect x="71.6" y="287.5" class="st8" width="904" height="70"/>
</g>
<rect x="213.1" y="96" class="st9" width="71" height="26"/>
<rect x="102.1" y="167" class="st9" width="53" height="26"/>
<rect x="328.1" y="96" class="st9" width="71" height="26"/>
<rect x="436.1" y="96" class="st9" width="71" height="26"/>
<rect x="536.1" y="96" class="st9" width="71" height="26"/>
<rect x="648.1" y="96" class="st9" width="71" height="26"/>
<rect x="762.1" y="96" class="st9" width="71" height="26"/>
<rect x="883.1" y="96" class="st9" width="71" height="26"/>
<linearGradient id="SVGID_1_" gradientUnits="userSpaceOnUse" x1="376.6551" y1="388.64" x2="376.6551" y2="433.3" gradientTransform="matrix(1 0 0 -1 0 670.24)">
	<stop  offset="0" style="stop-color:#808080;stop-opacity:0.25"/>
	<stop  offset="0.54" style="stop-color:#808080;stop-opacity:0.12"/>
	<stop  offset="1" style="stop-color:#808080;stop-opacity:0.1"/>
</linearGradient>
<rect x="353.6" y="236.9" class="st10" width="46.1" height="44.7"/>
<rect x="354.4" y="237.7" class="st2" width="44.5" height="43.1"/>
<linearGradient id="SVGID_2_" gradientUnits="userSpaceOnUse" x1="471.695" y1="398.32" x2="471.695" y2="442.98" gradientTransform="matrix(1 0 0 -1 0 670.24)">
	<stop  offset="0" style="stop-color:#808080;stop-opacity:0.25"/>
	<stop  offset="0.54" style="stop-color:#808080;stop-opacity:0.12"/>
	<stop  offset="1" style="stop-color:#808080;stop-opacity:0.1"/>
</linearGradient>
<rect x="448.6" y="227.3" class="st11" width="46.1" height="44.7"/>
<rect x="449.4" y="228" class="st12" width="44.5" height="43.1"/>
<linearGradient id="SVGID_3_" gradientUnits="userSpaceOnUse" x1="654.6951" y1="246.32" x2="654.6951" y2="290.98" gradientTransform="matrix(1 0 0 -1 0 670.24)">
	<stop  offset="0" style="stop-color:#808080;stop-opacity:0.25"/>
	<stop  offset="0.54" style="stop-color:#808080;stop-opacity:0.12"/>
	<stop  offset="1" style="stop-color:#808080;stop-opacity:0.1"/>
</linearGradient>
<rect x="631.6" y="379.3" class="st13" width="46.1" height="44.7"/>
<rect x="632.4" y="380" class="st12" width="44.5" height="43.1"/>
<linearGradient id="SVGID_4_" gradientUnits="userSpaceOnUse" x1="248.4351" y1="468.23" x2="248.4351" y2="512.89" gradientTransform="matrix(1 0 0 -1 0 670.24)">
	<stop  offset="0" style="stop-color:#808080;stop-opacity:0.25"/>
	<stop  offset="0.54" style="stop-color:#808080;stop-opacity:0.12"/>
	<stop  offset="1" style="stop-color:#808080;stop-opacity:0.1"/>
</linearGradient>
<rect x="225.4" y="157.4" class="st14" width="46.1" height="44.7"/>
<rect x="226.2" y="158.1" class="st12" width="44.5" height="43.1"/>
<linearGradient id="SVGID_5_" gradientUnits="userSpaceOnUse" x1="340.0951" y1="404.23" x2="340.0951" y2="448.89" gradientTransform="matrix(1 0 0 -1 0 670.24)">
	<stop  offset="0" style="stop-color:#808080;stop-opacity:0.25"/>
	<stop  offset="0.54" style="stop-color:#808080;stop-opacity:0.12"/>
	<stop  offset="1" style="stop-color:#808080;stop-opacity:0.1"/>
</linearGradient>
<rect x="317" y="221.4" class="st15" width="46.1" height="44.7"/>
<rect x="317.8" y="222.1" class="st16" width="44.5" height="43.1"/>
<linearGradient id="SVGID_6_" gradientUnits="userSpaceOnUse" x1="708.655" y1="246.64" x2="708.655" y2="291.3" gradientTransform="matrix(1 0 0 -1 0 670.24)">
	<stop  offset="0" style="stop-color:#808080;stop-opacity:0.25"/>
	<stop  offset="0.54" style="stop-color:#808080;stop-opacity:0.12"/>
	<stop  offset="1" style="stop-color:#808080;stop-opacity:0.1"/>
</linearGradient>
<rect x="685.6" y="378.9" class="st17" width="46.1" height="44.7"/>
<rect x="686.4" y="379.7" class="st2" width="44.5" height="43.1"/>
<linearGradient id="SVGID_7_" gradientUnits="userSpaceOnUse" x1="789.655" y1="467.64" x2="789.655" y2="512.3" gradientTransform="matrix(1 0 0 -1 0 670.24)">
	<stop  offset="0" style="stop-color:#808080;stop-opacity:0.25"/>
	<stop  offset="0.54" style="stop-color:#808080;stop-opacity:0.12"/>
	<stop  offset="1" style="stop-color:#808080;stop-opacity:0.1"/>
</linearGradient>
<rect x="766.6" y="157.9" class="st18" width="46.1" height="44.7"/>
<rect x="767.4" y="158.7" class="st2" width="44.5" height="43.1"/>
<linearGradient id="SVGID_8_" gradientUnits="userSpaceOnUse" x1="784.655" y1="325.64" x2="784.655" y2="370.3" gradientTransform="matrix(1 0 0 -1 0 670.24)">
	<stop  offset="0" style="stop-color:#808080;stop-opacity:0.25"/>
	<stop  offset="0.54" style="stop-color:#808080;stop-opacity:0.12"/>
	<stop  offset="1" style="stop-color:#808080;stop-opacity:0.1"/>
</linearGradient>
<rect x="761.6" y="299.9" class="st19" width="46.1" height="44.7"/>
<rect x="762.4" y="300.7" class="st2" width="44.5" height="43.1"/>
<linearGradient id="SVGID_9_" gradientUnits="userSpaceOnUse" x1="819.655" y1="315.64" x2="819.655" y2="360.3" gradientTransform="matrix(1 0 0 -1 0 670.24)">
	<stop  offset="0" style="stop-color:#808080;stop-opacity:0.25"/>
	<stop  offset="0.54" style="stop-color:#808080;stop-opacity:0.12"/>
	<stop  offset="1" style="stop-color:#808080;stop-opacity:0.1"/>
</linearGradient>
<rect x="796.6" y="309.9" class="st20" width="46.1" height="44.7"/>
<rect x="797.4" y="310.7" class="st0" width="44.5" height="43.1"/>
<linearGradient id="SVGID_10_" gradientUnits="userSpaceOnUse" x1="672.095" y1="262.23" x2="672.095" y2="306.89" gradientTransform="matrix(1 0 0 -1 0 670.24)">
	<stop  offset="0" style="stop-color:#808080;stop-opacity:0.25"/>
	<stop  offset="0.54" style="stop-color:#808080;stop-opacity:0.12"/>
	<stop  offset="1" style="stop-color:#808080;stop-opacity:0.1"/>
</linearGradient>
<rect x="649" y="363.4" class="st21" width="46.1" height="44.7"/>
<rect x="649.8" y="364.1" class="st16" width="44.5" height="43.1"/>
<linearGradient id="SVGID_11_" gradientUnits="userSpaceOnUse" x1="677.095" y1="397.23" x2="677.095" y2="441.89" gradientTransform="matrix(1 0 0 -1 0 670.24)">
	<stop  offset="0" style="stop-color:#808080;stop-opacity:0.25"/>
	<stop  offset="0.54" style="stop-color:#808080;stop-opacity:0.12"/>
	<stop  offset="1" style="stop-color:#808080;stop-opacity:0.1"/>
</linearGradient>
<rect x="654" y="228.4" class="st22" width="46.1" height="44.7"/>
<rect x="654.8" y="229.1" class="st16" width="44.5" height="43.1"/>
<rect x="102.1" y="237" class="st23" width="53" height="26"/>
<rect x="102.1" y="310" class="st23" width="53" height="26"/>
<rect x="102.1" y="383" class="st23" width="53" height="26"/>
<rect x="102.1" y="456" class="st23" width="53" height="26"/>
<rect x="102.1" y="529" class="st23" width="53" height="26"/>
<linearGradient id="SVGID_12_" gradientUnits="userSpaceOnUse" x1="77.17" y1="154.3062" x2="299.7452" y2="154.3062" gradientTransform="matrix(1 0 0 -1 -33.81 603.81)">
	<stop  offset="0" style="stop-color:#808080;stop-opacity:0.25"/>
	<stop  offset="0.54" style="stop-color:#808080;stop-opacity:0.12"/>
	<stop  offset="1" style="stop-color:#808080;stop-opacity:0.1"/>
</linearGradient>
<path class="st24" d="M263.1,302.2c1.5-0.9,0.9-3.5-0.6-4.3s-3.4-0.6-5.1-0.2c0.1-0.9-0.3-1.8-1.1-2.2v-0.4c1-1,0.6-3-0.6-3.9
	c-1.2-0.9-3.1-0.9-4.8-0.8c0.2-2-0.5-4-2-5.4c-0.3-0.3-0.7-0.5-1.1-0.5c-1,0-1.3,1.3-1.4,2.2c-0.2,2.5-0.6,5-1.2,7.4l-31.1,52
	c-3.5,5,7.3-10,3.8-5c-1.8,2.7-3.8,5.3-6.1,7.6c-2.1,1.9-4.4,3.4-6.9,4.6c-1.7,0-3.3-0.4-4.7-1.3c-1.8-1.2-3.3-2.7-4.5-4.5
	c-2.7-3.4-5.2-7.1-7.3-10.9c-0.8-1.2-1.3-2.5-1.7-3.9c-0.5-2.2,0-4.5-0.9-6.5c-0.4-0.8-0.8-1.5-1.3-2.1l-2.1-2.9v-0.1
	c-0.2-4.2-3.7-7.5-6.9-10.3c-2.7-2.4-5.7-4.9-9.3-5.3c-1.9-0.3-3.9,0.1-5.8-0.1c-1.6-0.2-3.1-0.8-4.6-1c-1.5-0.2-3-0.2-4.5-0.1
	l-0.6-0.6c3.3-1.4,6.1-3.8,8.1-6.8c1.5-2.4,2.3-5.1,3.7-7.6c1.7-3,4.1-5.5,6-8.4c4.5-6.8,5.3-15.6,3.5-23.6s-6.1-15.2-11-21.6
	c-9.6-12.4-25.7-17-40.9-14.6c-1,0.2-2,0.4-3,0.6c-2.6,0.5-5,1.3-7.4,2.4c-3.2,1.3-6,3.5-8.1,6.3c-0.6,0.8-1,1.7-1.4,2.6
	c-0.3,0.7-0.5,1.4-0.7,2.2c-0.5,2.2-0.6,4.5-0.4,6.8c0.1,0.8,0.1,1.5,0.2,2.3l0.1,1.2c0.1,0.8,0.2,1.5,0.3,2.3
	c0.2,1.2,0.3,2.3,0.4,3.5c0.1,0.8,0.1,1.6,0.1,2.4c0,0.2,0,0.4,0,0.6c0,0.6-0.1,1.2-0.3,1.8c-0.1,0.3-0.2,0.6-0.3,1
	c-0.4,0.9-0.8,1.8-1.4,2.6c-0.8,1.1-1.6,2.1-2.5,3.1l-0.9,1c-0.3,0.3-0.6,0.7-0.9,1c-1.1,1.3-2.2,2.7-3.1,4.2
	c-0.5,0.7-0.9,1.5-1.2,2.3c-0.3,0.6-0.5,1.2-0.7,1.9c-0.3,0.8-0.4,1.7-0.5,2.6c0,0.2,0,0.4-0.1,0.7c0,0.4,0,0.9,0,1.3
	c0,0.4,0.1,0.9,0.1,1.3c0.1,0.4,0.2,0.8,0.3,1.3c0.1,0.4,0.3,0.8,0.5,1.2c0,0.1,0.1,0.2,0.2,0.3l0.2,0.3c0.1,0.2,0.2,0.4,0.3,0.6
	c0.2,0.3,0.3,0.7,0.3,1c0,0.1,0,0.2,0,0.4s0,0.3,0,0.4c-0.2,1-0.7,1.9-1.5,2.5c-0.2,0.2-0.4,0.4-0.6,0.5l-0.3,0.3l-0.6,0.5l-0.6,0.5
	c-0.5,0.5-1,1-1.5,1.5c-5.6-0.3-11.3,0.3-16.7,1.6c-1.9,0.6-4,1-6,1.1c-1,0.1-2-0.3-2.6-1.1c-0.3-0.7-0.4-1.6-0.3-2.4
	c0.3-3.3-0.3-6.7-1.6-9.8c-0.3-0.9-0.9-1.7-1.6-2.3c-0.8-0.6-1.8-0.7-2.7-0.1c1.7,5.5,1.4,11.4-0.7,16.7c-1.1,2.5-2.4,4.9-3.8,7.2
	c-2.3,3.9-3.6,8.3-5.6,12.4c2.3,7.7,1.8,15.9,3,23.8c1.1,7.4,3.7,14.5,6.3,21.5c2,5.3,4.1,10.8,8.3,14.5c1.4,1.4,3.2,2.2,5.1,2.2
	c1.4-0.2,2.8-0.7,4-1.5c1.2-0.7,2.4-1.5,3.4-2.5c0.4-0.4,0.7-0.9,1-1.3c0.1,0.7,0.4,1.3,0.8,1.9c2.4-5.3,5.1-10.4,8-15.4
	c0.9-0.5,1.7-1,2.4-1.6c0,0.2,0.1,0.4,0.1,0.5c-0.1,0.5-0.3,1-0.4,1.5s-0.3,0.9-0.4,1.4s-0.2,0.7-0.3,1s-0.3,0.8-0.4,1.2
	s-0.3,0.9-0.5,1.3s-0.2,0.6-0.4,0.9c-0.3,0.8-0.6,1.5-1,2.2c0.3,0.1,0.6,0.3,0.9,0.4l0.2,0.1c0.3,0.1,0.5,0.1,0.8,0.2h0.3
	c0.2,0,0.4,0.1,0.6,0.1h0.2H86c0.7,0,1.4-0.2,2.1-0.4l0.4,1.6c1,3.6,1.6,7.3,1.9,11c0.2,4.2-0.5,8.5,0.3,12.6
	c0.4,2.1,1.2,4.2,1.5,6.4c0.2,2,0.2,4.1-0.1,6.1c-0.5,4.9-0.9,9.8-1.4,14.7c0,1.8-0.5,3.6-1.3,5.2c-0.7,1.2-1.8,2.6-1.1,3.8
	c1.2-0.3,2.3-0.5,3.5-0.7c-0.4,1.6-0.8,3.1-1.2,4.7c-0.4,1.2-0.5,2.4-0.3,3.6c0.3,1.1,1,2.2,1.1,3.3c0.2,1.8-1.1,3.4-1.8,5.1
	c-1.8,4.3,0.1,9.1,2,13.3l5.5,12.5l4.5,10.3c1.3,3,2.7,6.1,4,9.2c5.9,14,10.7,28.5,14.4,43.2c0.1,0.7,0.4,1.3,0.8,1.9
	c0.8,1,2.1,1.3,3.3,1.9c3.4,1.9,3.8,7.5,0.7,9.8c0.6,7.5-5,14.8-7.9,21.8c-6.7,16-5.5,34.1-7.8,51.3l2.6-1.5
	c0.3,0.1,0.6,0.3,0.8,0.5c-0.1,0.3-0.1,0.7-0.2,1c-0.4,1.5-0.9,2.9-1.7,4.2c-1.5,2.6-3.8,4.9-4.2,7.9c-0.2,1.8,0.3,3.6,0.3,5.4
	c0,0.2,0,0.3,0,0.5c-0.2-0.2-0.6-0.2-1.1,0.2c-0.8,0.9-1.4,1.9-1.6,3.1c-0.4,1.3-0.8,2.6-1.2,3.9l-1.3,4.6c-0.7,2.8-1.6,5.5-2.7,8.2
	c-1,1.8-1.8,3.6-2.4,5.5c-0.4,1.6-0.5,3.1-0.4,4.7c0,1.5,0.2,3,0.6,4.5c1.2,2.9,3.6,5.2,6.6,6.2c2.9,1,6,1.6,9.1,1.7
	c0.8,0.1,1.6,0.1,2.4-0.1c0.8-0.2,1.6-0.7,2.3-1.2c4.2-3.1,6.4-8.8,6.8-14c-0.1-1.1-0.3-2.1-0.6-3.2c0.3-5.7-0.6-11.4-0.1-17.1
	c0.1,0.7,0.2,1.3,0.3,1.9l1,6.4c-0.1-0.2-0.2-0.4-0.3-0.6c-0.7,2.4-0.9,4.9-0.4,7.3c0.5,2.4,1.2,4.8,2.1,7.1l1.4,3.8
	c0.3,1.1,0.9,2.2,1.6,3.2c1.2,1.3,3,1.8,4.7,2.2c3.7,1.1,7.6,1.8,11.5,2c0.5,0.1,1,0,1.5-0.3c0.2-0.2,0.5-0.4,0.7-0.6
	c0.3-0.2,0.7-0.5,1.1-0.6c1.7-0.9,2.9-2.4,3.5-4.2c0.6-1.8,0.3-3.8-0.6-5.4c-0.5-0.7-1-1.3-1.6-1.9l-6.8-7.3c-1-1.2-2.2-2.4-3.3-3.5
	c-0.3-0.3-0.7-0.4-1.1-0.4c-1.9-4.6-1.6-10.1-1.3-15.2c0.1-1.5,0.9-4.7,1.3-7.3c1.3-0.4,2.5-1.1,3.6-2c1-0.8,1.8-1.9,2.1-3.1
	c3.4-17.6,9-34.7,14.2-51.9c0.5-1.7,1-3.4,1.5-5.1c0.2-0.7,0.4-1.5,0.6-2.2s0.4-1.2,0.5-1.8c0.3-1,0.6-2,0.8-3
	c0.1-0.3,0.1-0.5,0.2-0.8c0-0.1,0-0.1,0-0.2c0.3-1.2,0.6-2.5,1-3.7c0.1-0.5,0.3-0.9,0.4-1.4c0.4-1.6,0.8-3.1,1.1-4.7
	c0.1-0.2,0.1-0.4,0.1-0.7c0.1-0.6,0.1-1.1-0.1-1.7l0,0l0,0c-0.1-0.2-0.2-0.4-0.4-0.6c-0.1-0.1-0.2-0.3-0.4-0.4s-0.3-0.3-0.4-0.4
	c-0.3-0.4-0.6-0.8-0.7-1.3c0-0.5,0-1,0-1.4s-0.1-1-0.1-1.5c0.1-0.7,0.3-1.3,0.4-2c0.1-0.4,0.3-0.8,0.4-1.2s0.3-1,0.5-1.5
	c0.6-0.7,0.9-1.6,0.9-2.5c0.6-1.5,1.3-3.1,2.1-4.5c0.9-1.5,1.5-3.2,1.8-4.9c0-1.6-0.2-3.1-0.6-4.7c-1-6.5,2-12.8,4.2-19
	c1.6-4.6,2.9-9.2,3.7-14c0.6-3.7,1.1-7.5,3.1-10.6c0.6-0.9,1.2-1.8,1.6-2.8c0.3-1,0.5-2.1,0.4-3.2c0.2-4.4,1.3-8.7,3.1-12.8
	c0.4-0.8,0.7-1.6,0.8-2.5c0-0.1,0-0.1,0-0.2v-0.2l0.5-0.1c0.9-5.5,1.8-11.7,1.1-17.2c-0.8-6.4-3.9-12.3-8.8-16.6h0.1
	c1.7-0.9,2.5-3,2.5-4.9c0-2.9-1.3-5.6-3.5-7.4c-0.5-0.3-0.9-0.7-1.2-1.2c-0.2-0.5-0.2-1.1-0.1-1.6c0-3.3-2-6.4-5.1-7.6
	c-0.3-0.1-0.6-0.3-0.8-0.5c-0.3-0.4-0.3-1-0.2-1.5c0.2-3.3-1.5-6.5-4.3-8.2c0.4-2.1,0.8-4.4,0.2-6.5s-2.6-4-4.7-3.7
	c1.8-4.8-0.7-10.1-0.1-15.2c0.3-2.2,1.2-4.3,1.3-6.5c0.1-2-0.4-4.1,0.6-5.9s3.3-3.1,2.7-5c-0.3-0.8-1-1.4-1.4-2.2s1.1-2,1.8-1.6
	c0.3-0.3,0.7-0.5,1-0.8c0.1,1,0.3,2,0.6,3c0.5,1.6,1.2,3.2,1.8,4.8c0.8,2.5,1,5.2,2.3,7.5c2,3.6,6.2,5.5,9.1,8.5
	c1.7,1.8,2.9,4,4.6,5.7c1.3,1.2,2.8,2.3,4.3,3.2l9.2,6c1,0.7,2,1.2,3.2,1.6c2.9,0.6,5.7-1.4,6.3-4.3c0-0.1,0-0.2,0-0.3
	c-0.8-0.3-1.6-0.8-2.3-1.4c0.1,0,0.3,0,0.4-0.1c2.2-0.6,4.2-1.7,5.9-3.1c6.6-5.2,11.3-12.4,15.9-19.4c4.8-7.4,28.1-26.9,28.1-26.9
	v-7.9c3-1.7,5.6-4,7.8-6.6c1.2-1.4,1.9-3.2,2-5C266,304.6,264.9,302.9,263.1,302.2z M69.4,321.2c-0.4,2.9-1,5.7-1.6,8.6
	c-0.7,3.3-1.6,6.5-2.8,9.7l-0.4,1c-0.3-0.6-0.7-1.2-1-1.9c-0.8-1.6-1.4-3.2-2-4.8l-3.9-10.4c-0.5-1.4-1-2.9-0.3-4.1
	c0.5-0.8,1.3-1.3,2.2-1.6c2.7-1.2,5.5-2.2,8.5-2.9c0.9-0.2,1.8-0.4,2.7-0.7C70.2,316.3,69.7,318.7,69.4,321.2L69.4,321.2z
	 M73.6,308.2c-0.3-0.5-0.3-1,0-1.5c0.3-0.3,0.6-0.5,1-0.7l0.3-0.2C74.5,306.6,74.1,307.4,73.6,308.2L73.6,308.2z M81.6,296.8
	c-1.1,0.9-2.2,2-3.1,3.2c-1,1.3-1.9,2.7-2.6,4.1c0.2-1.1-0.2-2.3-1.1-3c-0.4-0.2-0.7-0.4-1-0.7c-0.7-0.9-0.5-2.2,0.4-2.9l0,0
	c0.9-0.6,2-1,3.1-1.1l4.6-0.7C81.8,296.1,81.7,296.5,81.6,296.8L81.6,296.8z M124.8,631.5c0.1-1.4,0-2.8-0.3-4.1c0.6,0,1.1,0,1.7,0
	C125.8,628.7,125.3,630.1,124.8,631.5z"/>
<path class="st25" d="M120.1,224c-8,1.3-16.9,4.4-20,11.9c-2.3,5.7-0.5,12,0.1,18.1c0.2,1.6,0.2,3.2-0.2,4.8
	c-0.7,2.6-2.5,4.6-4.2,6.6c-2.4,2.5-4.5,5.4-6.1,8.5c-1.4,3.2-1.9,7-0.4,10.2c0.5,0.8,0.8,1.7,1,2.7c0.1,2.1-2.1,3.4-3.7,4.7
	c-6,5-5.8,14-5.8,21.8c-0.1,16-3.6,31.7-10.4,46.2c5.2,2.6,11.4,1.8,15.8-2.1c-0.8,3.6-2,7-3.6,10.3c5.1,2.5,11.2-1.6,13.8-6.6
	s2.9-10.9,4.7-16.3s5-10,6.4-15.4c0.4-1.8,0.7-3.7,1.8-5.2c0.9-1.1,2-2,3.2-2.7c5.3-3.8,9.2-9.2,11.3-15.3
	c6.2,1.4,12.6,2.8,18.9,2.2s12.8-3.5,16.2-8.9c1.5-2.4,2.3-5.1,3.6-7.6c1.7-3,4.1-5.5,6-8.4c4.5-6.8,5.3-15.6,3.5-23.6
	s-6-15.2-11-21.6C151.4,226.2,135.3,221.6,120.1,224z"/>
<path class="st0" d="M69.6,324c-0.4,2.9-1,5.7-1.6,8.5c-0.7,3.3-1.6,6.5-2.8,9.7c-0.7,1.4-1,2.9-0.9,4.4c0.2,0.9,0.6,1.8,1.1,2.6
	c3.6,6.5,8.6,12.8,9,20.2c0.1,1.9,0,3.9,1,5.4c2.8-6.1,5.9-12,9.3-17.8c3.6-6,7.5-12.1,8.5-19.1c0.4-3.3,0.4-6.6-0.1-9.8
	c-0.5-3.6-1.3-7.4-3.5-10.3c-2.4-3.2-9-7.9-13.3-6.9C71.3,312.2,70.3,320,69.6,324z"/>
<path class="st26" d="M198.5,359c4.8-2,9.7-4,13.5-7.5c2.3-2.3,4.4-4.8,6.1-7.6l11.2-16.2c2.7-3.9,5.4-7.9,6-12.6
	c6.6-7,10.6-16,11.2-25.5c0.1-1,0.4-2.2,1.4-2.2c0.4,0,0.8,0.2,1.1,0.5c1.5,1.4,2.2,3.4,2,5.4c1.6-0.1,3.4-0.1,4.8,0.8
	c1.3,1,1.7,3.3,0.3,4.1c1,0.3,1.6,1.3,1.4,2.3c1.7-0.3,3.6-0.6,5.1,0.2s2.1,3.4,0.6,4.3c1.8,0.7,2.9,2.4,2.9,4.3
	c-0.1,1.8-0.8,3.6-2,5c-4.3,5.8-11.9,8.1-17,13.4c-1.6,1.8-3.1,3.8-4.4,5.9l-14.5,22.1c-4.6,7-9.3,14.2-15.9,19.4
	c-1.7,1.5-3.7,2.6-5.9,3.1c-2.2,0.6-4.6-0.1-6.2-1.7c-1.5-1.6-1.7-4-1.8-6.2C198.1,366.6,198.8,362.8,198.5,359z"/>
<path class="st25" d="M149.9,665.7c0.6,0.6,1.1,1.2,1.6,1.9c1,1.6,1.2,3.6,0.6,5.4c-0.6,1.8-1.8,3.3-3.5,4.2
	c-0.4,0.2-0.8,0.4-1.1,0.6c-0.2,0.2-0.4,0.4-0.7,0.6c-0.5,0.2-1,0.3-1.5,0.3c-3.9-0.2-7.7-0.9-11.5-2c-1.7-0.4-3.5-0.9-4.7-2.2
	c-0.7-0.9-1.3-2-1.6-3.2l-1.4-3.8c-0.9-2.3-1.6-4.7-2.1-7.1c-0.5-2.4-0.4-4.9,0.4-7.3c0.3,0.4,0.5,0.9,0.5,1.5
	c0.4,2.6,1.4,5,2.9,7.1c0.3,0.5,0.7,1,1.1,1.4c1,0.8,2.2,1.3,3.4,1.4c2.4,0.5,4.8,0.8,7.3,0.9c0.3,0,0.7,0,1-0.1
	c0.4-0.2,0.7-0.6,0.8-1c0.3-1,0.3-2,0-3c-0.7-1.8-2.5-3.1-3.3-4.8c-0.6-1.3,0.2-2.7,1.6-1.6c1.2,1.1,2.3,2.3,3.4,3.5L149.9,665.7z"
	/>
<path class="st26" d="M137.3,639.4c-0.4,6.1-0.7,12.7,2.7,17.8c1.2,1.8,2.8,3.4,4.2,5.1c0.8,0.9,1.3,1.9,1.5,3.1
	c0.2,2.2-1.9,4.2-4.1,4.6s-4.5-0.3-6.6-1c-2-0.5-3.9-1.4-5.6-2.6c-2.9-2.5-3.7-6.6-4.3-10.3l-1.4-8.7c-1-4.4-0.6-9.1,1.2-13.2
	l2.2-6.6c0.1-0.6,0.5-1.2,1-1.6c0.5-0.3,1.1-0.4,1.7-0.3c2.1,0.1,7.6,0.9,8.6,3.2C139.4,630.8,137.5,637.1,137.3,639.4z"/>
<path class="st27" d="M137.3,639.4c-0.4,6.1-0.7,12.7,2.7,17.8c1.2,1.8,2.8,3.4,4.2,5.1c0.8,0.9,1.3,1.9,1.5,3.1
	c0.2,2.2-1.9,4.2-4.1,4.6s-4.5-0.3-6.6-1c-2-0.5-3.9-1.4-5.6-2.6c-2.9-2.5-3.7-6.6-4.3-10.3l-1.4-8.7c-1-4.4-0.6-9.1,1.2-13.2
	l2.2-6.6c0.1-0.6,0.5-1.2,1-1.6c0.5-0.3,1.1-0.4,1.7-0.3c2.1,0.1,7.6,0.9,8.6,3.2C139.4,630.8,137.5,637.1,137.3,639.4z"/>
<path class="st25" d="M185.4,458.3c0,0.1,0,0.1,0,0.2c-0.1,0.9-0.4,1.7-0.8,2.5c-1.8,4-2.9,8.3-3.2,12.7c0,1.1-0.1,2.2-0.4,3.2
	c-0.4,1-1,1.9-1.6,2.8c-2,3.2-2.4,7-3.1,10.6c-0.8,4.7-2.1,9.4-3.7,13.9c-2.2,6.2-5.2,12.5-4.2,19c0.4,1.5,0.6,3.1,0.6,4.7
	c-0.3,1.7-0.9,3.4-1.8,4.9c-0.7,1.5-1.4,3-2,4.5c-0.6,1.7-1.2,3.4-1.7,5.1c-0.6,2.1-1,4.6,0.4,6.3c0.4,0.4,0.8,0.9,1.1,1.4
	c0.3,0.8,0.3,1.6,0,2.4c-0.8,3.3-1.6,6.7-2.5,10c-0.7,2.6-1.4,5.2-2.2,7.8c-5.6,18.9-12,37.5-15.8,56.9c-0.5,2.8-4.1,4.8-6.9,5.4
	c-2.8,0.6-5.8-0.2-7.9-2.1c-0.2-0.2-0.4-0.4-0.5-0.5c-2.9-3.1-3.3-7.9-3.1-12.2c1-19.9,11-38.1,15.8-57.4c1.7-7,2.8-14.1,3.1-21.3
	c1.1-24,1.6-49.4-5.2-72.5c-1.4-4.8-3.1-10.2-0.5-14.5c1.6-2.7,4.6-4.3,7.5-5.5c12.1-4.7,25.6-4.4,37.5,1c0,0.5,0,1-0.1,1.4
	c-0.3,2.2,0,4.5,0.8,6.6C185.1,456.4,185.3,457.3,185.4,458.3z"/>
<path class="st25" d="M103.2,645.6l-1.3,4.6c-0.7,2.8-1.6,5.5-2.7,8.1c-1,1.8-1.8,3.6-2.4,5.5c-0.4,1.6-0.5,3.1-0.4,4.7
	c0,1.5,0.2,3,0.6,4.5c1.2,2.9,3.6,5.1,6.5,6.2c2.9,1,6,1.6,9.1,1.7c0.8,0.1,1.6,0.1,2.4-0.1c0.8-0.2,1.6-0.7,2.3-1.2
	c4.2-3.1,6.4-8.8,6.8-14c-0.1-1.2-0.3-2.4-0.7-3.6c-0.3-0.4-3.5,1.4-2.1,2.9c2,2.2-3.9,1.1-6.9,0.9c-1.3-0.1-2.6-0.3-3.9-0.6l-4.9-1
	c-1.6-0.3-3.4-0.9-4-2.4s0.7-3.3,1.6-4.8c2.5-3.9,3.2-8.7,3.8-13.4c0.1-0.9,1.3-6.8-1.1-5c-0.8,0.9-1.4,1.9-1.6,3.1
	C103.9,643,103.5,644.3,103.2,645.6z"/>
<path class="st27" d="M163.7,548.8c-1.4-1.7-1-4.2-0.4-6.3c0.2-0.8,0.5-1.5,0.7-2.3l-19.1-6.5c-0.1,1.7-0.1,3.4-0.2,5.1
	c-0.3,7.2-1.4,14.3-3.1,21.3c-4.8,19.3-14.8,37.5-15.8,57.4c-0.2,4.6,0.3,9.7,3.6,12.8c2.1,1.9,5.1,2.7,7.9,2.1
	c2.8-0.6,6.3-2.6,6.9-5.4c3.8-19.3,10.1-38,15.8-56.9c1.8-5.9,3.3-11.8,4.7-17.7c0.3-0.8,0.3-1.6,0-2.3
	C164.5,549.7,164.1,549.2,163.7,548.8z"/>
<path class="st26" d="M111,624.6c-1.5,2.6-3.8,4.9-4.2,7.9c-0.2,1.8,0.3,3.6,0.3,5.4c-0.1,1.5-0.3,3-0.8,4.4
	c-1.9,6.7-4,13.3-6.4,19.9c-0.4,0.8-0.6,1.8-0.5,2.7c0.2,1.5,1.7,2.5,3.1,3.2c4.6,1.9,9.7,1.8,14.6,1.6c1.4,0.1,2.9-0.3,4.1-1
	c1.8-1.2,2.2-3.6,2.3-5.7c0.3-6.2-0.7-12.4,0-18.6c0.3-2.3,0.7-4.5,1.1-6.7c0.5-3.1,0.7-6.4-0.3-9.3c-0.8-2.1-2-4.1-3.5-5.9
	c-1.3-1.9-2.9-3.5-4.9-4.8c-0.6-0.3-2.2-1.4-2.8-0.7c-0.3,0.3-0.2,1.3-0.2,1.7c-0.1,0.6-0.2,1.3-0.3,1.9
	C112.3,621.9,111.8,623.3,111,624.6z"/>
<path class="st27" d="M147.7,466c-0.9,1.2-0.7,2.9-0.4,4.3c0.6,2.6,1.7,5.2,2.6,7.7c1.4,4.6,2.5,9.3,3.3,14.1
	c0.8,4.3,2.5,9.1,1.8,13.4c5.2,9.9,8.6,20.7,10.1,31.8c0.4,2.8-5.9,6.5-5.8,9.4c0.2,5.7,4.8,6.2,1.4,10.7c-0.2,0.2,1.3,5.3,1.1,5.6
	c-1.4,1.7-3.1,3-4.6,4.5c-1.9,2.1-3.5,4.5-4.8,7.1c-8.7,15.7-21.3,33.5-17.4,51.1c0.2,1.3-0.5,2.6-1.7,3.2c-1.1,0.6-2.4,0.8-3.7,0.8
	H129c-2.9-3.1-3.3-7.9-3.1-12.2c1-19.9,11-38.1,15.8-57.4c1.7-7,2.8-14.1,3.1-21.3c1.1-24,1.6-49.4-5.2-72.5
	c-1.4-4.8-3.1-10.2-0.5-14.5c1.6-2.7,4.6-4.3,7.5-5.5c12.1-4.7,25.6-4.4,37.5,1c0,0.5,0,1-0.1,1.4c-0.3,2.2,0,4.5,0.8,6.6
	c0.4,0.9,0.7,1.9,0.8,2.9c0,0,0.3-3.9,0.3-3.8c-7.8,1.1-15.9,6.2-23.8,7.3c-4.1,0.4-8,1.3-11.9,2.6
	C149.1,464.8,148.3,465.3,147.7,466z"/>
<path class="st25" d="M93.7,423.5c-1,3.3-2,6.7-2.8,10.1c-0.4,1.2-0.5,2.4-0.3,3.6c0.3,1.1,1,2.2,1.1,3.3c0.2,1.8-1.1,3.4-1.8,5.1
	c-1.8,4.3,0.1,9,2,13.3l5.5,12.5l4.5,10.3c1.4,3,2.7,6.1,4,9.2c5.9,14,10.7,28.4,14.4,43.2c0.1,0.7,0.4,1.3,0.7,1.9
	c0.8,1,2.2,1.3,3.3,1.9c3.4,1.9,3.8,7.4,0.7,9.8c0.6,7.5-5,14.8-7.9,21.7c-6.7,16-5.5,34-7.8,51.2l2.6-1.5c2.5,1.1,2.4,4.7,3.7,7.1
	c2,3.6,6.9,4.1,11,3.8c1.3,0,2.5-0.3,3.7-0.8c1.2-0.6,1.8-1.9,1.7-3.2c-3.9-17.5,8.7-35.4,17.4-51.1c1.3-2.5,2.9-4.9,4.8-7.1
	c1.5-1.6,3.2-2.9,4.6-4.5c3.8-4.6,4.3-11.1,4.1-17.1c-0.6-14.1-4.3-27.9-10.9-40.4c0.7-4.3-1-9.1-1.8-13.4
	c-0.8-4.8-1.9-9.5-3.3-14.1c-0.9-2.6-1.9-5.1-2.6-7.8c-0.4-1.5-0.5-3.1,0.4-4.3c0.7-0.7,1.5-1.3,2.5-1.6c3.9-1.3,7.9-2.2,11.9-2.6
	L186,458c0.9-5.5,1.7-11.7,1.1-17.2c-1.3-10.5-8.8-19.2-18.9-22.1c-1.2-0.3-2.5-0.5-3.5,0.2C141,414.3,116.5,415.8,93.7,423.5z"/>
<path class="st26" d="M118,278.6c0.4,2.6,0,5.3-1.2,7.7c-0.8,1.3-1.8,2.4-3,3.4c-2.6,2.1-5.6,3.6-8.8,4.4c-1.9,0.5-4,0.8-5.3,2.3
	c-1.9,2.3-0.6,5.7,1,8.2c2.8,4.3,6.6,8.2,11.6,9.6c4,1.1,8.2,0.4,12.2,1.1c2.9,0.5,5.7,1.7,8.6,2.4c8.4,1.9,17.1-0.5,23.3-6.5
	c-4.3-3.3-8.8-6.8-11-11.8c-1.6-3.5-1.9-7.5-0.8-11.2c1-3.7,3.4-7.2,2.6-11s-4.4-6.3-8-7.6c-3.3-1-6.7-1.7-10.1-2
	c-1.9-0.3-13.9-2.9-14.6-1.6c-0.4,0.7,2.1,5.1,2.4,6.1C117.5,274.1,117.9,276.3,118,278.6z"/>
<circle class="st26" cx="133.1" cy="263" r="24.3"/>
<path class="st0" d="M120.3,303.2l16.5,2.8c4.1,0.8,8.2,1.2,12.3,1.2c2.3-0.2,4.5-0.2,6.8,0c1.6,0.3,3.1,0.9,4.6,1
	c1.9,0.2,3.9-0.1,5.8,0.1c3.6,0.5,6.5,2.9,9.3,5.3c3.2,2.8,6.6,6,6.9,10.3c0,0.5,0,1-0.2,1.4c-0.3,0.5-0.7,0.9-1.2,1.3
	c-3,2.5-4.7,6.2-6.9,9.5c-2.2,3.4-5,6.4-8.2,8.9c-0.7-0.5-2.1,0.8-1.8,1.5s1.1,1.4,1.4,2.2c0.6,1.9-1.7,3.3-2.7,5s-0.5,3.9-0.6,5.9
	c-0.1,2.2-1,4.3-1.3,6.5c-0.7,5.1,1.8,10.4,0.1,15.2c2.2-0.3,4.1,1.6,4.7,3.7s0.2,4.3-0.2,6.5c2.8,1.7,4.5,4.8,4.3,8.1
	c-0.3,0.7,0,1.5,0.7,1.8c0.1,0,0.2,0.1,0.3,0.1c3.1,1.3,5.1,4.3,5.1,7.6c-0.1,0.5,0,1.1,0.1,1.6c0.3,0.5,0.7,0.9,1.2,1.2
	c2.2,1.8,3.5,4.5,3.5,7.4c0,1.9-0.8,4-2.5,4.9c-3.5,1.8-7.3,2.5-11.1,3.3c-3.5,0.8-7.1,1.5-10.7,1.9c-3.3,0.3-6.7,0.4-10,0.3
	l-22.1-0.1c-6.2,0-12.4,0-18.6-0.5c-5.8-0.4-11.7-1.1-17.3,0.4c-0.7-1.2,0.4-2.6,1.1-3.8c0.8-1.6,1.2-3.4,1.3-5.2l1.4-14.7
	c0.3-2,0.3-4.1,0.1-6.1c-0.3-2.2-1.1-4.2-1.5-6.4c-0.8-4.1-0.1-8.4-0.3-12.6c-0.3-3.7-0.9-7.4-1.9-11l-4.4-18
	c-0.7-2.9-1.1-6.3-2.1-9c-3.4-8.7-6.9-17.2-10.6-25.7c-0.3-0.8-0.2-1.6,0.2-2.3l3.6-6.5c1-1.9,2.1-3.6,3.3-5.3
	c3.1-3.9,7.4-6.6,12.3-7.6c4.9-1,9.9-0.2,14.3,2.1c1.7,0.9,3.3,2,5,2.9C113.4,301.9,117,303.4,120.3,303.2z"/>
<path class="st0" d="M178.8,319.2l5.8,7.7c0.5,0.7,1,1.4,1.3,2.1c0.9,2,0.4,4.4,0.9,6.5c0.4,1.4,0.9,2.7,1.7,3.9
	c2.2,3.8,4.6,7.4,7.3,10.9c1.2,1.7,2.8,3.3,4.5,4.5c1.8,1.2,4,1.6,6.1,1.1c-0.9,0.3-1.6,1-2,1.8c-2.2,4.3-2.4,9.5-1.4,14.2
	c0.3,1.6,0.8,3.2,1.6,4.7c0.8,1.5,2.1,2.6,3.7,3.2c-0.4,2.9-3.1,5-6.1,4.6c-0.1,0-0.2,0-0.3,0c-1.1-0.3-2.2-0.9-3.1-1.6l-9.2-6
	c-1.5-0.9-3-2-4.3-3.2c-1.7-1.7-2.9-3.9-4.6-5.7c-2.9-3-7.1-4.8-9.1-8.5c-1.3-2.3-1.5-5-2.3-7.5c-0.5-1.6-1.3-3.2-1.8-4.8
	c-1.5-5.1-0.4-10.6,1.9-15.4S175.4,323.3,178.8,319.2z"/>
<path class="st25" d="M157.2,249.1c-2.3-3.5-5.2-6.5-8.6-8.9c-4.6-3.4-9.8-6.2-15.4-6.5c-2.4-0.1-4.7,0.3-6.9,1.1
	c-0.1-6.9-1.8-11.5-6.1-10.8c-8,1.3-16.9,4.4-20,11.9c-2.3,5.7-0.5,12,0.1,18.1c0.2,1.6,0.2,3.2-0.2,4.8c-0.7,2.6-2.5,4.6-4.2,6.6
	c-2.4,2.5-4.5,5.4-6.1,8.5c-1.4,3.2-1.9,7-0.4,10.2c0.5,0.8,0.8,1.7,1,2.7c0.1,2.1-2.1,3.4-3.7,4.7c-6,5-5.8,14-5.8,21.8
	c-0.1,16-3.6,31.7-10.4,46.2c5.2,2.6,11.4,1.8,15.8-2.1c-0.8,3.6-2,7-3.6,10.3c5.1,2.5,11.2-1.6,13.8-6.6s2.9-10.9,4.7-16.3
	s5-10,6.4-15.4c0.4-1.8,0.7-3.7,1.8-5.2c0.9-1.1,2-2,3.2-2.7c5.2-3.8-2.5-32.3-0.4-38.4c3,0.7,8.6-14,11.8-29c2.2,0.8,4.6,1,6.9,0.7
	c0.8-0.2,1.6-0.2,2.5-0.2c0.8,0.2,1.5,0.5,2.2,0.9c2.4,1.4,4.8,2.7,7.4,3.8c5.3,2,11.1,1.7,16.7,1.4
	C160.3,256.9,159.4,252.6,157.2,249.1z"/>
<g class="st28">
	<path d="M73.3,359.7c6.8-14.4,10.3-30.2,10.4-46.1c0.1-7.8-0.2-16.9,5.8-21.8c1.6-1.3,3.8-2.6,3.7-4.7c-0.2-1-0.5-1.9-1-2.7
		c-1.5-3.2-1-7,0.4-10.2c1.6-3.1,3.6-6,6.1-8.5c1.8-2,3.6-4.1,4.2-6.6c0.3-1.6,0.4-3.2,0.2-4.8c-0.6-6.1-2.4-12.5-0.1-18.1
		c3-7.3,11.4-10.4,19.2-11.7c-0.7-0.2-1.4-0.3-2.1-0.1c-8,1.3-16.9,4.4-20,11.9c-2.3,5.7-0.5,12,0.1,18.1c0.2,1.6,0.2,3.2-0.2,4.8
		c-0.7,2.6-2.5,4.6-4.2,6.6c-2.4,2.5-4.5,5.4-6.1,8.5c-1.4,3.2-1.9,7-0.4,10.2c0.5,0.8,0.8,1.7,1,2.7c0.1,2.1-2.1,3.4-3.7,4.7
		c-6,5-5.8,14-5.8,21.8c-0.1,16-3.6,31.7-10.4,46.2c2.4,1.2,5.1,1.7,7.7,1.5C76.4,361,74.8,360.5,73.3,359.7z"/>
	<path d="M85.4,367.9c1.5-3.3,2.7-6.8,3.6-10.3c-1,0.9-2.2,1.7-3.5,2.3c-0.8,2.7-1.8,5.4-3,8c1.5,0.7,3.1,0.9,4.7,0.6
		C86.6,368.4,86,368.2,85.4,367.9z"/>
	<path d="M129.1,234.8c1.5-0.6,3-0.9,4.6-1.1h-0.6c-1.4-0.1-2.8,0-4.1,0.3C129.1,234.2,129.1,234.5,129.1,234.8z"/>
	<path d="M145.6,259.6c-2.5-1.1-5-2.3-7.4-3.8c-0.7-0.4-1.4-0.7-2.2-0.9c-0.8-0.1-1.5,0-2.3,0.1c0.5,0.2,1.1,0.4,1.6,0.7
		c2.4,1.4,4.8,2.7,7.4,3.8c4,1.3,8.2,1.9,12.3,1.6C151.9,261.2,148.7,260.6,145.6,259.6z"/>
	<path d="M126.7,254.4c0,0.2-0.1,0.4-0.1,0.7c1.2,0.2,2.4,0.2,3.6,0.1C129,255,127.8,254.8,126.7,254.4z"/>
</g>
<path class="st26" d="M76,367.3c0.3,2.6-0.6,5.2-2.4,7.1c-1,1-2.2,1.8-3.4,2.5c-1.2,0.8-2.6,1.3-4,1.5c-1.9-0.1-3.8-0.9-5.1-2.2
	c-4.2-3.7-6.4-9.2-8.3-14.5c-2.6-7-5.2-14.1-6.3-21.5c-1.2-7.9-0.7-16.1-2.9-23.8c2-4,3.3-8.5,5.6-12.3c1.5-2.3,2.7-4.7,3.9-7.2
	c2.1-5.3,2.4-11.2,0.7-16.7c0.8-0.5,1.9-0.5,2.7,0.1c0.7,0.6,1.3,1.4,1.6,2.3c1.3,3.1,1.9,6.4,1.6,9.8c-0.2,0.8-0.1,1.6,0.3,2.4
	c0.6,0.8,1.6,1.2,2.6,1.1c2-0.1,4.1-0.5,6-1.1c6-1.5,12.3-2.1,18.5-1.5c1.3,0,2.5,0.3,3.6,0.9c1.1,0.6,1.9,1.7,1.9,3l-14.8,2.2
	c-1.1,0.1-2.2,0.4-3.1,1.1c-0.9,0.7-1.1,2-0.4,2.9c0.3,0.3,0.6,0.5,1,0.7c1.3,1,1.6,2.9,0.6,4.2c-0.2,0.3-0.4,0.5-0.7,0.7
	c-0.4,0.2-0.7,0.4-1,0.7c-0.6,0.8,0.2,1.9,0.5,2.9c0.2,1.5-0.5,2.9-1.8,3.7c-1.3,0.7-2.7,1.2-4.1,1.4c-2.9,0.7-5.7,1.6-8.4,2.9
	c-0.9,0.3-1.7,0.9-2.2,1.6c-0.7,1.2-0.3,2.8,0.3,4.1l3.9,10.4c0.6,1.6,1.2,3.3,2,4.8c1,2,2.2,3.9,3.2,6s1.7,3.9,2.4,5.8
	C71.5,358.5,75.4,361.7,76,367.3z"/>
<linearGradient id="SVGID_13_" gradientUnits="userSpaceOnUse" x1="232.6551" y1="325.64" x2="232.6551" y2="370.3" gradientTransform="matrix(1 0 0 -1 0 670.24)">
	<stop  offset="0" style="stop-color:#808080;stop-opacity:0.25"/>
	<stop  offset="0.54" style="stop-color:#808080;stop-opacity:0.12"/>
	<stop  offset="1" style="stop-color:#808080;stop-opacity:0.1"/>
</linearGradient>
<rect x="209.6" y="299.9" class="st29" width="46.1" height="44.7"/>
<rect x="210.4" y="300.7" class="st2" width="44.5" height="43.1"/>
<path class="st26" d="M247.2,297.3c-0.8,0.6-1.4,1.5-1.7,2.5c-0.1,0.4,0,0.9,0.4,1.1c0.2,0.1,0.5,0.1,0.7,0c1.1-0.2,2.1-0.7,3-1.4
	c-0.3,0.2-0.6,0.4-0.9,0.7c-0.2,0.3-0.3,0.7-0.1,1.1c0.2,0.3,0.6,0.5,1,0.5c1.4,0.3,2.9,0.2,4.3-0.2c-0.7,0.2-1.3,0.6-1.8,1
	c-0.5,0.5-0.8,1.1-0.8,1.9c0,0.3,0.1,0.5,0.3,0.7c0.1,0.1,0.3,0.1,0.5,0.2c1.3,0.2,2.7,0.2,4,0c0.7,0,1.3-0.4,1.7-1
	c0.1-0.7,0-1.4-0.4-1.9c-0.7-1.5-1.1-3.2-1-4.9c0-0.3,0-0.7-0.1-1c-0.2-0.3-0.5-0.5-0.9-0.6c-1.4-0.6-3.3-1.5-4.9-1
	C249.2,295.5,248.1,296.3,247.2,297.3z"/>
</svg>
