<?xml version="1.0" encoding="utf-8"?>
<!-- Generator: Adobe Illustrator 23.0.1, SVG Export Plug-In . SVG Version: 6.00 Build 0)  -->
<svg version="1.1" id="baed4b18-14ee-447f-bd84-b0265ca0ad8a"
	 xmlns="http://www.w3.org/2000/svg" xmlns:xlink="http://www.w3.org/1999/xlink" x="0px" y="0px" viewBox="0 0 889.7 676.5"
	 style="enable-background:new 0 0 889.7 676.5;" xml:space="preserve">
<style type="text/css">
	.st0{fill:#504F60;}
	.st1{opacity:0.2;enable-background:new    ;}
	.st2{fill:#21C87A;}
	.st3{fill:#514E7F;}
	.st4{fill:#464353;}
	.st5{fill:#A1616A;}
	.st6{opacity:0.1;enable-background:new    ;}
	.st7{fill:#D4D7DD;}
	.st8{fill:#1EAF66;}
	.st9{opacity:0.3;fill:#8C98A4;enable-background:new    ;}
	.st10{fill:#E3E6F0;}
	.st11{fill:#1C6BE1;}
	.st12{fill:#FBBEBE;}
	.st13{opacity:5.000000e-02;enable-background:new    ;}
	.st14{fill:#3F3D56;}
	.st15{fill:url(#SVGID_1_);}
	.st16{fill:#2D293D;}
	.st17{opacity:5.000000e-02;}
	.st18{fill:#FFCDD3;}
	.st19{fill:#575988;}
	.st20{opacity:0.1;}
	.st21{fill:#136ABF;}
</style>
<title>wallet</title>
<path class="st0" d="M763.5,535.5c0,5.9-34.4,23.1-75.2,23.1s-72.7-17.2-72.7-23.1s33.1-4,74-4S763.5,529.6,763.5,535.5z"/>
<path class="st1" d="M763.5,535.5c0,5.9-34.4,23.1-75.2,23.1s-72.7-17.2-72.7-23.1"/>
<path class="st2" d="M352.1,427.2c6.6,0.8,13.5,1.4,19.9-0.7c1-0.3,2.1-1,2-2c-0.1-0.4-0.2-0.7-0.5-1c-2.4-3.6-4.4-7.4-6-11.4
	c-0.1-0.2-0.2-0.4-0.4-0.5c-0.2-0.1-0.4-0.1-0.6,0c-2.9,0.8-5.5,2.7-8.4,3.5c-1.5,0.4-3,0.5-4.6,0.3c-1.3-0.2-3.1-1.2-4.3-1.1
	C350,418.7,351.6,422.8,352.1,427.2z"/>
<path class="st2" d="M477.5,416.2c4.4-3,8.9-6.2,11.5-10.8c0.2-0.3,0.3-0.6,0.3-0.9c0-0.3-0.2-0.6-0.4-0.9
	c-2.5-3.9-5.6-7.3-9.3-10.1c-1.9,1.4-3.7,3-5.2,4.8c-1.1,1.2-4.1,3-4.2,4.8c0,1,1.2,2.2,1.7,3c0.7,1.1,1.4,2.2,2.1,3.3
	C474.4,409.9,477.9,415.9,477.5,416.2z"/>
<path class="st3" d="M378.1,440.6c0.1,1-0.2,2.1-0.8,2.9c-0.5,0.5-1,0.8-1.7,1c-9.3,3.3-20-0.8-29.3,2.5c-1.9,0.7-3.7,1.6-5.6,2.3
	c-2.3,0.7-4.6,1.1-7,1.2c-3.3,0.3-6.6,0.5-9.8,0.6c-2.5,0.2-5,0-7.4-0.7c-2.5-0.6-4.5-2.3-5.7-4.5c-0.5-1-0.6-2.1-0.3-3.2
	c0.1-0.4,0.4-0.7,0.6-1c0.6-0.7,1.4-1.3,2.2-1.8l3.4-2.2c1.6-1.1,3.3-2.1,5.2-2.7c1.3-0.4,2.8-0.6,4.1-1c4.8-1.4,8.5-5.2,11.9-8.8
	l4.6-5c0.4-0.5,1-1,1.6-1.3c0.6-0.2,1.3-0.3,2-0.2c4.5,0.3,8.9,1.8,12.6,4.2c1,0.7,2,1.3,3.1,1.8c2.7,1.1,6.2,0.3,8.7-1.1
	c1.2-0.6,0.9-1,1.4-2.1s1.7-1.9,2.8-0.8c0.3,0.4,0.5,0.8,0.7,1.3c1,3.3,0.6,6.8,0.6,10.3c0,0.5,0,1.1,0.2,1.6c0.3,0.5,0.6,1,0.9,1.5
	c0.1,0.1,0.1,0.2,0.2,0.4C378.1,437.3,378.3,439,378.1,440.6z"/>
<path class="st4" d="M378.1,440.6c0.1,1-0.2,2.1-0.8,2.9c-0.5,0.5-1,0.8-1.7,1c-9.3,3.3-20-0.8-29.3,2.5c-1.9,0.7-3.7,1.6-5.6,2.3
	c-2.3,0.7-4.6,1.1-7,1.2c-3.3,0.3-6.6,0.5-9.8,0.6c-2.5,0.2-5,0-7.4-0.7c-2.5-0.6-4.5-2.3-5.7-4.5c-0.5-1-0.6-2.1-0.3-3.2
	c0.1-0.4,0.4-0.7,0.6-1c0.5,1.1,0.9,2.6,1.3,3.2c0.9,1.6,2.5,2.8,4.3,3.1c1.4,0.1,2.7-0.1,4-0.5c8.4-2.1,17.3-2.1,25.4-5.3
	c2.8-1.1,5.4-2.5,8.3-3.2c2.9-0.7,6-0.5,9-0.7c4.7-0.4,9.3-1.8,14-2.6C378.1,437.3,378.3,439,378.1,440.6z"/>
<path class="st3" d="M498.8,415.6c-0.4,3.5-2.7,6.5-5.1,9.1s-5.2,4.9-7.2,7.8c-2.4,3.7-3.5,8.2-6.6,11.3c-1.2,1.1-2.5,2.1-4,2.8
	c-1.6,1-3.4,1.8-5.2,2.4c-4.7,1.5-9.7,1.2-14.5,0.8c-1.6,0-3.1-0.3-4.6-0.9c-0.7-0.3-1.3-0.7-1.9-1.2c-1.2-0.8-2.2-1.8-3-3
	c-0.4-0.7-0.5-1.4-0.3-2.2c0.3-0.8,0.8-1.5,1.4-2.1c1.1-1.1,2.3-2.2,3.5-3.2c1.7-1.1,3.3-2.5,4.6-4c0.8-1.2,1.4-2.6,1.8-4
	c0.7-2.5,1.1-5.1,1.3-7.7c0-1.7,0.2-3.4,0.5-5.1c0.7-2.6,2.7-5,2.5-7.7c-0.1-0.4-0.1-0.8,0.1-1.2c0.2-0.3,0.6-0.5,0.9-0.6
	c1.5-0.6,3.1-1,4.8-1.1c1.7-0.1,3.3,0.5,4.4,1.7c0.7,0.8,1.1,2,2.1,2.3c0.5,0.1,1,0.2,1.5,0.1c2.5-0.3,5.1-0.6,7-2.2
	c1.8-1.6,2.9-3.9,2.9-6.4c0-0.9-0.4-1.9,1-2c1.1-0.1,1.9,1,2.4,1.7c2,2.6,4,5.3,4.7,8.5c0.3-0.1,0.6-0.2,0.9-0.2
	c1.3,0,2.5,0.6,3.2,1.6C498.7,412.5,499,414.1,498.8,415.6z"/>
<path class="st4" d="M498.8,415.6c-0.4,3.5-2.7,6.5-5.1,9.1s-5.2,4.9-7.2,7.8c-2.4,3.7-3.5,8.2-6.6,11.3c-1.2,1.1-2.5,2.1-4,2.8
	c-1.6,1-3.4,1.8-5.2,2.4c-4.7,1.5-9.7,1.2-14.5,0.8c-1.6,0-3.1-0.3-4.6-0.9c-0.7-0.3-1.3-0.7-1.9-1.2c-1.2-0.8-2.2-1.8-3-3
	c0.9-0.5,2-0.7,3-0.7c2.2,0.1,3.7,2.2,5.8,2.8c3,0.9,5.9-1.2,8.9-1.9c2-0.5,4-0.3,5.9-1c1.6-0.6,3.1-1.5,4.4-2.7
	c1.8-1.3,3.4-2.8,4.7-4.5c1.1-1.7,2-3.6,2.8-5.5c1.6-3.7,3.4-7.2,5.6-10.6c0.3-0.5,0.7-1,1.1-1.5c0.5-0.4,1-0.7,1.5-1.1
	c2-1.5,2.8-4,3.5-6.4c0.2-0.7,0.5-1.5,0.8-2.2c1.3,0,2.5,0.6,3.2,1.6C498.7,412.4,499,414,498.8,415.6z"/>
<path class="st5" d="M289.1,103.8c2.5,1.9,4.5,4.3,6,7c1.4,2.7,9.5,24,9,27.1c2.6-2.6,13-3.1,15.7-5.7c1.1-1.1,7.1-6.7,8-7.9
	c0.9-1.3,7.6-4,8.3-5.4c2.7-4.9-19.4-23.4-16.5-28.3c0.2-0.2,0.2-0.5,0.2-0.8c-0.1-0.2-0.2-0.4-0.4-0.6c-1.8-1.9-4.2-3-6.4-4.4
	c-2.2-1.4-4.3-3.3-4.9-5.8c-2.1,1-4,2.2-5.6,3.8c-4.1,3.5-8,7-12,10.6c-1.5,1.4-4.5,3.3-5.2,5.3C284.5,101,287.6,102.6,289.1,103.8z
	"/>
<path class="st3" d="M324.8,95.9c-3.4,2.3-6.6,4.9-9.5,7.7c-2.7,2.7-5.3,5.9-6,9.6c-0.3,1.5-0.2,3-0.5,4.5c-1,6.6-6.7,11.4-9.2,17.5
	c-0.7,1.9-1.3,3.9-1.6,5.9c-0.7,3.8-1.1,7.6-1.1,11.5c-0.1,3.7,3.6,6.3,4.9,9.8c1.3,3.5,1.7,7.1,2.4,10.6c1.3,6.7,3.6,13.2,6,19.7
	c4.9,13.6,20.9,51.3,25.8,64.9c15.1-3.8,55.3-12.5,68.7-20.5c4.5-2.7-31-32.7-26.2-34.7c1-0.2,1.6-1.1,1.5-2c0-0.2-0.1-0.3-0.1-0.5
	c-4.8-20.9-19.7-38-26.5-58.3c-2.4-7-6.6-13.1-9.8-19.8c-2.9-6.1-4.5-12.8-7.9-18.6c-0.7-1.2-1.5-2.3-2.5-3.1
	c-0.9-0.7-1.8-1.2-2.8-1.7C328.6,97.4,326.8,96.9,324.8,95.9z"/>
<circle class="st5" cx="289.9" cy="77.8" r="23.6"/>
<path class="st4" d="M313.9,88.9c2.4-2.2,5.9-2.7,8.9-1.3c1.6,0.8,3,2.5,2.6,4.3l11.7,0.2c1.9-0.1,3.7,0.1,5.6,0.5
	c1.8,0.4,3.5,1.4,4.6,2.9c0.1,0.2,0.3,0.4,0.5,0.4c0.2,0,0.4-0.1,0.5-0.2c1.8-0.9,3.8-1.3,5.8-1c6.3,0.4,12.2,3.6,17.2,7.5
	c0.9,0.6,1.6,1.5,2,2.5c0.4,1.3-0.1,3,1,3.9c0,11,3.8,21.3,6.3,32c0.5,1.9,2.3,3.6,3.5,5.1c1.6,1.7,2.8,3.6,3.8,5.7
	c2.1,5.6-0.8,12.1,1.3,17.7c0.9,2.4,2.6,4.3,4,6.4c1.9,2.4,3.1,5.2,3.4,8.2c0.1,1.3-0.1,2.7,0,4c0.1,1.8,0.5,3.6,1,5.3
	c0.9,3.2,1.7,6.5,2.7,9.7c1.5,5.2,3.5,10.8,8.2,13.6c-11.3,1.9-23.1,3.8-33.8-0.1c-1.5-0.5-2.9-1.2-4.2-2.1
	c-3.9-2.8-5.7-7.5-7.4-11.9c-1.9-5-3.8-10.1-4.1-15.4c0-1.7-0.2-3.4-0.7-5c-1.1-2.9-4-4.6-6.6-6.3c-3-1.6-5.7-3.7-8-6.2
	c-2.3-2.5-3.5-5.9-3.2-9.3c0.2-1.6,0.8-3.2,0.9-4.9s-0.7-3.6-2.3-4c-8.2-2.5-12.1-12.2-13.9-20.5c-0.8-4.3-1.1-8.7-1-13.1l-0.1-8.5
	c-2.3-2.1-3.6-5-3.7-8.1c0.1-0.9,0.1-1.8,0-2.7c-0.4-1.1-1-2.1-1.9-2.9C316.6,93.3,315.1,91.2,313.9,88.9z"/>
<path class="st4" d="M288.8,115.9c-0.3,2.6,0.3,5.4-0.3,7.9c-0.2,1-0.6,2-0.9,2.9c-0.9,3.7-0.5,7.6,1.1,11.1
	c1.6,3.5,3.5,6.7,5.7,9.9c0.7,1.1,1.4,2.2,1.8,3.4c0.4,1.3,0.6,2.6,0.7,3.9c0.6,5.3,1.5,10.5,2.8,15.7c1.1,4.5,13.8,42.8,16.8,46.3
	c0.5,0.8,1.4,1.3,2.3,1.5c0.7,0,1.3-0.1,1.9-0.4l6-2.3c0.5-0.2,1-0.4,1.4-0.8c0.6-0.7,0.9-1.5,0.9-2.4c0.4-4.9-12.3-43.5-13.9-48.1
	c-4.9-13.9-11.4-27.3-14.6-41.7c-0.9-4-1.4-10.2-4.3-13.4c-1.2-1.3-0.8-0.8-2.3-0.1c-0.7,0.3-1.4,0.7-2.1,1.1
	C290,111.9,288.9,113.8,288.8,115.9z"/>
<path class="st4" d="M404.2,202.6"/>
<path class="st2" d="M307,142.3c1.6,8.5,3.3,17,4.9,25.5l23.5-6.1c0.2-2.5-1.1-4.7-2-7c-2.1-5.4-2.2-11.4-3.9-16.9
	c-1.3-4.2-3.6-8.1-4.8-12.3c-0.7-2.5-1.1-5-1.8-7.5c-0.8-2.4-1.7-4.8-2.8-7.1c-1.3-3.4-3-6.5-5.1-9.5c-3,1.1-6.2,2.4-7.9,5.1
	c-0.9,1.5-1.4,3.2-1.5,5c-0.4,5.3,1.5,10.6,0.9,15.8C305.8,132.3,306,137.4,307,142.3z"/>
<path class="st4" d="M335.8,255.5c1.3,5-0.6,10.3-2.2,15.2c-2.3,7.5-3.9,15.1-4.8,22.9c-0.1,2-0.5,3.9-1.2,5.8
	c-0.7,1.7-2,3.1-2.9,4.7c-2.4,4.2-2.3,9.3-1.8,14.1c0.3,3.1,0.9,6.3,1.5,9.4c0.8,3.8,1.7,7.8,0.6,11.5c1.9-0.4,3.1,2,3,3.9
	s-0.7,4,0.2,5.6c2.3,0.8,2.3,4,2.3,6.5c0,4.2,0.6,8.5,1.6,12.6c3.5,16.7,7.2,33.4,11.1,50.1c8.5,2.6,18.3,5.3,26.4,1.7
	c1.5-0.7,3-1.7,3.3-3.4c0.1-0.9,0-1.8-0.3-2.6l-3.8-13.9c-0.9-3.4-1.9-6.8-1.4-10.3c0.4-2.6,1.5-5.3,0.2-7.6
	c-0.4-0.8-1.1-1.4-1.6-2.1c-2-2.9-1-6.9-0.8-10.4c0.1-0.8,0-1.6-0.2-2.4c-0.3-0.9-0.7-1.8-1.1-2.6c-3.2-6.1-4.7-13-4.4-19.9
	c0.1-0.9,0-1.8-0.4-2.6c-0.2-0.3-0.5-0.7-0.6-1.1c-0.1-0.6-0.1-1.3,0.2-1.9c-1.1-0.9-2.2-1.9-3.1-3c2-1.3,2.6-3.9,1.4-5.9
	c-0.2-0.3-0.4-0.6-0.6-0.8c1.2-0.2,2-1.4,1.8-2.6c-0.1-0.5-0.3-0.9-0.7-1.2c-0.5-0.3-1.1-0.5-1.5-1c-0.5-0.7-0.1-1.8,0.3-2.6
	l2.3-4.2c1.7-3.1,2.1-7,4-10c2.7-4.4,4.4-9.2,6.2-14.1l6.7-18.6l4.5,3.9c1.5,1.2,2.8,2.6,3.7,4.2c0.6,1.6,1.1,3.3,1.2,5.1
	c1.7,10.1,8,18.8,10.3,28.8c0.5,2.2,0.9,4.5,2.1,6.4c0.5,0.6,0.9,1.2,1.2,1.8c0.3,1,0.5,2,0.5,3c0.4,4.1,2.6,7.8,6,10.2
	c2.2,1.5,5,2.6,6.2,5c0.2,0.7,0.6,1.5,1,2.1c1.1,1.3,3.4,1.5,3.9,3.1c0.3,0.9-0.2,2,0.3,2.8c0.3,0.4,0.7,0.7,1.1,0.8l6.5,3.3
	c7.3,3.6,11,12,16.4,18.1c1.9,2,3.5,4.2,4.9,6.5c2.3,4.1,3.4,9.4,7.3,12c1.1,0.5,2,1.3,2.8,2.1c1.2,1.6,0.8,3.9,0.9,5.9
	s1.7,4.5,3.6,3.8c-0.7,2.5-0.7,5.1,0,7.5c8.5-0.4,16.6-3.7,23.1-9.3c1.9-1.7,3.7-3.8,3.8-6.3c0-0.4-0.1-0.9-0.3-1.3
	c-0.4-0.5-0.9-0.9-1.5-1.1c-6.1-3.3-7.9-11-11-17.2c-2.7-5.5-6.7-10.2-10-15.3c-7.2-11-12.2-24.2-23.1-31.4c-2.4-1.6-5.2-3-6.4-5.6
	c-0.7-1.5-0.8-3.1-1.3-4.7s-1.8-3-3.4-3c0.9-2.2,0.7-4.9,0.8-7.3c0.1-1.1-0.1-2.1-0.4-3.1c-0.4-1.1-1-2.1-1.6-3.1
	c-2.9-4.8-4.3-10.4-4.1-16c0.1-2.9,0.6-5.9-0.3-8.6c-0.4-1.4-1.2-2.7-1.7-4c-0.8-2.4-1.2-5-1.3-7.5l-0.6-9.6
	c-0.1-3.2-0.5-6.4-1.2-9.5c-2-7.5-4-38.7-10.8-42.2s-18.6,20.5-26.3,21c-3.4,0.1-6.8,0.8-10,1.9c-5.1,1.9-9.4,5.5-13.6,9l-14.2,11.9
	C341.5,251.4,339.1,253.8,335.8,255.5z"/>
<path class="st4" d="M267.7,51.5c3.1-4.3,8.5-6.5,13.8-6.7c5.3-0.2,10.5,1.5,15.2,3.8c1.4,0.8,2.9,1.4,4.4,1.8
	c2.5,0.5,5.3-0.2,7.5,1c3,1.6,3.6,5.6,3.3,9c-0.3,3.4-0.9,7.1,0.9,10c0.6,0.8,1.2,1.7,1.7,2.6c0.8,1.7,0.3,3.7-0.1,5.6
	c-1.2-1-1.8-2.5-2.9-3.7c-1-1.2-2.9-1.9-4.1-1.1c-1.3,0.9-1.3,2.4-1.3,3.9s-0.4,3.1-1.8,3.6c-1.1,0.3-2.3-0.2-3-1.2
	c-2.3-2.8-1.4-7.3-3.6-10.1c-1.3-1.6-3.4-2.4-4.6-4.1c-0.9-1.3-1.2-3-2-4.4s-2.7-2.5-4-1.5c-0.4,0.4-0.8,0.9-1.1,1.4
	c-1.6,2.3-4.7,3.2-7.3,2.2c-1-0.6-2-1.1-3.2-1.4c-1.5-0.1-2.9,0.7-3.6,2c-0.7,1.3-1.1,2.7-1,4.2c0,2,0.4,4.1-0.8,5.7
	c-0.4,0.6-1,1.1-1.6,1.5c-1.7,1.1-4,1.8-5.5,0.6c-1.1-1-1.5-2.5-1.2-3.9c0.3-1.4,0.7-2.8,1.2-4.1c0.9-3.1-0.3-6.6,0.7-9.5
	C264.6,56.2,266,53.7,267.7,51.5z"/>
<path class="st2" d="M280.4,122c-0.2,0.7-0.1,1.5,0.2,2.2c0.3,0.5,0.7,0.9,1.2,1.1c3.4,2.1,7.2,3.3,11.1,3.6c0.5,0,1.1,0.1,1.5,0.4
	c0.9,0.6,1,2,0.7,3.1c-0.5,1-0.7,2.2-0.7,3.3c0.3,2.1,2.8,3,4.9,3.3c2.9,0.4,6.1,0.2,8.5-1.6c1.6-1.4,2.8-3.2,3.5-5.2
	c5.7-13.2,7.8-27.8,13.6-40.9c0.4-0.9,0.7-1.8,0.9-2.7c0.1-1-0.3-1.9-1.1-2.5c-1.1-0.7-2.8-0.3-3.5-1.3c-0.4-0.5-0.3-1.3-0.6-1.8
	c-0.7-1.2-2.4-1-3.6-1.7c-0.9-0.5-1.6-1.5-2.6-1.7c-1-0.1-2.1,0.4-2.7,1.2c-3.4,3.2-5.2,7.7-7.1,11.9c-2.9,6.5-6.3,12.8-10.2,18.8
	c0.5-0.7-2.2-6-3.2-6.2c-1.8-0.4-4.1,2.8-5,3.9C282.9,112.8,280.9,117.3,280.4,122z"/>
<path class="st6" d="M316.7,82.1c-1.5,0-2.8,0.7-3.7,1.9c-1.1,1.4-1.3,3.2-1.5,5c-0.9,5.6-2.9,11-5.9,15.8"/>
<path class="st6" d="M321.8,86.1c-2,0-3.9,1.2-4.8,2.9c-0.7,1.6-1.1,3.2-1.2,4.9c-0.9,3.8-2.5,7.3-4.8,10.4"/>
<path class="st7" d="M559.4,281.6v-12.4c0-19-15.4-34.5-34.5-34.5H34.5c-19,0-34.5,15.4-34.5,34.5v22.9L559.4,281.6z"/>
<path class="st8" d="M170.9,220.1c0,0-1.4,86.9,14,115.4s22,152.9,22,152.9s161.4,16.7,273.9-20s351.9-51.7,351.9-51.7l-40.3-271.9
	c0,0-199.3-12.8-312.7,41.3S170.9,220.1,170.9,220.1z"/>
<path class="st6" d="M170.9,220.1c0,0-1.4,86.9,14,115.4s22,152.9,22,152.9s161.4,16.7,273.9-20s351.9-51.7,351.9-51.7l-40.3-271.9
	c0,0-199.3-12.8-312.7,41.3S170.9,220.1,170.9,220.1z"/>
<path class="st2" d="M206.7,251.9c0,0-5,71.7,7.6,94.6s13.3,125.1,13.3,125.1s145.3,6.7,248.6-28.4s320.5-58,320.5-58L772,162.8
	c0,0-179.7-1.9-284.6,47.7S206.7,251.9,206.7,251.9z"/>
<ellipse transform="matrix(0.9923 -0.1236 0.1236 0.9923 -36.1669 61.2865)" class="st6" cx="475.9" cy="322.1" rx="37.7" ry="80.9"/>
<path class="st1" d="M683.1,12.4c0,0-193.6,49-284.9,135.3S114.7,274.8,114.7,274.8s25.3,83.1,48.7,105.6
	c23.4,22.5,67.8,138.8,67.8,138.8S390.1,485.5,485.9,416S805,258.8,805,258.8L683.1,12.4z"/>
<path class="st8" d="M111.8,262.3c0,0,25.3,83.1,48.7,105.6s67.8,138.8,67.8,138.8S387.2,473.1,483,403.6S802,246.4,802,246.4
	L680.2,0c0,0-193.6,49-284.9,135.3S111.8,262.3,111.8,262.3z"/>
<path class="st6" d="M111.8,262.3c0,0,25.3,83.1,48.7,105.6s67.8,138.8,67.8,138.8S387.2,473.1,483,403.6S802,246.4,802,246.4
	L680.2,0c0,0-193.6,49-284.9,135.3S111.8,262.3,111.8,262.3z"/>
<path class="st2" d="M155.5,281.6c0,0,17.2,69.8,36.3,87.7s51,115,51,115s140.3-38.2,227.9-103.4S758,227.4,758,227.4L666.3,23.3
	c0,0-171.6,53.4-256.2,132.7S155.5,281.6,155.5,281.6z"/>
<ellipse transform="matrix(0.9065 -0.4221 0.4221 0.9065 -71.7179 207.7805)" class="st6" cx="433.3" cy="265.8" rx="37.7" ry="80.9"/>
<path class="st9" d="M572.7,293.8v345c0,16.5-13.4,29.8-29.8,29.8c0,0,0,0,0,0h-513C13.4,668.6,0,655.2,0,638.8V259
	c14.7,5.5,14.7,5.5,29.8,5h513C559.3,264,572.7,277.3,572.7,293.8z"/>
<path class="st10" d="M572.7,298.2v345c0,16.5-13.4,29.8-29.8,29.8h-513C13.4,673,0,659.6,0,643.2V263.4c14.7,5.5,14.7,5.5,29.8,5
	h513C559.3,268.4,572.7,281.7,572.7,298.2z"/>
<path class="st9" d="M571.2,425.7V536h-107c-30.5-0.4-54.8-25.4-54.4-55.9c0.4-29.9,24.5-54,54.4-54.4H571.2z"/>
<path class="st7" d="M572.7,422.8v110.4h-107c-30.5-0.4-54.8-25.4-54.4-55.9c0.4-29.9,24.5-54,54.4-54.4L572.7,422.8z"/>
<circle class="st6" cx="470.8" cy="480.9" r="21.5"/>
<circle class="st11" cx="472.3" cy="478" r="21.5"/>
<path class="st12" d="M758.4,421.8c0.8,9.2-6.1,18.2-4.1,27.2c0.4,1.9,1.3,3.8,1.6,5.7c0.8,5.4-2.3,10.4-5.4,14.9L724.3,508
	c-1,1.7-2.3,3.2-3.7,4.6c-5,4.5-12.5,4-19.1,5.3c-4.6,0.9-9,2.9-12.8,5.7c-0.3,0.3-0.4,0.8-0.1,1.1c2.2,3,5.8,4.7,9.5,4.5
	c0.7,0.9,0,2.2-1,2.9c-1.4,1-3.3,1.2-3.6,3.6c-0.1,0.8,0.1,1.7,0.5,2.4c1.1,1.6,2.7,2.8,4.6,3.2c9.1,2.8,18.9-2.1,25.7-8.7
	s11.7-15,18.3-21.8c3.7-3.7,7.9-6.9,11.7-10.5c7.6-7.2,13.5-16,19.2-24.8c1.7-2.7,3.4-5.4,4.2-8.4s0.4-6.2,1.2-9.1
	c1.1-3.9,3.9-7,6.3-10.3c4.7-6.4,7.8-14.2,7.1-22.1s-5.5-15.7-12.9-18.3c-2.3-0.9-4.8-1.1-7.3-0.4c-3,0.9-5.3,3.5-7.4,5.9l-5,5.8
	c-1.2,1.3-2.2,2.8-2.9,4.4c-0.7,1.7-0.3,3.6,1,4.9"/>
<path class="st13" d="M758.4,421.8c0.8,9.2-6.1,18.2-4.1,27.2c0.4,1.9,1.3,3.8,1.6,5.7c0.8,5.4-2.3,10.4-5.4,14.9L724.3,508
	c-1,1.7-2.3,3.2-3.7,4.6c-5,4.5-12.5,4-19.1,5.3c-4.6,0.9-9,2.9-12.8,5.7c-0.3,0.3-0.4,0.8-0.1,1.1c2.2,3,5.8,4.7,9.5,4.5
	c0.7,0.9,0,2.2-1,2.9c-1.4,1-3.3,1.2-3.6,3.6c-0.1,0.8,0.1,1.7,0.5,2.4c1.1,1.6,2.7,2.8,4.6,3.2c9.1,2.8,18.9-2.1,25.7-8.7
	s11.7-15,18.3-21.8c3.7-3.7,7.9-6.9,11.7-10.5c7.6-7.2,13.5-16,19.2-24.8c1.7-2.7,3.4-5.4,4.2-8.4s0.4-6.2,1.2-9.1
	c1.1-3.9,3.9-7,6.3-10.3c4.7-6.4,7.8-14.2,7.1-22.1s-5.5-15.7-12.9-18.3c-2.3-0.9-4.8-1.1-7.3-0.4c-3,0.9-5.3,3.5-7.4,5.9l-5,5.8
	c-1.2,1.3-2.2,2.8-2.9,4.4c-0.7,1.7-0.3,3.6,1,4.9"/>
<path class="st14" d="M778.3,658.9c-5.7,3.5-12.8,3.7-19.5,2.9c-1.1-0.1-2.3-0.2-3,0.6c-1,1.2,0.2,3,1.4,3.9
	c3.9,2.9,8.5,4.8,13.4,5.5c4.3,0.6,8.7,0.9,13.1,0.9c12,0.2,24,0.4,35.8-1.3c0.7-0.1,1.4-0.3,2-0.6c0.8-0.5,1.3-1.3,1.5-2.3
	c0.8-3.1-0.8-6.4-3.1-8.5s-5.4-3.3-8.3-4.5l-10.4-4c-2.4-1-6.3-3.5-9-3.3C787.1,648.6,782.4,656.5,778.3,658.9z"/>
<path class="st13" d="M778.3,658.9c-5.7,3.5-12.8,3.7-19.5,2.9c-1.1-0.1-2.3-0.2-3,0.6c-1,1.2,0.2,3,1.4,3.9
	c3.9,2.9,8.5,4.8,13.4,5.5c4.3,0.6,8.7,0.9,13.1,0.9c12,0.2,24,0.4,35.8-1.3c0.7-0.1,1.4-0.3,2-0.6c0.8-0.5,1.3-1.3,1.5-2.3
	c0.8-3.1-0.8-6.4-3.1-8.5s-5.4-3.3-8.3-4.5l-10.4-4c-2.4-1-6.3-3.5-9-3.3C787.1,648.6,782.4,656.5,778.3,658.9z"/>
<path class="st4" d="M785.5,520.9c-4.3,5.8-8.8,12.4-7.7,19.5c0.6,3.8,2.7,7.2,4.3,10.8c2.1,4.8,3.3,10,4.4,15.2
	c1.6,7.5,3.3,15.1,4.2,22.8c1.1,8.7-4.2,33.7-4.7,42.4c-0.1,2.1-0.4,4.4-1.8,5.9c-0.6,0.6-1.3,1.1-1.6,1.9c-0.2,0.8,0,1.5,0.3,2.2
	c2.4,5.5,7.4,9.6,13,11.9s19,6.4,25.1,6.6c0.8,0.1,1.6,0,2.4-0.3c0.8-0.5,1.4-1.2,1.8-2.1c4.3-8.3,0.2-37.9,0.2-47.3
	c0.1-7.8,1.9-15.6,1.6-23.4c-0.3-6.3-2-12.4-2.6-18.7c-1-10.3,0.9-20.6,2.8-30.7c1.4-7.8,2.9-15.6,4.7-23.2c1.1-4.7,2.4-9.4,5-13.5
	c2-3.2,4.8-5.9,7.1-9c6.5-8.5,9.3-19.2,8-29.7c-0.1-1-15,3.8-16.3,4.3c-5.3,2.3-10.3,5.4-14.5,9.3c-3.4,3.3-6.2,7.7-9.2,11.3
	c-4.3,5.2-8.5,10.4-12.6,15.7C794.7,508.7,790.1,514.8,785.5,520.9z"/>
<path class="st13" d="M785.5,520.5c-4.3,5.8-8.8,12.4-7.7,19.5c0.6,3.8,2.7,7.2,4.3,10.8c2.1,4.8,3.3,10,4.4,15.2
	c1.6,7.5,3.3,15.1,4.2,22.8c1.1,8.7-4.2,33.7-4.7,42.4c-0.1,2.1-0.4,4.4-1.8,5.9c-0.6,0.6-1.3,1.1-1.6,1.8c-0.2,0.8,0,1.5,0.3,2.2
	c2.4,5.5,7.4,9.6,13,12s19,4.5,25.1,4.7c0.8,0.1,1.6,0,2.4-0.3c0.8-0.5,1.4-1.2,1.8-2.1c4.3-8.3,0.2-36,0.2-45.4
	c0.1-7.8,1.9-15.6,1.6-23.4c-0.3-6.3-2-12.4-2.6-18.7c-1-10.3,0.9-20.6,2.8-30.7c1.4-7.8,2.9-15.5,4.7-23.2c1.1-4.7,2.4-9.4,5-13.5
	c2-3.2,4.8-5.9,7.1-9c6.5-8.5,9.3-19.2,8-29.7c-0.1-1-15,3.8-16.3,4.3c-5.3,2.3-10.3,5.4-14.5,9.4c-3.4,3.3-6.2,7.7-9.2,11.3
	c-4.3,5.2-8.5,10.4-12.6,15.7C794.7,508.4,790.1,514.4,785.5,520.5z"/>
<circle class="st12" cx="737.4" cy="369.7" r="24.3"/>
<path class="st12" d="M759.2,368.7c4.5,7.2,11.8,12.3,20.2,14.1l-1.8,6.6c-3.2,11.4-6.7,23.5-15.5,31.4c1-3.9-0.3-8-2.5-11.4
	s-5.2-6-8.2-8.6l-14-12.1c-0.4-0.3-0.7-0.7-1-1.2c-0.3-0.9-0.3-1.8,0-2.7c1.8-5.5,6.9-9,11-12.7c2.1-1.9,3.9-4.1,5.5-6.4
	C755.7,361.8,757.4,365.8,759.2,368.7z"/>
<path class="st4" d="M705.4,345.3l-0.5-4.6c3.8,1,7.5-2.3,9.9-5.6s4.7-7.3,8.5-8.8c4.5-1.7,9.3,1,13.7,3.3
	c4.8,2.7,10.2,4.4,15.7,5.1c0.9,0,1.7,0.2,2.6,0.4c2.8,1,4.2,4.5,4.6,7.8s0.3,6.6,1.7,9.5c1,2.2,2.9,3.8,4,5.9
	c3,5.7,0.1,13.6,3.2,19.2l-7.8-7.1c-0.7-0.6-1.7-1.3-2.5-0.8c-0.6,0.4-0.7,1.4-0.9,2.1c-0.8,2.2-3.5,2.9-5.5,2s-3.5-2.8-5-4.5
	c-3.4-4.1-7.5-7.6-12.3-9.4c-4.3-1.6-9-1.3-13,0.9c-3.6,2-6.3,6.8-10.7,7c-6.1,0.2-8.6-11.1-11.5-15.6c2.1-1.6,2.8-4.5,1.6-6.9
	C701.3,345.1,705.3,344.6,705.4,345.3z"/>
<path class="st5" d="M405.2,203.4c-2,1.7-3.8,3.6-5.4,5.7c-1.6,2.1-2.5,4.6-2.5,7.3c0,0.8,0.3,1.5,0.7,2.1c0.5,0.6,1.3,0.9,2,0.6
	c0.4-0.2,0.7-0.5,1-0.9c1.1-1.3,2.2-2.5,3.4-3.6c0.4-0.4,1-0.9,1.6-0.7c0.3,0.1,0.5,0.2,0.7,0.5c0.7,0.6,1.2,1.3,1.4,2.2
	c0.3,1.5-0.5,3.1-1.5,4.3s-2.2,2.4-2.6,3.9c-0.2,0.4-0.2,0.8,0,1.2c0.2,0.3,0.5,0.5,0.8,0.7c2.9,1.6,6.4,1.8,9.4,0.6
	c2-0.8,3.8-2.2,5.8-2.9c0.9-0.2,1.8-0.6,2.6-1c1.2-0.8,2-2,2.3-3.4c0.3-1.4,0.3-2.8,0.2-4.2c-0.2-5.4-1.4-10.8-3.4-15.8
	c-0.1-0.3-0.3-0.6-0.6-0.8c-0.3-0.2-0.6-0.3-1-0.3c-2.6-0.3-6.8-1.6-9.2-0.6c-0.9,0.5-1.6,1.1-2.2,1.9
	C408.1,200.5,405.2,202.8,405.2,203.4z"/>
<path class="st4" d="M404.4,201.2c0-2.4-3-8.3,1.8-8.7c0-2.6-3.7-4.2-3-7c0.2-0.9,1-1.7,1.1-2.6c0.3-2.7-4.5-4.1-3.7-6.7
	c0.3-1,1.4-1.6,1.6-2.6c0.5-2.3-3.6-3.3-3.7-5.7c0-0.8,0.5-1.5,0.4-2.4c0-1-0.9-1.8-1.3-2.6c-1.3-2.2-0.6-5.7-2.9-6.8
	c1.5,0.1,2-2.1,1.4-3.5s-1.9-2.6-1.9-4.1c0.1-0.6,0.1-1.1,0-1.7c-0.4-1.5-2.8-1.6-3.2-3c-0.1-0.5-0.1-1.1,0-1.6
	c-0.2-1.1-1.3-1.9-2.4-2.2c-1.1-0.2-2.2-0.6-3.2-1.1c-0.7-0.5-1.5-1.4-2.3-1c-0.3,0.2-0.4,0.5-0.6,0.7c-0.9,1-2.6,0.6-3.8-0.2
	c-3.3-2.3-5-6.3-5.7-10.3c-0.7-4-0.7-8.1-1.6-12c-0.3-1.2-0.6-2.4-1.1-3.6c-0.4-1-1.6-2.6-1.7-3.6c-0.2-2.3,4.6-0.7,6.4-0.5
	c1.8,0.2,3.5,0.5,5.2,1c1.8,0.7,3.6,1.5,5.3,2.3c7.2,3.2,15.9,3.6,21.7,8.9c1.9,1.8,3.5,4.1,6,4.9c1.1,0.2,2.3,0.5,3.4,0.9
	c2.8,1.3,3.2,4.9,4.7,7.6c0.5,0.7,0.9,1.4,1.2,2.2c0.3,0.9,0.4,1.9,0.4,2.8l0.2,6.9c0.3,11.6,0.7,23.3-0.6,34.8
	c-0.4,3.8-1,7.7,0.1,11.4c0.3,1,0.7,1.9,1,3c0.2,1.2,0.4,2.4,0.4,3.6l0.2,4.5c0.1,0.3,0,0.7-0.2,1c-0.3,0.3-0.8,0.4-1.2,0.3
	c-6.3-0.6-12.6-4.1-18.5-2"/>
<ellipse class="st0" cx="689.6" cy="535.5" rx="74" ry="10.7"/>
<linearGradient id="SVGID_1_" gradientUnits="userSpaceOnUse" x1="722.7078" y1="13.5601" x2="722.7078" y2="502.2139" gradientTransform="matrix(1 0 0 -1 -84.46 559.77)">
	<stop  offset="0" style="stop-color:#808080;stop-opacity:0.25"/>
	<stop  offset="0.54" style="stop-color:#808080;stop-opacity:0.12"/>
	<stop  offset="1" style="stop-color:#808080;stop-opacity:0.1"/>
</linearGradient>
<path class="st15" d="M753.2,536c-1.3-5.6-2.1-10.5-2.1-10.5s0.3-6.1-2.4-10.6v-1.5l0,0v-11.2c0.8-2,1.7-4,2.8-5.9
	c2-3.5,0-16.4,0-16.4s-7.5-18.2-5.7-29.7S730.5,399,730.5,399c0.1-3.8,0.6-7.6,1.6-11.3c0.2-0.8,0.3-1.6,0.2-2.4c0-0.1,0-0.2,0-0.3
	s0,0.1,0,0.1c-0.3-7.6-6.3-21.9-6.3-21.9l0.8-27.2c0,0,3.8-16-2.4-37.5c-2.2-7.5-3.6-13.5-4.5-18.2c-0.1-0.5-0.2-1-0.3-1.5
	c12.9-2,22.7-3.6,22.7-3.6s-7.5-31.3-12.5-36.8s-9.1-22.7-9.1-22.7s-2.6-22.1,1.6-28.5s4.8-17.6,4.8-17.6s9.7-7,10.9-10.2
	s3.2-10.2,3.2-13.9s-1.2-7-0.8-9s-2.8-9.4-1.2-12.9c0.4-1.1,0.6-2.2,0.6-3.4c0,0,0-0.1,0-0.1l0,0c0-3.1-0.3-6.2-0.8-9.2
	c-2.8-2.4-6.1-4.1-9.6-5.1l-0.2-0.8l-0.5-2.2c-0.3-0.2-0.6-0.4-1-0.6v-0.8l-0.1-3.2l1.5-7.1c3-12.4-13.6-14.3-13.6-14.3
	c-1-1.9-2.7-3.4-4.7-4.1c-3.3-1.2-0.5,18.7,1,20c1.2,1,4.8,7.2,6.5,10.2l0,0l0.3,0.5c-0.3,0.2-0.5,0.5-0.8,0.8l0.6,4.3l0.1,0.7
	c-1.1,1.4-2,2.9-2.7,4.5c0,0,3,3.3,2.4,7s0.9,8.4,1,8.6c-0.2-0.2-2.3-2.5-4.4-2s-8.1,2.3-8.1,2.3s-4.4,0.8-4,1.8c0.4,1-3,5.3-3,5.3
	l-11.9-11.3c-0.1-0.3-0.3-0.7-0.3-1c-0.5-1.6-0.8-3.3-1-5c1.3-0.3,2.6-0.7,3.8-1.2c1.3-0.4,2.4-1.2,3.3-2.1c1.2-1.4,1.4-3.4,1.9-5.1
	c0.9-3.5,3-6.6,4.4-9.9c2.4-5.6,3.2-11.8,2.3-17.8c-0.2-1.9-0.8-3.6-1.8-5.2c-2-2.7-5.5-3.8-8.1-5.9s-4.2-5.4-7.2-7
	c-2.7-1.4-6-1.3-9.1-0.8c-6,1-11.7,3.1-16.9,6.2c-1.7,1-3.7,2.2-5.7,1.9c-1.7-0.3-3-1.7-4.1-3c0-0.1,0-0.1,0-0.2
	c0,0-0.1-0.1-0.1-0.2c-1.3,2.8-1.9,5.9-1.9,8.9c0,0.5,0,1,0.1,1.4V80c0,0.1,0,0.3,0,0.4l0,0c0,0.2,0,0.4-0.1,0.6
	c-0.3,0.6-0.6,1.2-1.1,1.6c-0.4,0.4-0.7,0.9-1,1.3c0-0.2,0.1-0.3,0.2-0.5c-0.8,1.1-1.2,2.4-1.2,3.8c-0.1,1,0.3,1.9,0.9,2.7
	c0.6,0.6,1.3,1.1,2,1.6c-0.2,1.3-0.4,2.7-0.4,4c0,8.1,4.3,15.6,11.3,19.7c0.1,0.3,0.3,0.7,0.4,1c1.5,4,2.7,8.7,2.2,13
	c0,0.3-0.1,0.6-0.1,0.9s-0.3,0.3-0.4,0.5l0,0c0,0-19.7,0.2-24.4-4c-4.6-4.2-11.7,10.3-11.7,10.3s-7.1,1.4-8.5,0
	c-1.4-1.4-9.7-0.2-9.7-0.2c-3.4-3-7.8-4.6-12.3-4.5c-2.7-2.1-5.8-3.8-9-5l0,0l-0.2-0.1l0,0c-1.4-0.5-2.9-0.7-4.5-0.6
	c0,0-9.7-8-12.5-12.3S551.2,94,551.1,93.9v-0.8l-0.2-2.3c-0.4,0.1-0.8,0.1-1.2,0.1c-0.1-0.2-0.2-0.5-0.3-0.8
	c-0.8-2.3-1.7-4.5-2.9-6.6c0,0,0-2.9,0.8-3.7s-0.3-11.5-0.3-11.5s-8.7-20.4-16.6-5.2c0,0-14.8,9.9-2.4,21.4c0,0,5,2.4,5.7,4.3
	c0.5,1.2,2.1,4.7,3.3,7l0.5,1l-0.1,0.1l0.2,1.9l0.1,0.7c-2.3,1.3-3.9,2.6-3.5,3.6c0.7,1.7,1.2,3.5,1.4,5.3c0,0,17.2,21.5,19.4,30.7
	c0,0,46.1,27.4,61.2,29.3l-2.7,13.7c-0.4,3.7-0.6,7.4-0.6,11.1c0.2,2.9-1.8,16.2-1.8,16.2s-2.6,19.6-4.8,22.3s-1.8,14.5-1.8,14.5
	c-0.5,5.6-1.5,11.2-3,16.6c-2.2,7.4-0.6,16.6-0.6,16.6s-7.7,17.6,10.7,5.7c0,0,9-0.6,19.4-0.9c0,0.3,0,0.7,0,1c0,1.3,0,2.8-0.1,4.3
	c-0.1,10.1-0.2,24,0.3,34.5c0.8,18.6,6.5,55.4,6.5,55.4v18.5c-0.4,1.7-0.5,3.5-0.5,5.3c-0.1,6.5,1.6,12.9,5,18.5l1.4,12.3
	c0,0,3.3,8.1,3.4,13c0,0.4-0.1,0.8-0.1,1.2c-0.1,0.6-0.2,1.3-0.2,1.9c-0.2,5.6,3.2,19,3.2,19s0.2,13.5,2.2,14.3
	c1.7,0.7-2.3,7.8-3.5,9.8c0-0.1-0.1-0.3-0.1-0.4l-0.3,0.4c-0.4,1.1-0.6,2.3-0.6,3.4c-0.2,1.9,0.6,3.7,2.2,4.7
	c3.8,2.3,5.9,4.3,2.6,5.1c-1.2,0.2-2.4,0.4-3.6,0.8c0-0.2-0.1-0.3-0.2-0.5c-0.9,0.4-1.5,1.4-1.3,2.4c0,1.6,0.4,3.1,1.2,4.5
	c3.2,7.2,5.5,10,5.5,10l1.5-0.2c-0.2,0.6-0.5,1.2-0.9,1.7c-0.6,0.8-1.4,1.5-2.3,2c-0.8,0.5-1.8,0.8-2.8,1c-2.2,0.1-4.3,1.1-5.7,2.8
	c-2,2.6-3.3,6.2,0.7,9.3l14.5,5c0,0,24.9,3.2,23.5-2.3s-2.1-10.5-2.1-10.5c0.1-3.4-0.6-6.8-2-9.9c-0.3-0.5-0.6-1-0.9-1.5l0.9-0.1
	c0,0,1.8-12.3,4.2-14.7c0.6-0.5,0.7-1,0.6-1.3c0.3-0.7-0.4-1.1-1.2-1.3l-0.2,0.5c-0.8-0.2-1.6-0.3-2.4-0.3c0,0-0.8-6.5,1.8-8.8
	c0.4-0.5,0.6-1.2,0.5-1.9c0-0.9-0.1-1.8-0.3-2.6c0,0.1-0.1,0.1-0.1,0.2c-1.3-5.9-5.8-15.2-5.8-15.2s-0.2-5.9,1.4-8.2
	s-0.2-31.9-0.2-31.9s0.6-14.3-1.2-20.9s2.2-14.5,2.2-14.5s0-0.2,0-0.4v-0.1l-0.2-2.3c0,0,0,0.1,0,0.1c-0.4-3.8-1.2-10.6-1.8-13.8
	c-0.8-4.5,0.2-26,0.2-26l3.6-9.2l6.5,15.9l6.9,21.1c0,0,3.4,4.5,3.5,9c0,0.2,0,0.4,0,0.7c-0.1,0.5-0.1,0.9-0.1,1.4
	c-0.1,2.7,0.6,5.3,2.1,7.5c0,0,1.8,10,4.7,12.5s2.8,7.4,2.8,7.4s3.4,14.5,5,17c1.4,2.1,1.4,8,1.4,9.8l0,0c0,0.3,0,0.5,0,0.5
	s0.5,5.2,0.5,9.5c0,0.5,0,1.1,0,1.5c0,0,0-0.1,0-0.1c0,1.2-0.1,2.4-0.4,3.5l-0.1,0.2c0-0.3,0-0.5,0.1-0.7c-0.7,2.9-1,6-1,9
	c-0.1,5.2,0.7,11.4,3.8,15c5.5,6.3,8.9,5.5,8.9,5.5s-2.6,7.8-5.9,9.4c-0.1,0.1-0.2,0.1-0.3,0.2c0-0.2-0.1-0.3-0.1-0.5
	c-0.7,0.8-1.1,1.8-1,2.9c-0.2,3.4,1.9,9,4,11.6c0.8,0.7,1.7,1.3,2.7,1.6c-0.2,0.1-0.3,0.2-0.5,0.3c-0.4,0.2-0.7,0.4-1.1,0.5
	c-0.5,0.2-1.1,0.4-1.7,0.4c-2.2,0.1-4.3,1.1-5.7,2.8c-2,2.6-3.3,6.2,0.7,9.3l14.5,5C729.8,538.4,754.5,541.6,753.2,536z"/>
<path class="st16" d="M658.3,545.3l-14-5c-3.9-3.1-2.6-6.7-0.7-9.3c1.4-1.7,3.4-2.7,5.5-2.8c0.9-0.1,1.9-0.4,2.7-1
	c0.9-0.5,1.6-1.2,2.2-2c1-1.6,1.6-3.5,1.6-5.4c0,0,15.4-4.5,19.6,0c0.7,0.8,1.4,1.7,1.9,2.7c1.4,3.1,2.1,6.5,2,9.9
	c0,0,0.8,4.9,2,10.5S658.3,545.3,658.3,545.3z"/>
<path class="st16" d="M726.8,538.4l-14-5c-3.9-3.1-2.6-6.7-0.7-9.3c1.3-1.7,3.4-2.7,5.5-2.8c0.6-0.1,1.1-0.2,1.6-0.4
	c0.4-0.2,0.7-0.3,1.1-0.5c3.9-2.2,3.8-7.4,3.8-7.4s15.3-4.5,19.6,0c0.6,0.6,1.1,1.3,1.5,2c2.6,4.5,2.3,10.6,2.3,10.6s0.8,4.9,2,10.5
	S726.8,538.4,726.8,538.4z"/>
<path class="st6" d="M675.2,519.8c0.7,0.8,1.4,1.7,1.9,2.7l0,0l-23,2.7c1-1.6,1.6-3.5,1.6-5.4C655.7,519.8,671,515.3,675.2,519.8z"
	/>
<path class="st6" d="M745.2,514.9v4.3c-3.6,5.9-20.9,4.6-25.9,1.7c0.4-0.2,0.7-0.3,1.1-0.5c3.9-2.2,3.8-7.4,3.8-7.4s15.3-4.5,19.6,0
	C744.3,513.5,744.7,514.2,745.2,514.9z"/>
<path class="st4" d="M747.9,496.4c-1.1,1.9-2,3.8-2.7,5.9v15.5c-3.9,6.5-24.3,4.3-27,0.8s-5.6-12.7-2.5-14.3s5.7-9.4,5.7-9.4
	s-3.3,0.8-8.6-5.5s-3.7-20.1-2.7-23.5s0-14.5,0-14.5s0.2-7.8-1.4-10.4s-4.9-17-4.9-17s0-4.9-2.7-7.4s-4.5-12.5-4.5-12.5
	c-1.6-2.5-2.3-5.5-2-8.4c0.6-4.9-3.3-10.2-3.3-10.2l-6.7-21.1l-6.3-15.8l-3.5,9.2c0,0-1,21.5-0.2,26s2,16.4,2,16.4
	s-3.9,7.8-2.2,14.5s1.1,20.9,1.1,20.9s1.8,29.5,0.2,31.9s-1.4,8.2-1.4,8.2s8,17.2,5.5,19.5s-1.8,8.8-1.8,8.8s5.5,0,3.1,2.3
	s-4.1,14.7-4.1,14.7l-23.7,2.8c0,0-2.2-2.7-5.3-10c-3.1-7.3,0.6-6.5,3.7-7.2s1.2-2.7-2.6-5.1s-1.6-7.6-1.6-7.6s5.7-9.6,3.7-10.4
	s-2.2-14.3-2.2-14.3s-3.9-16-2.9-20.3s-3.1-14.7-3.1-14.7l-1.4-12.3c-4.2-7-5.7-15.3-4.3-23.3v-19c0,0-5.5-36.8-6.3-55.3
	c-0.5-11.9-0.4-28.1-0.2-38.3c0.1-5.7,0.2-9.5,0.2-9.5l84.5-8.8c0,0-0.1,3.9,1.5,12.5c0.9,4.6,2.2,10.6,4.3,18.2
	c6.1,21.5,2.3,37.5,2.3,37.5l-0.8,27.2c0,0,7.4,18.2,5.9,24.4c-0.9,3.7-1.5,7.5-1.6,11.4c0,0,16.6,39.7,14.9,51.2s5.5,29.7,5.5,29.7
	S749.8,492.8,747.9,496.4z"/>
<path class="st13" d="M699.6,394.5l25.7-3.4C725.3,391,710.7,405.9,699.6,394.5z"/>
<path class="st6" d="M721.6,365.9c0,0,0.9,9.1-4.7,12.5C716.9,378.4,726.9,376.9,721.6,365.9z"/>
<path class="st6" d="M720,337c0,0-21.5,17.7-29.3,16.2S720,337,720,337z"/>
<path class="st6" d="M667.7,402.8c0,0-16.3,3.7-16.8,10.3S667.7,402.8,667.7,402.8z"/>
<path class="st13" d="M671.3,484.3c0,0-23.1,4.3-16.5,7.2s17.3,5.3,17.3,5.3S679.5,497.2,671.3,484.3z"/>
<g class="st17">
	<path d="M650.1,496.2c-1.2-0.7-2-2-2.1-3.3l-0.2,0.4c0,0-2.2,5.3,1.6,7.6c0.4,0.3,0.8,0.5,1.2,0.8c0.7-0.1,1.4-0.2,2.1-0.4
		C655.8,500.5,653.8,498.6,650.1,496.2z"/>
	<path d="M679.8,494.6c0.6-0.6,0.6-2.1,0.2-4c-1,1.5-1.3,3.9-1.3,5.7C679,495.7,679.4,495.1,679.8,494.6z"/>
	<path d="M676.3,397.4c-0.8,2.3-1.4,4.7-1.6,7.2c0.4-1.7,1-3.4,1.8-4.9L676.3,397.4z"/>
	<path d="M729.1,387.1c0.2-0.7,0.2-1.4,0.2-2.1c-0.3,1.5-0.5,2.8-0.6,4C728.8,388.3,729,387.8,729.1,387.1z"/>
	<path d="M675.7,466.9c0.3-0.5,0.5-2.1,0.6-4.3c-0.7,1.7-1.1,3.6-1.1,5.5C675.3,467.6,675.5,467.2,675.7,466.9z"/>
	<path d="M680.5,503.8c-1.2,3.9-2.1,7.9-2.7,12l-23.7,2.7c0,0-2.2-2.7-5.3-10c-0.3-0.6-0.5-1.1-0.7-1.7c-1.4,0.7-2,2.1-0.1,6.4
		c3.1,7.2,5.3,10,5.3,10l23.7-2.7c0,0,1.8-12.3,4.1-14.7C682.4,504.6,681.6,504.1,680.5,503.8z"/>
	<path d="M649.3,468.6c0,0,0.2,13.5,2.2,14.3l0,0c1-2.2,1.7-4.3,0.8-4.7c-2-0.8-2.2-14.3-2.2-14.3s-3.9-16-2.9-20.3
		s-3.1-14.7-3.1-14.7l-1.4-12.3c-4.2-7-5.7-15.3-4.3-23.3v-19c0,0-5.5-36.8-6.3-55.3c-0.5-11.9-0.4-28.1-0.2-38.3
		c0-1.8,0.1-3.5,0.1-4.8l-0.7,0.1c0,0-0.1,3.8-0.2,9.5c-0.2,10.1-0.3,26.4,0.2,38.3c0.8,18.6,6.3,55.4,6.3,55.4v19
		c-1.4,8,0.1,16.3,4.3,23.3l1.4,12.3c0,0,4.1,10.4,3.1,14.7S649.3,468.6,649.3,468.6z"/>
	<path d="M719,513.2c-1.9-2.8-3.2-6-3.8-9.3c-2.4,2.2,0.4,10.6,3,14c2.7,3.5,23.1,5.7,27-0.8v-3.7
		C739.9,518.7,721.5,516.6,719,513.2z"/>
	<path d="M748.7,491.1c-1.1,1.9-2,3.8-2.7,5.9v2.8c0.5-1,1.1-2.3,2-3.9c0.6-1.5,0.9-3.2,0.9-4.8C748.8,491,748.7,491.1,748.7,491.1z
		"/>
	<path d="M720.2,494.2c0.7-1.5,1.4-3.1,1.9-4.7c0,0-3.3,0.8-8.6-5.5c-3.8-4.5-4.1-13.2-3.5-18.8c-1,3.3-2.5,17.2,2.7,23.5
		C716.1,492.9,718.8,494,720.2,494.2z"/>
	<path d="M710,450.9c0.3,3.9,0.5,7.7,0.4,11.6c0.1-0.6,0.2-1.2,0.4-1.8c1-3.3,0-14.5,0-14.5s0.2-7.8-1.4-10.4s-4.8-17-4.8-17
		s0-4.9-2.7-7.4s-4.5-12.5-4.5-12.5c-1.6-2.5-2.3-5.5-2-8.4c0.6-4.9-3.3-10.2-3.3-10.2l-6.7-21.1l-6.3-15.8l-3.5,9.2
		c0,0,0,1.2-0.1,3l2.9-7.5l6.3,15.8l6.7,21.1c0,0,3.9,5.3,3.3,10.2c-0.3,3,0.4,5.9,2,8.4c0,0,1.8,10,4.5,12.5s2.7,7.4,2.7,7.4
		s3.3,14.5,4.9,17S710,450.9,710,450.9z"/>
</g>
<path class="st18" d="M726.4,91l-1.5,7.1l0.1,3.2l0.1,2.3l-8.2,0.8l-0.9-1.7l0,0c-1.7-3.1-5.2-9.3-6.3-10.2
	c-1.5-1.3-4.2-21.1-1-19.9c2,0.8,3.6,2.2,4.5,4.1C713.2,76.8,729.3,78.6,726.4,91z"/>
<path class="st6" d="M725.1,103.7l-8.2,0.8l-0.9-1.7l0,0c2.3-2.6,6-3.2,9-1.5L725.1,103.7z"/>
<path class="st2" d="M727.1,107.6l-10.8,2.5l-0.2-1.6l-0.6-4.3c0,0,4.3-5.7,10.4-1.4l0.5,2.2L727.1,107.6z"/>
<path class="st18" d="M552.8,91.8L541.3,98l-1-2.2c-1.1-2.3-2.7-5.7-3.2-7c-0.7-1.9-5.5-4.3-5.5-4.3c-12-11.5,2.3-21.4,2.3-21.4
	c7.6-15.3,16,5.2,16,5.2s1.2,10.8,0.3,11.5s-0.8,3.7-0.8,3.7c1.1,2.1,2,4.3,2.8,6.6C552.6,91.2,552.8,91.8,552.8,91.8z"/>
<path class="st6" d="M552.8,91.8L541.3,98l-1-2.2c1.6-1.4,7.4-6,9.3-5.8c0.9,0.1,1.8,0.1,2.7,0.1C552.6,91.2,552.8,91.8,552.8,91.8z
	"/>
<path class="st2" d="M554,95.3l-12.9,6.4l-0.3-2.8l-0.2-1.9c0,0,7.5-6.4,9.7-6.2c1.1,0.2,2.3,0.2,3.4,0l0.2,2.3L554,95.3z"/>
<path class="st18" d="M695.1,138.5c0,0-56.3,6.4-45.8,2.9c7.3-2.4,10.2-7,10.8-12.2c0.5-4.3-0.6-9-2.1-13c-1.3-3.5-3-7-5-10.2
	c0,0,43-23.7,34.4-2.1c-1.3,3.3-2.1,6.7-2.4,10.2c-0.3,3.5,0.1,7,1.1,10.3C687.8,129.8,690.9,134.7,695.1,138.5z"/>
<path class="st6" d="M687.5,103.9c-1.3,3.3-2.1,6.7-2.4,10.2c-4,3.4-8.5,3.2-14.2,3.2c-4.4,0-9.2,1.1-12.7-1.1c-1.3-3.5-3-7-5-10.2
	C653.1,106,696.1,82.3,687.5,103.9z"/>
<circle class="st18" cx="670.1" cy="95.5" r="23.3"/>
<path class="st6" d="M695.1,138.5c0,0-56.3,6.4-45.8,2.9c7.3-2.4,10.2-7,10.8-12.2c2.8-3,8.4-5.2,12-6.4c3.3-1.1,6.9-1.2,10.2-0.2
	c1.3,0.4,2.6,1,3.7,1.7C687.7,129.8,690.8,134.7,695.1,138.5z"/>
<path class="st6" d="M727.1,107.6l-10.8,2.5l-0.2-1.6c2.4-3.2,6.5-4.7,10.3-3.5L727.1,107.6z"/>
<path class="st6" d="M554,95.3l-12.9,6.4l-0.3-2.8c4.2-2.2,8.5-4.2,13-5.8L554,95.3z"/>
<path class="st6" d="M717.3,280.3c-21.8,3.5-52.8,7.9-57.7,6.4c-4.1-1.2-17.1-1.1-28.5-0.7c0.1-5.7,0.2-9.5,0.2-9.5l84.5-8.8
	C715.8,267.7,715.7,271.6,717.3,280.3z"/>
<path class="st14" d="M739.1,275.2c0,0-71.8,12.3-79.5,10s-47.3,0.2-47.3,0.2c-17.8,11.9-10.4-5.7-10.4-5.7s-1.6-9.2,0.6-16.6
	c1.4-5.5,2.4-11,3-16.6c0,0-0.4-11.7,1.8-14.5s4.7-22.3,4.7-22.3s2-13.3,1.8-16.2s0.6-11.1,0.6-11.1l2.5-13.7
	c-14.7-2-59.3-29.3-59.3-29.3c-2.2-9.2-18.8-30.7-18.8-30.7c-0.2-1.8-0.7-3.6-1.4-5.3c-1.2-3.1,16.4-9.4,16.4-9.4s13.1,16,15.8,20.3
	s12.1,12.3,12.1,12.3c1.5-0.1,2.9,0,4.3,0.6l0.2,0.1l0,0c3.1,1.2,6.1,2.9,8.8,5c4.4-0.1,8.7,1.5,11.9,4.5c0,0,8-1.2,9.4,0.2
	s8.2,0,8.2,0s6.8-14.5,11.3-10.3c4.5,4.2,23.6,4,23.6,4c2.5-3.4,8.7-5.8,12.6-7c3.3-1.1,6.9-1.2,10.2-0.2c1.4,0.4,2.8,1.1,4,2
	l11.6,11.3c0,0,3.3-4.3,2.9-5.3s3.9-1.8,3.9-1.8s5.7-1.8,7.8-2.4s4.1,1.7,4.3,1.9c-0.1-0.3-1.5-5-1-8.6s-2.3-7-2.3-7
	c6.8-16.8,22.3-2.7,22.3-2.7s1.8,9.2,0.2,12.7s1.6,11,1.2,12.9s0.8,5.3,0.8,9s-2,10.8-3.1,13.9s-10.6,10.2-10.6,10.2
	s-0.6,11.1-4.7,17.6s-1.5,28.5-1.5,28.5s3.9,17.2,8.8,22.7S739.1,275.2,739.1,275.2z"/>
<path class="st6" d="M634.5,146.5c0,0-2.2-6.5-4.1-7c-1.9-0.7-3.8-1.6-5.7-2.5l1.3-2.4c0,0,7.3,2,8.5,4.2S634.5,146.5,634.5,146.5z"
	/>
<path class="st6" d="M595.2,132.2c-0.4,2-17.8,3.7-17.8,3.7l8.8-8.8l0,0l0.2,0.1l0,0C589.5,128.4,592.5,130.1,595.2,132.2z"/>
<circle class="st19" cx="544.8" cy="105.4" r="1.6"/>
<circle class="st19" cx="546.8" cy="108.5" r="1.6"/>
<circle class="st19" cx="548.8" cy="111.4" r="1.6"/>
<circle class="st19" cx="550.8" cy="114.5" r="1.6"/>
<circle class="st19" cx="735.2" cy="114.3" r="1.3"/>
<circle class="st19" cx="735.3" cy="117.2" r="1.3"/>
<circle class="st19" cx="735.5" cy="120.1" r="1.3"/>
<path class="st6" d="M634.5,199.5c-0.2-0.2,43.9,55.4,78.1,23.3C712.7,222.8,658.6,230.1,634.5,199.5z"/>
<path class="st6" d="M609.2,228.4c0,0,26.4,0.7,29.1,8.3v7.9c-1.5,0.8-3.4,0.8-4.9,0c-2.7-1.4-18.6-9.5-24.2-5.6L609.2,228.4z"/>
<path class="st14" d="M609.7,228.4c0,0,25.2,0.7,27.9,7.9v7.5c-1.5,0.8-3.2,0.8-4.7,0c-2.5-1.4-17.8-9.1-23.2-5.4V228.4z"/>
<path class="st6" d="M623.6,171.1c2.7,6.2,6.1,12.1,10.2,17.5c4.5,6,9.9,11.2,16,15.5C649.9,204.2,624.1,174.8,623.6,171.1z"/>
<path class="st6" d="M615,140.5c0,0,4.4,19,15.7,25.5L615,140.5z"/>
<path class="st6" d="M608.3,142.4c-0.1-0.4-3.9,15,14.6,23.5C622.9,165.9,615,163.3,608.3,142.4z"/>
<path class="st6" d="M723.4,129.7c-0.3,0,9.1,6,11.7,8.8C735.2,138.5,729,129.3,723.4,129.7z"/>
<path class="st16" d="M663.8,116.5c0,2,1.7,3.7,3.7,3.6c0.1,0,0.2,0,0.3,0c7.1,0.4,14.5,0.8,21-2c1.2-0.4,2.3-1.2,3.2-2.1
	c1.2-1.4,1.4-3.4,1.9-5.1c0.9-3.5,2.9-6.6,4.3-9.9c2.4-5.6,3.2-11.7,2.3-17.8c-0.2-1.8-0.8-3.6-1.8-5.2c-1.9-2.7-5.3-3.8-7.8-5.9
	s-4.1-5.4-7-7c-2.6-1.5-5.8-1.3-8.8-0.8c-5.8,1-11.4,3.1-16.4,6.1c-1.7,1-3.5,2.2-5.5,1.9c-1.7-0.3-2.9-1.8-4-3.1
	c-1.4,3.2-1.9,6.7-1.7,10.1c0.1,0.5,0.1,1,0,1.5c-0.2,0.6-0.6,1.2-1.1,1.6c-1.8,2-2.8,5.3-1.1,7.3c0.8,0.9,1.9,1.4,2.6,2.3
	c1.3,1.6,0.9,4,0.8,6.1c-0.1,0.7,0.1,1.5,0.5,2.1c0.8,0.7,1.9,1,2.9,0.7c1-0.3,2-0.4,3.1-0.3c1.1,0.4,2,1.1,2.7,2
	C661.1,106.9,662.4,111.5,663.8,116.5z"/>
<g class="st20">
	<path d="M692.8,114.3c-0.9,1-2,1.7-3.2,2.1c-6.6,2.7-13.9,2.4-21,2c-0.8,0-1.5-0.2-2.2-0.5c-1.1-0.6-1.5-1.9-1.8-3.1
		c-1.4-5-2.7-9.6-5.9-13.8c-0.6-1-1.6-1.7-2.7-2.1c-1-0.1-2.1,0-3.1,0.3c-1,0.3-2.1,0-2.9-0.7c-0.4-0.6-0.6-1.3-0.5-2.1
		c0-2.1,0.5-4.4-0.8-6.1c-0.7-0.9-1.9-1.4-2.6-2.3c-1-1.4-1.2-3.1-0.5-4.7c-1.3,2-1.8,4.5-0.3,6.2c0.8,0.9,1.9,1.4,2.6,2.3
		c1.3,1.6,0.9,4,0.8,6.1c-0.1,0.7,0.1,1.5,0.5,2.1c0.8,0.7,1.9,1,2.9,0.7c1-0.3,2-0.4,3.1-0.3c1.1,0.4,2,1.1,2.7,2
		c3.3,4.2,4.5,8.8,5.9,13.8c0.2,1.2,0.8,2.4,1.7,3.2c0.7,0.3,1.4,0.5,2.2,0.5c7.1,0.4,14.5,0.8,21-2c1.2-0.4,2.3-1.2,3.2-2.1
		c0.4-0.6,0.8-1.2,1-1.9C692.9,114.1,692.9,114.2,692.8,114.3z"/>
	<path d="M647.5,80.4c0.3-0.3,0.6-0.7,0.7-1.2c0.1-0.5,0.1-1,0-1.5c-0.2-2.9,0.2-5.7,1.1-8.4l-0.1-0.1c-1.4,3.2-1.9,6.7-1.7,10.1
		C647.6,79.6,647.6,80,647.5,80.4z"/>
</g>
<path class="st6" d="M659.6,130.6c0,0,29.1,3.9,31.7-0.5"/>
<path class="st6" d="M716.1,118.6c0,0,16.2,0,19.7,6.1"/>
<path class="st14" d="M806.5,658.8c-4.8,4.3-11,6.6-17.5,6.5c-1.6,0-3.9,0.3-3.9,2c0,0.5,0.2,0.9,0.5,1.3c2,3.4,5.2,5.9,9,7.1
	c3.5,1.1,7.2,0.9,10.9,0.7l10.7-0.5c2-0.1,4-0.2,6-0.5s4.2-0.7,6.3-1c5.1-0.7,10.3-1,15.5-0.7c1.4,0,3,0,3.8-1s0.4-2.9,0.1-4.4
	c-0.6-3.1,0-6.3-0.6-9.4c-1-5.4-5.7-9.6-10.9-11.6c-4.8-1.8-13.3-3.9-17.8-0.9C813.8,649.5,810.9,654.8,806.5,658.8z"/>
<path class="st4" d="M817.1,476.5c0.9,4.5,5.3,7.9,5.4,12.5c0.1,3.7-2.5,6.7-4.4,9.9c-1.8,3.2-3.3,6.6-4.5,10.1
	c-3.5,9.1-7.9,17.8-13.1,26.1c-2.5,4-5.3,8.3-4.7,12.9c0.4,2.2,1.2,4.3,2.3,6.2l7.5,14.9c1.6,3,2.9,6.1,3.8,9.4
	c0.7,2.8,0.7,5.8,1.1,8.6c1.2,9.1,5.5,18.3,2.9,27.2c-0.2,0.8-1,1.7-1.6,1.2c2.5,4.6,4.5,9.3,4.3,14.5c-0.1,2.8-0.9,5.6,0.1,8.2
	c0.4,1.1,1.2,2.1,1.2,3.2c0,0.8-0.3,1.5-0.4,2.2c-0.2,2.1,1.7,3.9,3.7,4.5s4.2,0.6,6.2,1.2c3.9,1.2,6.7,4.5,10,6.9
	c3.4,2.3,7.4,3.6,11.5,3.8c0.6,0.1,1.2-0.1,1.7-0.3c0.6-0.5,0.9-1.3,0.9-2.1c0.4-3.8-1.2-7.5-4.1-9.9c-0.6-0.4-1.2-0.9-1.5-1.6
	c-0.2-0.6-0.2-1.2-0.1-1.8c0.6-8.2,0.5-16.4-0.4-24.6c-0.4-2.6-0.5-5.2-0.4-7.8c0.2-2.2,0.9-4.3,0.6-6.5s-1.3-4.2-2-6.2
	c-1.2-3.7-0.8-7.7-1-11.6c-0.2-6.8-1.8-13.4-3.3-20c-0.6-2.6-1.3-5.3-3.1-7.2c-1.6-1.6-4.1-3.2-3.5-5.4c0.3-0.8,0.8-1.5,1.4-2.1
	c1.5-1.8,2.1-4.2,1.8-6.5c1.4,0.3,2.8-0.3,3.4-1.6c12.2-5.8,22-17.3,26.4-30c0.3-0.9,0.7-1.9,1.2-2.7c1.1-1.6,3.1-2.3,4.8-3.1
	c5.5-2.8,9.2-7.9,12.7-12.9c2-2.9,4-5.9,4.9-9.4c0.5-2.2,0.7-4.5,0.7-6.8l0.3-11.8c0.1-0.8,0-1.6-0.2-2.3c-0.3-0.7-0.7-1.3-1.3-1.9
	c-3.3-3.5-7.7-5.9-12.5-6.7c-3.2-0.6-6.5-0.5-9.7-0.7c-6.3-0.5-12.5-2.5-18.8-2c-9.9,0.7-18.7,7.6-23.3,16.3
	C822.3,473.8,820.6,476.4,817.1,476.5z"/>
<path class="st11" d="M762.3,400.1c0.1,1.8-0.1,3.6-0.7,5.3c-0.8,1.6-2.7,2.9-4.4,2.3c0.5-1.2-0.8-2.5-2.1-2.3
	c-1.3,0.3-2.3,1.2-2.8,2.4c-0.8,1.7-1.1,3.6-0.8,5.4c0.4,2.3,1.7,4.5,1.4,6.8c-0.3,1.9-1.7,3.8-0.9,5.6c0.5,0.8,1.1,1.5,1.8,2.2
	c2.1,2.5,1.8,6.2-0.7,8.4l18.9,0.4c-0.7,3.2,0.7,6.4,2.3,9.2c9.2,15.7,25.2,26.1,43.2,28.2c-1.8,1-2.4,3.3-1.4,5.1
	c0.1,0.2,0.3,0.4,0.4,0.6c1.5,1.5,4.2,1.3,6.1,0.3s3.4-2.6,5.2-3.9c3.1-2.2,6.9-3.2,10.7-2.9c2.4,0.2,4.7,1,7,1.1
	c7,0.4,13-4.7,19.7-6.7c4.9-1.5,10.5-1.5,14.6-4.6c1.8-1.3,3.2-3.5,2.7-5.6c-0.4-1.2-1.1-2.4-2-3.3c-2.4-3.1-3.8-6.8-5.5-10.3
	c-3.4-6.9-8-13.1-13.7-18.3c-4.3-3.7-8.8-7.2-13.6-10.3c-1.1-0.8-2.4-1.6-3.7-2.2c-1.7-0.7-3.5-1.1-5-2c-2.2-1.4-3.5-3.9-5.2-5.9
	c-3.8-4.4-9.5-6.4-14.1-9.8c-3.1-2.3-5.8-5.4-9.5-6.5c-1.8-0.5-3.7-0.6-5.5-1.1c-4.1-1.2-7.1-4.9-11.1-6.3c-3.2-1.2-6.7-0.9-10-1.3
	c-3.8-0.5-7.3-1.8-10.4-4c-1-0.8-2.1-1.5-3.3-1.9c-5.1-1.5-5.5,7.9-6,11.2C763.5,390.4,762.3,395.2,762.3,400.1z"/>
<path class="st12" d="M767.3,431.8c0.8,9.2-6.1,18.2-4.1,27.2c0.4,1.9,1.3,3.8,1.6,5.7c0.8,5.3-2.3,10.4-5.4,14.9L733.1,518
	c-1.1,1.7-2.3,3.2-3.7,4.6c-5,4.5-12.5,4-19.1,5.3c-4.6,0.9-9,2.9-12.8,5.7c-0.4,0.3-0.4,0.8-0.2,1.2c2.2,3,5.8,4.7,9.5,4.5
	c0.7,0.9,0,2.2-1,2.9c-1.4,1-3.3,1.2-3.6,3.6c-0.1,0.8,0.1,1.7,0.5,2.4c1.1,1.6,2.7,2.8,4.6,3.2c9.1,2.8,18.9-2.1,25.7-8.7
	s11.7-15,18.3-21.7c3.7-3.7,7.9-6.9,11.7-10.6c7.6-7.2,13.5-16,19.2-24.8c1.7-2.7,3.4-5.4,4.2-8.4s0.4-6.2,1.2-9.2
	c1.1-3.9,3.9-7,6.3-10.3c4.7-6.4,7.8-14.2,7.1-22.1s-5.5-15.7-12.9-18.3c-2.3-0.9-4.8-1.1-7.3-0.4c-3,0.9-5.3,3.5-7.4,5.9l-5,5.7
	c-1.2,1.3-2.2,2.8-2.8,4.4c-0.7,1.7-0.3,3.6,1,4.9"/>
<path class="st21" d="M780.5,393.9c-3.4,0.2-7.2,0.5-9.7,3c-1,1.1-1.8,2.4-2.4,3.8c-2.4,4.8-4.7,9.8-4.8,15.2
	c-0.1,4.3,1.1,8.5,1.8,12.7c0.5,3.5-0.8,7.1-1.1,10.7c4.3-1.3,9.9-3.1,13.8-5.3c2.6-1.5,5.2-3.2,8.1-4.2c4.1-1.4,11,1,14.9,2.9
	c0.2-2.7-1.8-7.5-1.6-10.3c0-1.2,0.2-2.3,0.6-3.4c0.6-1.2,1.3-2.3,2.1-3.3c3.1-5,2.6-11.3-1.2-15.8c-3.5-3.9-8.9-5.4-14.1-6
	c-3.3-0.4-6.5-0.5-9.8-0.3"/>
</svg>
