<?xml version="1.0" encoding="utf-8"?>
<!-- Generator: Adobe Illustrator 23.0.1, SVG Export Plug-In . SVG Version: 6.00 Build 0)  -->
<svg version="1.1" id="Layer_1" xmlns="http://www.w3.org/2000/svg" xmlns:xlink="http://www.w3.org/1999/xlink" x="0px" y="0px"
	 viewBox="0 0 1562.5 976.7" style="enable-background:new 0 0 1562.5 976.7;" xml:space="preserve">
<style type="text/css">
	.st0{fill:none;stroke:#FFFFFF;stroke-width:5.6739;stroke-linecap:round;stroke-miterlimit:10;}
	.st1{fill:#21c87a;}
	.st2{opacity:0.1;fill:#00C9A7;enable-background:new    ;}
	.st3{clip-path:url(#SVGID_2_);fill:none;stroke:#E7EAF3;stroke-width:5.6739;stroke-miterlimit:10;}
	.st4{clip-path:url(#SVGID_4_);fill:none;stroke:#E7EAF3;stroke-width:5.6739;stroke-miterlimit:10;}
	.st5{clip-path:url(#SVGID_6_);fill:none;stroke:#E7EAF3;stroke-width:5.6739;stroke-miterlimit:10;}
	.st6{clip-path:url(#SVGID_8_);fill:none;stroke:#E7EAF3;stroke-width:5.6739;stroke-miterlimit:10;}
	.st7{clip-path:url(#SVGID_10_);fill:none;stroke:#E7EAF3;stroke-width:5.6739;stroke-miterlimit:10;}
	.st8{clip-path:url(#SVGID_12_);fill:none;stroke:#E7EAF3;stroke-width:5.6739;stroke-miterlimit:10;}
	.st9{clip-path:url(#SVGID_14_);fill:none;stroke:#E7EAF3;stroke-width:5.6739;stroke-miterlimit:10;}
	.st10{clip-path:url(#SVGID_16_);fill:none;stroke:#E7EAF3;stroke-width:5.6739;stroke-miterlimit:10;}
	.st11{clip-path:url(#SVGID_18_);fill:none;stroke:#E7EAF3;stroke-width:5.6739;stroke-miterlimit:10;}
	.st12{clip-path:url(#SVGID_20_);fill:none;stroke:#E7EAF3;stroke-width:5.6739;stroke-miterlimit:10;}
	.st13{clip-path:url(#SVGID_22_);fill:none;stroke:#E7EAF3;stroke-width:5.6739;stroke-miterlimit:10;}
	.st14{opacity:0.5;}
	.st15{opacity:0.5;fill:none;stroke:#21c87a;stroke-width:3.4043;stroke-miterlimit:10;}
	.st16{fill:none;stroke:#E7EAF3;stroke-width:1.3996;stroke-miterlimit:10;}
</style>
<g>
	<line class="st0" x1="2.8" y1="911.6" x2="22.5" y2="892.3"/>
	<line class="st0" x1="22.5" y1="911.6" x2="2.8" y2="892.3"/>
</g>
<circle class="st1" cx="1465.2" cy="443.7" r="13.2"/>
<circle class="st2" cx="1158" cy="9.5" r="9.5"/>
<g>
	<g>
		<g>
			<defs>
				<polygon id="SVGID_1_" points="1340,788.7 1350.9,911.6 1451.9,840.9 				"/>
			</defs>
			<clipPath id="SVGID_2_">
				<use xlink:href="#SVGID_1_"  style="overflow:visible;"/>
			</clipPath>
			<line class="st3" x1="1268.1" y1="825.4" x2="1398.6" y2="733.4"/>
		</g>
	</g>
	<g>
		<g>
			<defs>
				<polygon id="SVGID_3_" points="1340,788.7 1350.9,911.6 1451.9,840.9 				"/>
			</defs>
			<clipPath id="SVGID_4_">
				<use xlink:href="#SVGID_3_"  style="overflow:visible;"/>
			</clipPath>
			<line class="st4" x1="1275.3" y1="836" x2="1406.2" y2="744"/>
		</g>
	</g>
	<g>
		<g>
			<defs>
				<polygon id="SVGID_5_" points="1340,788.7 1350.9,911.6 1451.9,840.9 				"/>
			</defs>
			<clipPath id="SVGID_6_">
				<use xlink:href="#SVGID_5_"  style="overflow:visible;"/>
			</clipPath>
			<line class="st5" x1="1282.9" y1="846.5" x2="1413.7" y2="754.6"/>
		</g>
	</g>
	<g>
		<g>
			<defs>
				<polygon id="SVGID_7_" points="1340,788.7 1350.9,911.6 1451.9,840.9 				"/>
			</defs>
			<clipPath id="SVGID_8_">
				<use xlink:href="#SVGID_7_"  style="overflow:visible;"/>
			</clipPath>
			<line class="st6" x1="1290.4" y1="857.1" x2="1420.9" y2="765.2"/>
		</g>
	</g>
	<g>
		<g>
			<defs>
				<polygon id="SVGID_9_" points="1340,788.7 1350.9,911.6 1451.9,840.9 				"/>
			</defs>
			<clipPath id="SVGID_10_">
				<use xlink:href="#SVGID_9_"  style="overflow:visible;"/>
			</clipPath>
			<line class="st7" x1="1297.6" y1="867.7" x2="1428.5" y2="775.8"/>
		</g>
	</g>
	<g>
		<g>
			<defs>
				<polygon id="SVGID_11_" points="1340,788.7 1350.9,911.6 1451.9,840.9 				"/>
			</defs>
			<clipPath id="SVGID_12_">
				<use xlink:href="#SVGID_11_"  style="overflow:visible;"/>
			</clipPath>
			<line class="st8" x1="1305.2" y1="878.3" x2="1436.1" y2="786.4"/>
		</g>
	</g>
	<g>
		<g>
			<defs>
				<polygon id="SVGID_13_" points="1340,788.7 1350.9,911.6 1451.9,840.9 				"/>
			</defs>
			<clipPath id="SVGID_14_">
				<use xlink:href="#SVGID_13_"  style="overflow:visible;"/>
			</clipPath>
			<line class="st9" x1="1312.7" y1="888.9" x2="1443.2" y2="797"/>
		</g>
	</g>
	<g>
		<g>
			<defs>
				<polygon id="SVGID_15_" points="1340,788.7 1350.9,911.6 1451.9,840.9 				"/>
			</defs>
			<clipPath id="SVGID_16_">
				<use xlink:href="#SVGID_15_"  style="overflow:visible;"/>
			</clipPath>
			<line class="st10" x1="1319.9" y1="899.5" x2="1450.8" y2="807.6"/>
		</g>
	</g>
	<g>
		<g>
			<defs>
				<polygon id="SVGID_17_" points="1340,788.7 1350.9,911.6 1451.9,840.9 				"/>
			</defs>
			<clipPath id="SVGID_18_">
				<use xlink:href="#SVGID_17_"  style="overflow:visible;"/>
			</clipPath>
			<line class="st11" x1="1327.5" y1="910.1" x2="1458.4" y2="818.2"/>
		</g>
	</g>
	<g>
		<g>
			<defs>
				<polygon id="SVGID_19_" points="1340,788.7 1350.9,911.6 1451.9,840.9 				"/>
			</defs>
			<clipPath id="SVGID_20_">
				<use xlink:href="#SVGID_19_"  style="overflow:visible;"/>
			</clipPath>
			<line class="st12" x1="1335.1" y1="920.7" x2="1465.6" y2="828.8"/>
		</g>
	</g>
	<g>
		<g>
			<defs>
				<polygon id="SVGID_21_" points="1340,788.7 1350.9,911.6 1451.9,840.9 				"/>
			</defs>
			<clipPath id="SVGID_22_">
				<use xlink:href="#SVGID_21_"  style="overflow:visible;"/>
			</clipPath>
			<line class="st13" x1="1342.2" y1="931.3" x2="1473.1" y2="839.4"/>
		</g>
	</g>
</g>
<g class="st14">
	<g>
		<circle class="st1" cx="206.2" cy="578.2" r="2.6"/>
		<circle class="st1" cx="206.2" cy="594.1" r="2.6"/>
	</g>
	<g>
		<circle class="st1" cx="188.4" cy="578.2" r="2.6"/>
		<circle class="st1" cx="188.4" cy="594.1" r="2.6"/>
	</g>
	<g>
		<circle class="st1" cx="170.6" cy="578.2" r="2.6"/>
		<circle class="st1" cx="170.6" cy="594.1" r="2.6"/>
	</g>
	<g>
		<circle class="st1" cx="152.8" cy="578.2" r="2.6"/>
	</g>
	<g>
		<circle class="st1" cx="135" cy="578.2" r="2.6"/>
		<circle class="st1" cx="135" cy="594.1" r="2.6"/>
	</g>
	<g>
		<circle class="st1" cx="135" cy="548" r="2.6"/>
		<circle class="st1" cx="135" cy="563.9" r="2.6"/>
	</g>
	<g>
		<circle class="st1" cx="152.8" cy="548" r="2.6"/>
		<circle class="st1" cx="152.8" cy="563.9" r="2.6"/>
	</g>
	<g>
		<circle class="st1" cx="170.6" cy="563.9" r="2.6"/>
	</g>
	<g>
		<circle class="st1" cx="117.3" cy="594.1" r="2.6"/>
	</g>
</g>
<circle class="st15" cx="113.6" cy="91.3" r="11"/>
<path class="st16" d="M666.7,94.2l-4.5-3.4c-1.5-1.1-1.5-3-0.8-4.2l3.4-4.5c1.1-1.5,3-1.5,4.2-0.8l4.5,3.4c1.5,1.1,1.5,3,0.8,4.2
	l-3.4,4.5C670.1,94.9,668.2,95.3,666.7,94.2z"/>
</svg>
